<svg width="2040" height="613" fill="none" xmlns="http://www.w3.org/2000/svg"><g opacity=".3" stroke="#fff" stroke-miterlimit="10"><path d="M139.031 271.269c93.925-11.47 182.472 244.186 428.215 268.068 245.742 23.882 310.933-134.395 559.074-183.325 248.15-48.929 552.78 47.247 552.78 47.247" stroke-width=".5"/><path d="M1676.55 385.296s-307.35-86.408-556.45-30.449c-249.109 55.959-321.525 200.325-558.989 170.505-237.464-29.82-327.583-278.002-425.628-267.68" stroke-width=".49"/><path d="M1674.02 367.334s-310.07-76.66-560.17-13.634c-250.102 63.026-329.799 193.407-558.892 157.648C325.864 475.59 234.12 234.9 131.953 244.131" stroke-width=".47"/><path d="M1671.49 349.371s-312.8-66.892-563.87 3.182c-251.06 70.074-338.148 186.47-558.816 144.81-220.667-41.66-314.001-274.894-420.398-266.792" stroke-width=".46"/><path d="M1668.96 331.409s-315.54-57.125-567.53 19.979c-251.984 77.104-346.353 179.551-558.779 131.971-212.426-47.579-307.349-273.34-417.793-266.329" stroke-width=".45"/><path d="M1666.42 313.446s-318.26-47.357-571.27 36.795c-253.003 84.151-354.56 172.614-558.634 119.133-204.074-53.48-300.604-271.787-415.188-265.904" stroke-width=".44"/><path d="M1663.87 295.484s-320.98-37.59-574.95 53.647c-253.961 91.237-362.817 165.658-558.465 106.258-195.648-59.4-293.952-270.251-412.675-265.516" stroke-width=".42"/><path d="M1661.32 277.521s-323.72-27.748-578.64 70.407c-254.928 98.156-371.138 158.777-558.47 93.531-187.333-65.246-287.115-268.771-409.977-265.09" stroke-width=".41"/><path d="M1658.81 259.559s-326.4-18.073-582.36 87.223C820.49 452.078 697.129 498.621 518.056 427.4c-179.072-71.221-280.37-267.125-407.353-264.572" stroke-width=".4"/><path d="M1656.28 241.671s-329.19-8.307-586.06 104.019c-256.862 112.326-387.559 144.847-558.243 67.706-170.683-77.14-273.7-265.589-404.821-264.128" stroke-width=".39"/><path d="M1653.75 223.652s-331.93 1.369-589.77 120.817c-257.847 119.448-395.806 138.002-558.211 54.942-162.406-83.06-266.9-264.036-402.161-263.684" stroke-width=".38"/><path d="M1651.2 205.69s-334.62 11.21-593.45 137.614c-258.824 126.403-404.063 131.083-558.042 42.103-153.98-88.98-260.248-262.481-399.63-263.221" stroke-width=".36"/><path d="M1648.67 187.728s-337.36 20.977-597.13 154.429c-259.765 133.451-412.321 124.146-558.041 29.265-145.72-94.881-253.448-260.928-396.969-262.796" stroke-width=".35"/><path d="M1646.14 169.765s-340 30.745-600.86 171.245c-260.86 140.499-420.567 117.209-558.045 16.427C349.756 256.655 240.642 98.045 93.001 95.085" stroke-width=".34"/><path d="M1643.6 151.802s-342.82 40.495-604.55 188.042c-261.725 147.548-428.824 110.31-557.876 3.571-129.052-106.739-239.94-257.82-391.72-261.89" stroke-width=".33"/><path d="M1641 133.84s-345.54 50.262-608.19 204.857c-262.654 154.596-437.052 103.373-557.789-9.249C354.284 216.826 241.825 73.163 85.906 67.984" stroke-width=".31"/><path d="M1638.52 115.877s-348.28 60.029-611.94 221.655c-263.668 161.625-445.309 96.527-557.713-22.088C356.464 196.829 242.416 60.714 82.376 54.424" stroke-width=".3"/><path d="M1635.99 97.915s-351.01 69.76-615.64 238.47c-264.626 168.711-453.566 89.517-557.636-34.926C358.644 177.017 243.007 48.282 78.828 40.883" stroke-width=".29"/><path d="M1633.46 79.953s-353.75 79.545-619.35 255.285c-265.611 175.74-461.813 82.598-557.568-47.783C360.788 157.075 243.599 35.833 75.281 27.323" stroke-width=".28"/><path d="M1630.93 61.99s-356.48 89.332-623.05 272.175c-266.569 182.844-470.033 75.587-557.454-60.695C363.005 137.188 244.19 23.383 71.751 13.782" stroke-width=".26"/><path d="M1628.38 44.028s-359.18 99.08-626.73 288.898c-267.546 189.818-478.327 68.742-557.377-73.441C365.223 117.302 244.8 10.951 68.203.222" stroke-width=".25"/><g opacity=".27"><path opacity=".27" d="M1706.78 567.252s-224.47-115.952-467.5-57.624c-260.339 62.489-345.08 34.87-428.103-18.055C624.695 372.624 397.671 264.627.129 285.513"/><path opacity=".27" d="M1702.96 558.188s-224.13-110.809-465.08-50.799c-256.555 63.563-341.721 36.61-424.818-16.945C630.571 373.42 405.653 256.636 4.564 277.373"/><path opacity=".27" d="M1699.13 549.197s-223.77-105.703-462.66-44.009c-252.613 64.543-338.297 38.182-421.449-15.798C636.742 373.845 413.71 248.644 9.147 269.252"/><path opacity=".27" d="M1695.31 540.206s-223.44-100.597-460.24-37.219c-248.737 65.578-334.828 39.846-418.202-14.67C642.637 374.493 421.637 240.653 13.581 261.076"/><path opacity=".27" d="M1691.48 531.216s-222.94-94.9-457.82-30.431c-244.722 67.189-331.403 41.512-414.944-13.522C648.605 375.14 429.62 232.661 18.09 252.936"/><path opacity=".27" d="M1687.66 522.207s-222.56-89.664-455.38-23.605c-240.847 68.317-328.028 43.177-411.716-12.412C654.537 375.825 437.602 224.67 22.617 244.797"/><path opacity=".27" d="M1683.83 513.217s-222.18-84.448-452.96-16.816c-236.943 69.445-324.604 44.953-408.458-11.284-161.999-108.589-376.956-268.439-795.36-248.478"/><path opacity=".27" d="M1680.01 504.226s-221.74-79.268-450.54-10.026c-233.048 70.555-321.208 46.561-405.081-10.193C666.4 377.194 453.568 208.631 31.672 228.444"/><path opacity=".27" d="M1676.11 495.217s-221.43-73.996-448.12-3.2c-229.129 71.628-317.825 48.245-401.79-9.028-153.961-105-364.724-282.294-790.13-262.685"/><path opacity=".27" d="M1672.41 486.227s-221.11-68.817-445.75 3.588c-225.29 72.701-314.425 49.948-398.501-7.899-149.877-103.15-358.682-289.212-787.488-269.715"/><path opacity=".27" d="M1668.53 477.236s-220.68-63.766-443.29 10.47c-221.43 73.756-311.065 51.668-395.234-6.752-145.978-101.318-352.528-296.149-784.864-276.8"/><path opacity=".27" d="M1664.71 468.227s-220.34-58.623-440.84 17.186c-217.54 74.791-307.681 53.406-391.942-5.55-141.968-99.45-346.43-303.142-782.24-283.941"/><path opacity=".27" d="M1660.88 459.237s-219.89-53.499-438.41 24.048c-213.69 75.846-304.322 55.127-388.657-4.514-137.996-97.619-340.314-310.042-779.616-291.007"/><path opacity=".27" d="M1657.06 450.246s-219.64-48.412-436.09 30.782c-209.82 76.808-300.956 56.885-385.365-3.366-133.948-95.677-334.124-316.906-776.881-298.037"/><path opacity=".27" d="M1653.23 441.237s-219.19-43.324-433.54 37.59c-205.95 77.788-297.495 58.642-382.07-2.238-130.087-93.753-328.119-323.732-774.35-305.104"/><path opacity=".27" d="M1649.41 432.21s-218.95-38.275-431.16 44.397c-202.11 78.732-294.244 60.399-378.801-1.11-126.059-91.792-321.928-330.724-771.707-312.17"/><path opacity=".27" d="M1645.58 423.256s-218.63-33.298-428.69 51.187c-198.29 79.693-290.944 62.193-375.501 0-122.271-89.85-315.96-337.662-769.194-319.255"/><path opacity=".27" d="M1641.76 414.247s-218.32-28.285-426.3 57.994c-194.46 80.619-287.611 63.988-372.204 1.147C724.921 385.5 533.412 128.827 76.777 147.048"/><path opacity=".27" d="M1637.93 405.256s-218.04-23.216-423.87 64.747c-190.64 81.562-284.308 65.801-368.92 2.331C730.704 386.406 541.395 120.798 81.286 138.89"/><path opacity=".27" d="M1634.11 396.266s-217.9-18.628-421.46 71.591c-186.98 82.062-281.013 67.632-365.625 3.404C736.47 387.35 549.377 112.807 85.795 130.677"/><path opacity=".27" d="M1630.28 387.257s-217.56-13.486-419.03 78.399c-183.12 83.097-277.839 69.63-362.34 4.532-106.823-81.728-291.55-365.41-758.607-347.577"/><path opacity=".27" d="M1626.46 378.267s-217.22-8.38-416.6 85.095c-179.23 84.133-274.472 71.369-359.065 5.679C747.963 389.255 565.342 96.824 94.831 114.453"/></g><g opacity=".4"><path opacity=".4" d="M119.037 347.558c190.585-159.886 485.036-207.188 784.291-57.346C1141.66 409.53 1438.29 681.946 1918.75 487.059"/><path opacity=".4" d="M123.767 352.183c190.16-155.576 484.556-200.251 782-52.278C1142.44 417.669 1445.33 680.484 1926.3 493.774" stroke-width=".97"/><path opacity=".4" d="M128.516 356.826c189.698-151.284 484.131-193.295 779.672-47.19C1143.21 425.809 1452.32 679.004 1933.88 500.508" stroke-width=".94"/><path opacity=".4" d="M133.173 361.451c189.347-146.956 483.631-186.377 777.454-42.085C1143.93 434.06 1459.32 677.506 1941.46 507.223" stroke-width=".91"/><path opacity=".4" d="M137.977 366.076c188.848-142.646 483.022-179.347 775.071-36.979 231.702 113.01 553.292 346.929 1035.982 184.841" stroke-width=".88"/><path opacity=".4" d="M142.726 370.7c188.404-138.279 482.578-172.373 772.742-31.873C1145.52 450.264 1473.35 674.546 1956.61 520.653" stroke-width=".84"/><path opacity=".4" d="M147.457 375.344C335.417 241.319 629.554 209.926 918 348.557c228.39 109.847 562.46 324.491 1046.28 178.811" stroke-width=".81"/><path opacity=".4" d="M152.187 379.969c187.536-129.697 481.617-158.444 768.159-21.755 226.744 108.274 567.044 313.261 1051.414 175.74" stroke-width=".78"/><path opacity=".4" d="M156.936 384.593c187.092-125.386 481.118-151.469 765.813-16.649C1147.85 474.757 1494.39 670.069 1979.34 540.817" stroke-width=".75"/><path opacity=".4" d="M161.666 389.218c186.631-121.076 480.638-144.477 763.522-11.469C1148.63 482.86 1501.41 668.571 1986.91 547.532" stroke-width=".72"/><path opacity=".4" d="M166.434 393.843c186.205-116.747 480.139-137.503 761.193-6.364 221.853 103.52 580.793 279.667 1066.863 166.824" stroke-width=".69"/><path opacity=".4" d="M171.146 398.486c185.78-112.418 479.658-130.547 758.883-1.276C1150.16 499.157 1515.44 665.593 2002.06 560.962" stroke-width=".66"/><path opacity=".4" d="M175.876 403.111c185.355-108.127 479.178-123.573 756.592 3.811C1150.94 507.297 1522.44 664.057 2009.62 567.678" stroke-width=".63"/><path opacity=".4" d="M180.625 407.735c184.893-103.816 478.679-116.543 754.264 8.917C1151.71 515.436 1529.46 662.688 2017.2 574.393" stroke-width=".59"/><path opacity=".4" d="M185.355 412.36c184.469-99.487 478.199-109.624 752.066 14.023 215.159 97.212 599.139 234.751 1087.449 154.725" stroke-width=".56"/><path opacity=".4" d="M190.086 417.004c184.043-95.196 477.718-102.67 749.663 19.109 213.521 95.621 603.741 223.523 1092.601 151.691" stroke-width=".53"/><path opacity=".4" d="M194.835 421.628c183.6-90.867 477.219-95.695 747.334 24.215 211.871 94.049 608.291 212.313 1097.761 148.713" stroke-width=".5"/></g></g></svg>