<svg width="715" height="428" fill="none" xmlns="http://www.w3.org/2000/svg"><path d="M74.966 303.377c28.331-14.379 85.574 56.212 165.875 35.609s82.742-78.05 155.458-121.921c72.717-43.871 179.889-48.389 179.889-48.389" stroke="#fff" stroke-width=".5" stroke-miterlimit="10"/><path d="M573.325 163.296S466.414 171.209 394.2 217.41c-72.214 46.201-78.529 100.083-156.898 117.862-78.369 17.78-135.251-50.271-165.014-35.782" stroke="#fff" stroke-width=".49" stroke-miterlimit="10"/><path d="M570.468 157.913s-106.651 11.304-178.37 59.85c-71.72 48.547-81.936 98.846-158.343 113.792-76.407 14.946-132.943-50.553-164.133-35.937" stroke="#fff" stroke-width=".47" stroke-miterlimit="10"/><path d="M567.611 152.531S461.216 167.232 390 218.114c-71.215 50.882-85.366 97.612-159.789 109.729-74.424 12.118-130.608-50.845-163.263-36.101" stroke="#fff" stroke-width=".46" stroke-miterlimit="10"/><path d="M564.754 147.149s-106.139 18.098-176.841 71.306c-70.701 53.208-88.748 96.367-161.249 105.671-72.501 9.304-128.33-51.116-162.387-36.253" stroke="#fff" stroke-width=".45" stroke-miterlimit="10"/><path d="M561.896 141.766s-105.883 21.496-176.097 77.046c-70.215 55.55-92.133 95.116-162.674 101.6-70.541 6.484-126.023-51.398-161.516-36.417" stroke="#fff" stroke-width=".44" stroke-miterlimit="10"/><path d="M559.033 136.386s-105.621 24.892-175.327 82.789C314 277.073 288.169 313.041 219.61 316.69c-68.56 3.65-123.748-51.675-160.678-36.582" stroke="#fff" stroke-width=".42" stroke-miterlimit="10"/><path d="M556.17 131.006s-105.357 28.312-174.573 88.505c-69.217 60.192-98.95 92.644-165.555 93.496-66.604.851-121.42-51.991-159.777-36.758" stroke="#fff" stroke-width=".41" stroke-miterlimit="10"/><path d="M553.319 125.621S448.225 157.296 379.5 219.862c-68.725 62.565-102.329 91.391-167.011 89.41-64.682-1.982-119.102-52.244-158.89-36.894" stroke="#fff" stroke-width=".4" stroke-miterlimit="10"/><path d="M550.47 120.262s-104.855 35.079-173.061 99.968c-68.205 64.889-105.731 90.128-168.443 85.316-62.713-4.812-116.821-52.523-158.04-37.044" stroke="#fff" stroke-width=".39" stroke-miterlimit="10"/><path d="M547.606 114.863S442.996 153.31 375.298 220.56s-109.117 88.91-169.895 81.281c-60.778-7.63-114.496-52.811-157.149-37.209" stroke="#fff" stroke-width=".38" stroke-miterlimit="10"/><path d="M544.743 109.482s-104.334 41.864-171.544 111.423c-67.21 69.559-112.516 87.671-171.313 77.207-58.797-10.463-112.22-53.081-156.297-37.352" stroke="#fff" stroke-width=".36" stroke-miterlimit="10"/><path d="M541.886 104.1s-104.078 45.261-170.778 117.154c-66.7 71.893-115.919 86.426-172.784 73.153-56.866-13.273-109.895-53.37-155.41-37.522" stroke="#fff" stroke-width=".35" stroke-miterlimit="10"/><path d="M539.029 98.718s-103.793 48.648-170.03 122.891c-66.236 74.243-119.314 85.18-174.255 69.099-54.941-16.08-107.555-53.67-154.495-37.695" stroke="#fff" stroke-width=".34" stroke-miterlimit="10"/><path d="M536.172 93.335S432.604 145.386 366.9 221.954c-65.703 76.569-122.712 83.947-175.676 65.021-52.963-18.927-105.275-53.936-153.648-37.838" stroke="#fff" stroke-width=".33" stroke-miterlimit="10"/><path d="M533.291 87.961s-103.306 55.447-168.493 134.346c-65.188 78.9-126.103 82.698-177.116 60.962-51.013-21.737-102.97-54.223-152.778-38.002" stroke="#fff" stroke-width=".31" stroke-miterlimit="10"/><path d="M530.451 82.573s-103.05 58.844-167.752 140.08c-64.703 81.236-129.494 81.482-178.564 56.898-49.07-24.583-100.663-54.504-151.898-38.161" stroke="#fff" stroke-width=".3" stroke-miterlimit="10"/><path d="M527.594 77.19s-102.798 62.23-166.992 145.814c-64.194 83.583-132.905 80.214-180.012 52.836s-98.356-54.787-151.025-38.32" stroke="#fff" stroke-width=".29" stroke-miterlimit="10"/><path d="M524.737 71.808s-102.54 65.633-166.238 151.549c-63.698 85.915-136.298 78.973-181.461 48.768-45.163-30.206-96.044-55.071-150.146-38.481" stroke="#fff" stroke-width=".28" stroke-miterlimit="10"/><path d="M521.88 66.426S419.597 135.463 356.41 223.73c-63.187 88.27-139.697 77.702-182.905 44.679-43.209-33.024-93.751-55.354-149.279-38.637" stroke="#fff" stroke-width=".26" stroke-miterlimit="10"/><path d="M519.017 61.046S417 133.47 354.303 224.053s-143.1 76.49-184.343 40.644c-41.242-35.846-91.438-55.638-148.407-38.8" stroke="#fff" stroke-width=".25" stroke-miterlimit="10"/><g opacity=".27" stroke="#fff" stroke-miterlimit="10"><path opacity=".27" d="M603.716 217.292s-84.138-10.907-154.162 35.345c-75.012 49.55-104.924 50.534-137.193 43.329-72.49-16.204-156.521-24.307-279.605 27.818"/><path opacity=".27" d="M601.47 214.868s-83.438-9.323-152.615 37.223c-73.694 49.455-103.664 50.697-136.028 43.303-71.01-16.054-155.383-27.173-279.604 25.311"/><path opacity=".27" d="M599.233 212.467s-82.742-7.751-151.074 39.09c-72.339 49.313-102.404 50.802-134.835 43.279-69.51-16.069-154.253-30.062-279.585 22.78"/><path opacity=".27" d="M596.995 210.066s-82.052-6.177-149.531 40.957c-70.996 49.196-101.117 50.93-133.68 43.263-68.035-15.99-153.126-32.943-279.582 20.24"/><path opacity=".27" d="M594.758 207.665s-81.242-4.435-147.99 42.823c-69.545 49.245-99.847 51.065-132.521 43.253-66.54-15.924-151.985-35.836-279.555 17.698"/><path opacity=".27" d="M592.518 205.258s-80.519-2.826-146.438 44.7c-68.191 49.157-98.588 51.203-131.373 43.233-65.05-15.837-150.841-38.724-279.519 15.159"/><path opacity=".27" d="M590.281 202.857s-79.805-1.221-144.896 46.566c-66.831 49.067-97.306 51.372-130.218 43.217-63.574-15.737-149.738-41.596-279.514 12.626"/><path opacity=".27" d="M588.043 200.456s-79.071.364-143.354 48.433c-65.473 48.971-96.049 51.491-129.025 43.175-62.105-15.636-148.597-44.49-279.492 10.085"/><path opacity=".27" d="M585.78 198.058s-78.368 1.992-141.807 50.311c-64.114 48.861-94.789 51.635-127.854 43.166-60.626-15.525-147.465-47.373-279.491 7.54"/><path opacity=".27" d="M583.584 195.642s-77.676 3.592-140.283 52.184c-62.778 48.76-93.521 51.783-126.687 43.146-59.125-15.408-146.35-50.25-279.462 5.018"/><path opacity=".27" d="M581.329 193.247s-76.963 5.139-138.719 54.076c-61.438 48.65-92.262 51.942-125.522 43.133-57.686-15.276-145.204-53.145-279.447 2.48"/><path opacity=".27" d="M579.089 190.84s-76.262 6.723-137.174 55.915c-60.094 48.533-90.995 52.104-124.346 43.136-56.205-15.145-144.08-56.051-279.436-.075"/><path opacity=".27" d="M576.852 188.439s-75.536 8.29-135.624 57.806c-58.755 48.423-89.736 52.261-123.189 43.086-54.742-15.022-142.94-58.931-279.418-2.607"/><path opacity=".27" d="M574.614 186.039s-74.871 9.866-134.117 59.664c-57.425 48.285-88.474 52.431-122.02 43.072-53.241-14.872-141.772-61.807-279.36-5.14"/><path opacity=".27" d="M572.375 183.632s-74.148 11.422-132.532 61.522c-56.095 48.153-87.182 52.59-120.853 43.052-51.802-14.707-140.659-64.651-279.37-7.662"/><path opacity=".27" d="M570.133 181.219s-73.493 12.989-131 63.399c-54.773 48.01-85.954 52.773-119.69 43.034-50.307-14.55-139.507-67.568-279.347-10.196"/><path opacity=".27" d="M567.9 178.83s-72.824 14.525-129.446 65.261c-53.456 47.876-84.705 52.961-118.52 43.005-48.888-14.369-138.418-70.441-279.365-12.721"/><path opacity=".27" d="M565.66 176.423s-72.15 16.072-127.907 67.136c-52.143 47.73-83.449 53.146-117.351 42.991-47.421-14.202-137.278-73.322-279.32-15.27"/><path opacity=".27" d="M563.423 174.022s-71.483 17.641-126.37 68.991c-50.827 47.59-82.198 53.34-116.177 42.988-45.965-14.029-136.152-76.222-279.305-17.814"/><path opacity=".27" d="M561.185 171.621s-70.91 19.073-124.821 70.875c-49.615 47.329-80.95 53.542-115.016 42.95-44.509-13.836-135.02-79.105-279.295-20.368"/><path opacity=".27" d="M558.946 169.214s-70.216 20.659-123.278 72.748c-48.277 47.213-79.717 53.809-113.848 42.929-43.081-13.574-133.892-81.999-279.268-22.877"/><path opacity=".27" d="M556.708 166.813s-69.52 22.231-121.74 74.583c-46.934 47.096-78.457 53.973-112.684 42.917-41.599-13.418-132.748-84.848-279.238-25.394"/></g><g opacity=".4" stroke="#fff" stroke-miterlimit="10"><path opacity=".4" d="M77.396 329.758c41.835-72.317 129.354-120.977 240.979-107.933 88.897 10.383 213.738 62.435 343.055-54.133"/><path opacity=".4" d="M79.42 330.677c42.194-70.908 129.996-118.732 240.835-106.07 88.195 10.083 213.913 58.385 344.33-55.66" stroke-width=".97"/><path opacity=".4" d="M81.45 331.599c42.541-69.499 130.66-116.486 240.684-104.197 87.494 9.769 214.069 54.323 345.614-57.196" stroke-width=".94"/><path opacity=".4" d="M83.45 332.526c42.926-68.092 131.295-114.244 240.569-102.33 86.781 9.498 214.223 50.254 346.89-58.737" stroke-width=".91"/><path opacity=".4" d="M85.496 333.436c43.262-66.673 131.908-111.954 240.402-100.445 86.081 9.151 214.391 46.187 348.171-60.279" stroke-width=".88"/><path opacity=".4" d="M87.525 334.353c43.622-65.244 132.567-109.702 240.252-98.566 85.382 8.842 214.553 42.122 349.453-61.822" stroke-width=".84"/><path opacity=".4" d="M89.55 335.277c43.97-63.849 133.213-107.45 240.141-96.707 84.674 8.53 214.712 38.051 350.729-63.363" stroke-width=".81"/><path opacity=".4" d="M91.573 336.196c44.332-62.434 133.86-105.193 239.965-94.846 83.975 8.223 214.872 33.981 351.999-64.92" stroke-width=".78"/><path opacity=".4" d="M93.602 337.113c44.686-61.023 134.502-102.934 239.809-92.965 83.289 7.949 215.049 29.937 353.303-66.419" stroke-width=".75"/><path opacity=".4" d="M95.625 338.031c45.034-59.608 135.151-100.67 239.68-91.066 82.569 7.602 215.199 25.842 354.57-67.983" stroke-width=".72"/><path opacity=".4" d="M97.66 338.946c45.395-58.193 135.793-98.411 239.529-89.188 81.885 7.282 215.363 21.798 355.853-69.506" stroke-width=".69"/><path opacity=".4" d="M99.68 339.872c45.757-56.777 136.437-96.159 239.382-87.316 81.163 6.982 215.528 17.705 357.135-71.068" stroke-width=".66"/><path opacity=".4" d="M101.702 340.791c46.115-55.373 137.086-93.902 239.243-85.448 80.458 6.676 215.679 13.631 358.407-72.6" stroke-width=".63"/><path opacity=".4" d="M103.731 341.707c46.463-53.959 137.734-91.624 239.093-83.568 79.756 6.362 215.86 9.598 359.688-74.143" stroke-width=".59"/><path opacity=".4" d="M105.754 342.626c46.825-52.543 138.375-89.385 238.984-81.705 79.051 6.056 216.007 5.513 360.964-75.683" stroke-width=".56"/><path opacity=".4" d="M107.779 343.551c47.183-51.14 139.02-87.134 238.809-79.824 78.35 5.742 216.173 1.44 362.243-77.232" stroke-width=".53"/><path opacity=".4" d="M109.808 344.467c47.538-49.722 139.662-84.874 238.659-77.944 77.65 5.434 216.323-2.621 363.529-78.763" stroke-width=".5"/></g></svg>