<svg width="1920" height="574" fill="none" xmlns="http://www.w3.org/2000/svg"><path opacity=".2" d="M1877.63 41.239c-2.76 0-5.51.24-8.27.482-.33 0-1.02 0-1.37-.241-.35-.241-.68-.482-.68-.965V39.31c0-10.852-6.2-20.5-16.51-27.734C1840.83 4.582 1826.72 0 1811.23 0c-19.25 0-36.46 6.993-46.43 17.363-.35.483-1.03.724-1.72.483-7.91-1.447-16.16-2.411-24.77-2.411-26.15 0-49.87 7.476-66.73 19.533-17.2 12.059-27.87 28.458-27.87 46.787 0 3.858.7 7.716 1.39 11.575 0 .483-.35 1.206-1.04 1.447-11.7 3.135-21.67 8.682-29.23 15.435-.35.241-1.04.482-1.39.482-.68 0-1.03-.241-1.37-.482-12.38-13.747-34.4-22.911-59.51-22.911-38.87 0-70.17 21.946-70.52 48.957 0 .24-.34.723-.69.964-.33.241-.68.241-1.37.241h-3.44c-16.86 0-31.65 6.029-40.58 14.952-.35.242-.7.482-1.39.482-.33 0-1.03 0-1.37-.24-11.7-7.236-26.84-11.576-43.69-11.576-33.02 0-60.53 17.122-65.35 39.309 0 .242-.35.482-.69.723-.35.242-.69.242-1.38.242-2.06-.242-4.47-.483-6.53-.483-17.2 0-31.99 7.477-37.84 18.329-.35.483-.69.723-1.38.723s-1.37-.24-1.72-.723c-9.29-12.782-31.65-21.946-58.13-21.946-23.74 0-44.38 7.476-54.69 18.329-.35.241-.69.481-1.04.481-.34 0-1.03 0-1.37-.24-8.95-4.583-19.61-7.236-31.31-7.236-14.1 0-26.83 3.859-36.11 10.129-.35.242-1.04.483-1.38.242-2.75-.482-5.5-.965-8.26-1.206-.68-.242-1.37-.482-1.37-1.206-1.03-20.499-24.77-36.898-54.01-36.898-16.51 0-31.299 5.306-41.275 13.506-.344.24-1.032.481-1.376.481-.688 0-1.032-.241-1.376-.723-8.944-11.817-26.487-19.776-47.126-19.776-.344 0-1.032 0-1.376-.241-.344-.24-.688-.482-.344-.964v-1.688c0-10.853-5.848-21.946-17.887-30.146-12.039-8.44-27.519-12.54-43.342-12.54-15.479 0-31.303 4.1-43.342 12.54-10.663 7.476-16.511 16.64-17.543 26.288 0 .481-.344.723-.688.964-.345.241-1.033.241-1.377 0-7.224-1.93-15.478-3.136-23.734-3.136-5.848 0-11.352.483-16.855 1.447-1.033.242-1.721-.241-2.065-.964-8.254-21.946-36.806-38.104-70.516-38.104-31.647 0-58.478 13.988-68.797 33.522-.344.241-.688.723-1.032.723-.688 0-1.031 0-1.375-.241-7.568-4.1-17.201-6.511-27.52-6.511-13.759 0-25.799 4.1-34.398 10.611-.344.241-1.032.483-1.376.483-.688 0-1.032-.242-1.376-.724-10.663-14.711-32.335-24.84-57.445-24.84-29.926 0-54.693 14.229-62.261 33.521 0 .483-.688.724-1.032.724-.344.242-1.032 0-1.721 0-7.91-3.617-17.543-6.029-27.862-6.27-.688 0-1.376-.482-1.72-.965-4.127-23.875-33.022-42.444-68.109-42.444-15.479 0-29.239 3.617-40.934 9.404-.344.242-1.032.242-1.376.242-.344 0-1.032-.242-1.032-.482-4.816-5.064-10.664-9.647-17.199-13.506-.688-.24-.688-.723-.688-1.205 2.408-5.547 3.784-11.335 3.784-17.364 0-16.64-9.632-31.834-25.111-42.686-15.48-10.611-37.15-17.364-60.885-17.364-26.487 0-49.878 8.441-65.701 21.464-.344.24-1.032.482-1.72.482s-1.032-.482-1.376-.964C119.522 18.087 88.22 0 50.726 0 39.718 0 30.773 1.447 23.55 4.341c-7.224 2.894-12.728 6.752-17.2 11.817C-1.904 26.528-5 40.757-5 56.433c0 1.928 0 4.099.344 6.029L-1.56 571h1922.87V78.62c.69-1.93.69-3.86.69-6.03 0-8.681-5.16-16.399-13.07-22.187-7.57-5.546-18.92-9.164-31.3-9.164z" fill="#91E3E8"/><g opacity=".6"><g opacity=".5" fill="#FF8F51" clip-path="url(#clip0_502_11)"><g opacity=".7"><path opacity=".7" d="M405.143 570.141h244.46c1.034 0 1.953.903 1.953 1.918 0 1.016-.919 1.917-1.953 1.917h-244.46c-1.034 0-1.952-.901-1.952-1.917 0-1.128.918-1.918 1.952-1.918zm270.996 0h263.069c1.035 0 1.953.903 1.953 1.918 0 1.016-.918 1.917-1.953 1.917H676.139c-1.035 0-1.954-.901-1.954-1.917 0-1.128.919-1.918 1.954-1.918zm-550.84 0h55.486c1.034 0 1.954.903 1.954 1.918 0 1.016-.92 1.917-1.954 1.917h-55.486c-1.033 0-1.953-.901-1.953-1.917 0-1.128.805-1.918 1.953-1.918zm90.638 0h107.642c1.033 0 1.952.903 1.952 1.918 0 1.016-.919 1.917-1.952 1.917H215.937c-1.033 0-1.952-.901-1.952-1.917 0-1.128.804-1.918 1.952-1.918zm-55.37-174.419a6.398 6.398 0 003.676-1.128l71.224-46.256 71.224 46.256c1.493 1.016 3.332 1.354 5.054.903 1.723-.339 3.216-1.354 4.251-2.821 1.033-1.466 1.379-3.272.919-4.964-.344-1.692-1.379-3.159-2.872-4.174l-74.786-48.512c-1.148-.79-2.526-1.129-3.905-1.129s-2.757.339-3.907 1.129l-74.785 48.512a6.614 6.614 0 00-1.953 9.138c1.494 2.031 3.677 3.046 5.86 3.046zm74.9-51.558c-.346 0-.804.113-1.035.338l-72.372 46.933c-1.264.79-2.988.451-3.907-.79-.804-1.241-.458-2.933.804-3.835l74.786-48.513c.46-.338 1.034-.451 1.609-.451h.115c.574 0 1.148.113 1.608.451l74.785 48.513c.575.451 1.035 1.015 1.149 1.692.115.677 0 1.466-.345 2.031-.459.564-1.033 1.015-1.723 1.128-.689.113-1.493 0-2.068-.339L236.5 344.39a2.776 2.776 0 00-1.033-.226zm168.985 138.203c1.033 0 2.067-.338 2.987-.902l50.776-32.943 50.89 32.943c1.148.789 2.642 1.015 4.02.789 1.379-.338 2.643-1.128 3.447-2.255 1.608-2.37.919-5.754-1.493-7.334l-53.648-34.748c-.919-.564-1.954-.903-3.102-.903-1.149 0-2.182.226-3.101.903l-53.648 34.748c-2.413 1.58-3.103 4.851-1.493 7.334.804 1.127 1.952 1.917 3.445 2.255.116.113.46.113.92.113zm53.763-38.02c-.346 0-.804.113-1.035.339l-51.924 33.62c-.345.226-.689.226-1.035.226a2.514 2.514 0 01-.918-.564c-.23-.339-.23-.677-.23-1.016.115-.339.344-.677.575-.903l53.647-34.748c.345-.225.689-.225.804-.225h.116c.229 0 .573 0 .804.225l53.648 34.748c.344.226.573.564.573.903.116.339 0 .79-.229 1.016-.23.338-.575.564-.919.564-.345.113-.804 0-1.035-.226l-51.924-33.62c-.229-.226-.574-.339-.918-.339z"/><path opacity=".7" d="M168.036 450.891h135.441c1.034 0 1.952-.903 1.952-1.918v-58.779c0-1.015-.918-1.918-1.952-1.918-1.034 0-1.953.903-1.953 1.918v56.861H169.989v-57.199c0-1.016-.92-1.918-1.953-1.918-1.035 0-1.953.902-1.953 1.918v59.117c0 1.015.804 1.918 1.953 1.918zm0 106.275h135.441c1.034 0 1.952-.901 1.952-1.917v-79.425c0-1.015-.918-1.918-1.952-1.918-1.034 0-1.953.903-1.953 1.918v77.507H169.989v-77.958c0-1.015-.92-1.918-1.953-1.918-1.035 0-1.953.903-1.953 1.918v79.876c0 1.129.804 1.917 1.953 1.917z"/><path opacity=".7" d="M235.697 391.774c8.043 0 14.706-6.431 14.706-14.441 0-7.898-6.548-14.441-14.706-14.441-8.041 0-14.704 6.431-14.704 14.441.115 8.01 6.663 14.441 14.704 14.441zm0-24.933c5.975 0 10.799 4.738 10.799 10.605 0 5.866-4.824 10.605-10.799 10.605-5.973 0-10.797-4.739-10.797-10.605.115-5.867 4.939-10.605 10.797-10.605z"/><path opacity=".7" d="M235.699 391.774c1.033 0 1.952-.903 1.952-1.918v-24.933c0-1.016-.919-1.918-1.952-1.918-1.035 0-1.954.902-1.954 1.918v24.933c0 1.015.919 1.918 1.954 1.918z"/><path opacity=".7" d="M223.176 379.251h25.273c1.035 0 1.954-.903 1.954-1.918 0-1.016-.919-1.918-1.954-1.918h-25.273c-1.033 0-1.953.902-1.953 1.918 0 1.128.805 1.918 1.953 1.918zm234.809 109.773c8.042 0 14.706-6.431 14.706-14.441 0-7.897-6.548-14.441-14.706-14.441-8.041 0-14.704 6.431-14.704 14.441 0 8.01 6.663 14.441 14.704 14.441zm0-24.933c5.975 0 10.799 4.739 10.799 10.605 0 5.867-4.824 10.605-10.799 10.605-5.973 0-10.798-4.738-10.798-10.605 0-5.866 4.825-10.605 10.798-10.605z"/><path opacity=".7" d="M457.985 489.024c1.035 0 1.954-.903 1.954-1.918v-24.933c0-1.016-.919-1.918-1.954-1.918-1.033 0-1.952.902-1.952 1.918v24.933c0 1.128.919 1.918 1.952 1.918z"/><path opacity=".7" d="M445.348 476.613h25.273c1.034 0 1.954-.902 1.954-1.917 0-1.015-.92-1.918-1.954-1.918h-25.273c-1.033 0-1.953.903-1.953 1.918s.92 1.917 1.953 1.917zm-187.019-45.578h22.862c1.033 0 1.952-.903 1.952-1.918v-22.451c0-1.015-.919-1.918-1.952-1.918h-22.862c-1.033 0-1.953.903-1.953 1.918v22.451c0 1.015.92 1.918 1.953 1.918zm20.908-3.949h-18.954v-18.615h18.954v18.615zm-89.834 3.949h22.86c1.034 0 1.953-.903 1.953-1.918v-22.451c0-1.015-.919-1.918-1.953-1.918h-22.86c-1.034 0-1.954.903-1.954 1.918v22.451c-.114 1.015.806 1.918 1.954 1.918zm20.793-3.949h-18.955v-18.615h18.955v18.615zm-52.615 50.204h156.35c.689 0 1.264-.338 1.608-.789.345-.565.46-1.128.229-1.805l-10.109-26.4c-.23-.79-1.034-1.241-1.838-1.241h-136.13c-.804 0-1.494.451-1.838 1.241l-10.109 26.4c-.231.565-.115 1.24.229 1.805.346.451.919.789 1.608.789zm153.478-3.835H160.453l8.616-22.564h133.374l8.616 22.564zm-60.888 83.711c1.034 0 1.953-.901 1.953-1.917v-52.123h26.881v52.123c0 1.016.919 1.917 1.954 1.917 1.033 0 1.953-.901 1.953-1.917v-54.04c0-1.016-.92-1.919-1.953-1.919h-30.672c-1.15 0-2.068.903-2.068 2.032v54.04c0 1.016.918 1.804 1.952 1.804zm-61.114-35.312h39.863c1.033 0 1.952-.902 1.952-1.918v-29.332c0-1.016-.919-1.919-1.952-1.919h-39.863c-1.034 0-1.953.903-1.953 1.919v29.332c0 1.016.919 1.918 1.953 1.918zm37.91-3.835h-35.842v-25.498h35.842v25.498z"/><path opacity=".7" d="M189.401 498.388h39.519c1.033 0 1.952-.903 1.952-1.918s-.919-1.918-1.952-1.918h-39.519c-1.033 0-1.952.903-1.952 1.918-.116 1.015.804 1.918 1.952 1.918zm68.928-84.502h22.862c1.033 0 1.952-.902 1.952-1.918 0-1.015-.919-1.918-1.952-1.918h-22.862c-1.033 0-1.953.903-1.953 1.918 0 1.016.92 1.918 1.953 1.918zm-68.926 0h22.86c1.034 0 1.953-.902 1.953-1.918 0-1.015-.919-1.918-1.953-1.918h-22.86c-1.034 0-1.954.903-1.954 1.918 0 1.016.804 1.918 1.954 1.918zm456.868 98.492c.344 0 .689 0 .918-.113 1.264-.226 2.298-.903 2.987-1.918 1.379-2.144.804-4.964-1.379-6.318l-42.734-27.754c-.804-.564-1.723-.79-2.642-.79-.92 0-1.838.226-2.642.79l-42.735 27.754c-2.183 1.354-2.757 4.286-1.379 6.318.69 1.015 1.724 1.692 2.987 1.918 1.264.226 2.528 0 3.561-.677l40.208-26.061 40.207 26.061c.804.451 1.723.79 2.643.79zm-42.735-33.056c.115 0 .229 0 .459.113l42.62 27.64c.345.226.46.676.23 1.015-.116.225-.345.338-.46.338-.114 0-.345 0-.574-.113l-41.356-26.85c-.69-.452-1.494-.452-2.183 0l-41.356 26.85c-.229.113-.46.113-.575.113-.114 0-.344-.113-.458-.338-.231-.339-.115-.789.229-1.015l42.735-27.753c.114-.113.344-.113.46-.113.114.113.114.113.229.113z"/><path opacity=".7" d="M603.305 509.218c4.022 0 7.238-3.158 7.238-7.107 0-3.949-3.216-7.108-7.238-7.108-4.02 0-7.237 3.159-7.237 7.108-.115 3.836 3.217 7.107 7.237 7.107zm0-10.492c1.839 0 3.332 1.467 3.332 3.273 0 1.804-1.493 3.271-3.332 3.271-1.837 0-3.331-1.467-3.331-3.271-.114-1.806 1.379-3.273 3.331-3.273z"/><path opacity=".7" d="M565.396 556.942h75.589c1.035 0 1.954-.903 1.954-1.919v-47.158c0-1.015-.919-1.918-1.954-1.918-1.033 0-1.952.903-1.952 1.918v45.24h-71.684v-45.24c0-1.015-.918-1.918-1.953-1.918-1.033 0-1.952.903-1.952 1.918v47.158c0 1.016.919 1.919 1.952 1.919z"/><path opacity=".7" d="M578.147 555.7c1.034 0 1.953-.902 1.953-1.918v-34.973h46.525v34.973c0 1.016.919 1.918 1.954 1.918 1.033 0 1.952-.902 1.952-1.918V516.89c0-1.015-.919-1.918-1.952-1.918h-50.432c-1.034 0-1.952.903-1.952 1.918v36.892c0 1.016.918 1.918 1.952 1.918z"/><path opacity=".7" d="M578.148 523.547h50.432c.804 0 1.379-.564 1.379-1.354 0-.79-.575-1.354-1.379-1.354h-50.432c-.804 0-1.377.564-1.377 1.354 0 .677.688 1.354 1.377 1.354zm0 5.527h50.432c.804 0 1.379-.563 1.379-1.353s-.575-1.354-1.379-1.354h-50.432c-.804 0-1.377.564-1.377 1.354 0 .79.688 1.353 1.377 1.353zm0 5.528h50.432c.804 0 1.379-.563 1.379-1.353s-.575-1.354-1.379-1.354h-50.432c-.804 0-1.377.564-1.377 1.354 0 .79.688 1.353 1.377 1.353zm0 5.528h50.432c.804 0 1.379-.563 1.379-1.353 0-.789-.575-1.354-1.379-1.354h-50.432c-.804 0-1.377.565-1.377 1.354 0 .79.688 1.353 1.377 1.353zm0 5.528h50.432c.804 0 1.379-.562 1.379-1.352s-.575-1.355-1.379-1.355h-50.432c-.804 0-1.377.565-1.377 1.355s.688 1.352 1.377 1.352zm0 5.643h50.432c.804 0 1.379-.564 1.379-1.354 0-.79-.575-1.355-1.379-1.355h-50.432c-.804 0-1.377.565-1.377 1.355 0 .677.688 1.354 1.377 1.354zm105.571 10.04c1.034 0 1.953-.902 1.953-1.918v-91.835c0-1.015-.919-1.918-1.953-1.918-1.033 0-1.952.903-1.952 1.918v91.835c0 1.129.919 1.918 1.952 1.918z"/><path opacity=".7" d="M683.72 486.654c.46 0 1.033-.224 1.379-.563l7.696-7.559c.805-.79.805-1.919 0-2.708-.804-.789-1.952-.789-2.756 0l-7.698 7.559c-.804.79-.804 1.918 0 2.708.346.339.919.563 1.379.563zm0 13.99c.345 0 .804-.112 1.149-.338.919-.564 1.148-1.806.459-2.708l-8.385-11.845c-.575-.903-1.839-1.129-2.758-.452-.918.565-1.149 1.805-.46 2.707l8.387 11.847c.344.564 1.033.789 1.608.789z"/><path opacity=".7" d="M683.491 525.351c.116 0 .345 0 .46-.112.46-.113 11.258-3.046 15.164-17.825 3.905-15.006-4.251-66.338-12.063-76.154-.804-1.015-1.608-1.692-2.527-2.03a2.187 2.187 0 00-.918-.226h-.346c-.344 0-.574.113-.918.226-.919.338-1.724 1.015-2.528 2.03-7.811 9.929-15.968 61.148-12.062 76.154 3.791 14.779 14.704 17.712 15.164 17.825.23.112.459.112.574.112zm0-92.285c1.724 1.353 5.858 10.153 9.536 31.59 3.101 18.276 4.02 35.086 2.297 41.968-2.872 10.944-9.88 14.215-11.833 14.892-1.952-.677-8.96-3.948-11.832-14.892-1.723-6.882-.804-23.692 2.297-41.968 3.676-21.437 7.812-30.237 9.535-31.59zm-268.124 123.65h85.813c1.033 0 1.953-.903 1.953-1.918v-79.876c0-1.016-.92-1.918-1.953-1.918-1.035 0-1.953.902-1.953 1.918v77.957H417.32v-77.957c0-1.016-.92-1.918-1.953-1.918-1.034 0-1.954.902-1.954 1.918v79.876c0 1.015.92 1.918 1.954 1.918z"/><path opacity=".7" d="M350 475.711h52.499c1.034 0 1.953-.902 1.953-1.917 0-1.016-.919-1.919-1.953-1.919h-49.856l16.541-53.589h177.601l16.543 53.589h-49.397c-1.035 0-1.954.903-1.954 1.919 0 1.015.919 1.917 1.954 1.917h52.04c.573 0 1.148-.339 1.608-.789.344-.451.458-1.128.344-1.693l-17.691-57.425c-.229-.79-1.035-1.354-1.839-1.354H367.921c-.92 0-1.608.564-1.838 1.354l-17.691 57.425a1.558 1.558 0 00.344 1.693c.115.45.689.789 1.264.789z"/><path opacity=".7" d="M358.735 556.716h199.426c1.035 0 1.954-.903 1.954-1.918v-81.004c0-1.016-.919-1.919-1.954-1.919-1.033 0-1.952.903-1.952 1.919v79.085H360.687l-.344-79.085c0-1.016-.92-1.919-1.954-1.919-1.033 0-1.953.903-1.953 1.919l.345 81.004c0 1.015.919 1.918 1.954 1.918z"/><path opacity=".7" d="M442.821 556.716c1.035 0 1.954-.903 1.954-1.918v-49.077h27.11v48.061c0 1.016.92 1.918 1.954 1.918 1.034 0 1.953-.902 1.953-1.918v-49.979c0-1.016-.919-1.917-1.953-1.917h-31.018c-1.033 0-1.952.901-1.952 1.917v50.882c0 1.128.919 2.031 1.952 2.031zm75.36-29.785h22.862c1.035 0 1.953-.903 1.953-1.918v-33.506c0-1.016-.918-1.919-1.953-1.919h-22.862c-1.033 0-1.952.903-1.952 1.919v33.506c0 1.128.919 1.918 1.952 1.918zm20.91-3.835H520.25v-29.672h18.956v29.672h-.115zm-163.242 3.835h22.86c1.035 0 1.954-.903 1.954-1.918v-33.506c0-1.016-.919-1.919-1.954-1.919h-22.86c-1.034 0-1.953.903-1.953 1.919v33.506c0 1.128.804 1.918 1.953 1.918zm20.908-3.835h-18.954v-29.672h18.954v29.672zM291.528 373.158c1.033 0 1.952-.902 1.952-1.918V343.6c0-1.016-.919-1.918-1.952-1.918h-19.071c-1.033 0-1.952.902-1.952 1.918v15.23c0 1.016.919 1.918 1.952 1.918 1.035 0 1.954-.902 1.954-1.918v-13.312h15.164v25.722c0 1.129.804 1.918 1.953 1.918z"/><path opacity=".7" d="M273.607 345.518h17.232c3.216 0 5.744-2.595 5.744-5.641v-.113c0-3.159-2.643-5.641-5.744-5.641h-17.232c-3.216 0-5.744 2.595-5.744 5.641v.113c-.115 3.046 2.528 5.641 5.744 5.641zm17.116-7.672c1.034 0 1.838.79 1.838 1.805v.113c0 1.015-.804 1.805-1.838 1.805h-17.231c-1.035 0-1.839-.79-1.839-1.805v-.113c0-1.015.804-1.805 1.839-1.805h17.231zm21.369 218.87h44.112c1.035 0 1.953-.903 1.953-1.918v-40.503c0-1.014-.918-1.917-1.953-1.917h-44.112c-1.035 0-1.953.903-1.953 1.917v40.503c0 1.015.918 1.918 1.953 1.918zm42.16-3.95h-40.208v-36.665h40.208v36.665z"/><path opacity=".7" d="M350.575 556.716c1.033 0 1.953-.903 1.953-1.918v-40.503c0-1.014-.92-1.917-1.953-1.917-1.035 0-1.954.903-1.954 1.917v40.503c0 1.015.919 1.918 1.954 1.918zm-6.434 0c1.034 0 1.952-.903 1.952-1.918v-40.503c0-1.014-.918-1.917-1.952-1.917-1.034 0-1.953.903-1.953 1.917v40.503c0 1.015.804 1.918 1.953 1.918zm-6.548 0c1.035 0 1.954-.903 1.954-1.918v-40.503c0-1.014-.919-1.917-1.954-1.917-1.033 0-1.952.903-1.952 1.917v40.503c0 1.015.919 1.918 1.952 1.918zm-6.548 0c1.035 0 1.954-.903 1.954-1.918v-40.503c0-1.014-.919-1.917-1.954-1.917-1.033 0-1.952.903-1.952 1.917v40.503c0 1.015.919 1.918 1.952 1.918zm-6.432 0c1.035 0 1.954-.903 1.954-1.918v-40.503c0-1.014-.919-1.917-1.954-1.917-1.033 0-1.953.903-1.953 1.917v40.503c0 1.015.804 1.918 1.953 1.918zm-6.548 0c1.034 0 1.954-.903 1.954-1.918v-40.503c0-1.014-.92-1.917-1.954-1.917-1.033 0-1.953.903-1.953 1.917v40.503c0 1.015.92 1.918 1.953 1.918zm343.714 17.26c1.034 0 1.953-.901 1.953-1.917v-44.676c0-1.016-.919-1.919-1.953-1.919s-1.954.903-1.954 1.919v44.676c0 1.016.92 1.917 1.954 1.917z"/><path opacity=".7" d="M661.777 537.423c.46 0 1.035-.225 1.379-.564l4.48-4.287c.804-.79.804-1.918 0-2.708-.804-.789-1.952-.789-2.756 0l-4.481 4.288c-.804.79-.804 1.917 0 2.707.345.339.92.564 1.378.564zm.002 7.785c.345 0 .804-.112 1.149-.338.919-.564 1.148-1.806.573-2.708l-5.284-7.784c-.574-.903-1.837-1.129-2.757-.565-.919.565-1.148 1.805-.573 2.707l5.284 7.786c.344.564 1.033.902 1.608.902z"/><path opacity=".7" d="M661.779 551.075c9.994 0 18.036-8.011 18.036-17.713 0-9.815-8.156-17.713-18.036-17.713-9.994 0-18.035 8.011-18.035 17.713 0 9.702 8.041 17.713 18.035 17.713zm0-31.703c7.812 0 14.13 6.205 14.13 13.877 0 7.671-6.318 13.876-14.13 13.876-7.811 0-14.13-6.205-14.13-13.876 0-7.559 6.319-13.877 14.13-13.877zm141.033-131.66c-2.183 0-4.365-1.015-5.629-2.933-2.068-3.046-1.15-7.108 1.953-9.138l74.785-48.513c1.148-.79 2.527-1.128 3.906-1.128 1.378 0 2.757.338 3.905 1.128l74.785 48.513a6.611 6.611 0 011.954 9.138c-2.068 3.046-6.203 3.836-9.306 1.918l-71.224-46.256-71.224 46.256c-1.378.677-2.642 1.015-3.905 1.015zm-1.609-8.8c-1.263.79-1.608 2.482-.804 3.836.804 1.241 2.528 1.58 3.906.79l72.372-46.933c.69-.451 1.494-.451 2.183 0l72.373 46.933c1.264.79 2.987.451 3.907-.79.804-1.241.459-2.933-.805-3.836L879.549 330.4c-.458-.338-1.033-.451-1.608-.451h-.114c-.575 0-1.15.113-1.608.451l-75.016 48.512z"/><path opacity=".7" d="M945.721 557.618h-135.44c-1.034 0-1.953-.902-1.953-1.917V381.958c0-1.015.919-1.917 1.953-1.917s1.952.902 1.952 1.917v171.824h131.536V382.861c0-1.015.919-1.918 1.952-1.918 1.035 0 1.954.903 1.954 1.918v172.727c0 1.128-.804 2.03-1.954 2.03z"/><path opacity=".7" d="M878.059 383.876c-8.042 0-14.705-6.43-14.705-14.441 0-7.897 6.548-14.44 14.705-14.44 8.041 0 14.704 6.43 14.704 14.44-.115 7.898-6.663 14.441-14.704 14.441zm0-25.046c-5.974 0-10.799 4.739-10.799 10.605 0 5.867 4.825 10.606 10.799 10.606 5.973 0 10.798-4.739 10.798-10.606-.114-5.866-4.94-10.605-10.798-10.605z"/><path opacity=".7" d="M878.06 383.876c-1.035 0-1.953-.902-1.953-1.918v-24.933c0-1.015.918-1.918 1.953-1.918 1.033 0 1.952.903 1.952 1.918v24.933c0 1.016-.919 1.918-1.952 1.918z"/><path opacity=".7" d="M890.696 371.353h-25.273c-1.034 0-1.952-.902-1.952-1.918 0-1.015.918-1.917 1.952-1.917h25.273c1.033 0 1.953.902 1.953 1.917a1.919 1.919 0 01-1.953 1.918zm33.888 80.892h-25.388c-1.033 0-1.952-.903-1.952-1.918v-41.856c0-1.016.919-1.918 1.952-1.918h25.388c1.034 0 1.953.902 1.953 1.918v41.856c0 1.015-.919 1.918-1.953 1.918zm-23.435-3.836h21.483v-38.02h-21.483v38.02z"/><path opacity=".7" d="M924.584 430.584h-25.388c-1.033 0-1.952-.903-1.952-1.918 0-1.016.919-1.918 1.952-1.918h25.388c1.034 0 1.953.902 1.953 1.918 0 1.128-.919 1.918-1.953 1.918zm-33.89 21.661h-25.388c-1.033 0-1.952-.903-1.952-1.918v-41.856c0-1.016.919-1.918 1.952-1.918h25.388c1.034 0 1.954.902 1.954 1.918v41.856a1.92 1.92 0 01-1.954 1.918zm-23.434-3.836h21.481v-38.02H867.26v38.02z"/><path opacity=".7" d="M890.694 430.584h-25.388c-1.033 0-1.952-.903-1.952-1.918 0-1.016.919-1.918 1.952-1.918h25.388c1.034 0 1.954.902 1.954 1.918 0 1.128-.804 1.918-1.954 1.918zm33.315 85.517h-25.388c-1.034 0-1.953-.903-1.953-1.919v-41.855c0-1.016.919-1.919 1.953-1.919h25.388c1.034 0 1.952.903 1.952 1.919v41.855c0 1.129-.918 1.919-1.952 1.919zm-23.436-3.836h21.483v-38.02h-21.483v38.02z"/><path opacity=".7" d="M924.009 494.552h-25.388c-1.034 0-1.953-.903-1.953-1.918s.919-1.917 1.953-1.917h25.388c1.034 0 1.952.902 1.952 1.917 0 1.015-.918 1.918-1.952 1.918zm-33.773 21.549h-25.388c-1.035 0-1.953-.903-1.953-1.919v-41.855c0-1.016.918-1.919 1.953-1.919h25.388c1.033 0 1.952.903 1.952 1.919v41.855c0 1.129-.919 1.919-1.952 1.919zm-23.436-3.836h21.483v-38.02H866.8v38.02z"/><path opacity=".7" d="M890.236 494.552h-25.388c-1.035 0-1.953-.903-1.953-1.918s.918-1.917 1.953-1.917h25.388c1.033 0 1.952.902 1.952 1.917 0 1.015-.919 1.918-1.952 1.918zm-33.084-42.307h-25.388c-1.033 0-1.953-.903-1.953-1.918v-41.856c0-1.016.92-1.918 1.953-1.918h25.388c1.033 0 1.953.902 1.953 1.918v41.856a1.919 1.919 0 01-1.953 1.918zm-23.435-3.836h21.482v-38.02h-21.482v38.02z"/><path opacity=".7" d="M857.152 430.584h-25.388c-1.033 0-1.953-.903-1.953-1.918 0-1.016.92-1.918 1.953-1.918h25.388c1.033 0 1.953.902 1.953 1.918 0 1.128-.804 1.918-1.953 1.918zm-.461 85.517h-25.388c-1.034 0-1.952-.903-1.952-1.919v-41.855c0-1.016.918-1.919 1.952-1.919h25.388c1.034 0 1.953.903 1.953 1.919v41.855c0 1.129-.919 1.919-1.953 1.919zm-23.435-3.836h21.483v-38.02h-21.483v38.02z"/><path opacity=".7" d="M856.691 494.552h-25.388c-1.034 0-1.952-.903-1.952-1.918s.918-1.917 1.952-1.917h25.388c1.034 0 1.953.902 1.953 1.917 0 1.015-.919 1.918-1.953 1.918zm-46.41-100.296h-98.565a2.054 2.054 0 01-1.839-1.129c-.344-.677-.229-1.466.346-2.03l51.12-58.102c.345-.452.918-.677 1.493-.677h103.849c1.035 0 1.954.902 1.954 1.918 0 1.015-.919 1.918-1.954 1.918h-102.93l-47.79 54.266h94.316c1.034 0 1.952.902 1.952 1.918 0 1.015-.918 1.918-1.952 1.918z"/><path opacity=".7" d="M810.281 557.618h-93.856c-1.033 0-1.953-.902-1.953-1.917V392.338c0-1.016.92-1.918 1.953-1.918 1.035 0 1.954.902 1.954 1.918v161.444h91.902c1.034 0 1.952.903 1.952 1.919 0 1.015-.918 1.917-1.952 1.917z"/><path opacity=".7" d="M783.744 557.618c-1.034 0-1.952-.902-1.952-1.917v-65.436h-37.221v65.436c0 1.015-.919 1.917-1.952 1.917-1.035 0-1.954-.902-1.954-1.917v-67.354c0-1.016.919-1.919 1.954-1.919h41.125c1.034 0 1.953.903 1.953 1.919v67.354c0 1.015-.919 1.917-1.953 1.917zm10.569-119.927h-61.116c-1.033 0-1.952-.902-1.952-1.918v-27.302c0-1.016.919-1.918 1.952-1.918h61.231c1.033 0 1.953.902 1.953 1.918v27.302c-.116 1.016-.92 1.918-2.068 1.918zm-59.162-3.836h57.324v-23.466h-57.324v23.466z"/><path opacity=".7" d="M794.313 415.579h-61.116c-1.033 0-1.952-.903-1.952-1.918 0-1.016.919-1.918 1.952-1.918h61.231c1.033 0 1.953.902 1.953 1.918-.116 1.015-.92 1.918-2.068 1.918z"/><path opacity=".7" d="M763.756 437.691c-1.033 0-1.952-.903-1.952-1.918v-21.661c0-1.016.919-1.918 1.952-1.918 1.035 0 1.953.902 1.953 1.918v21.661c0 1.015-.918 1.918-1.953 1.918zM-132.6 570.141h263.07c1.034 0 1.953.903 1.953 1.918 0 1.016-.919 1.917-1.953 1.917H-132.6c-1.033 0-1.953-.901-1.953-1.917 0-1.128.92-1.918 1.953-1.918zM41.208 387.712c2.183 0 4.365-1.015 5.63-2.933 2.067-3.046 1.148-7.108-1.954-9.138L-29.9 327.128c-1.15-.79-2.528-1.128-3.906-1.128-1.379 0-2.757.338-3.906 1.128l-74.785 48.513a6.612 6.612 0 00-1.953 9.138c2.067 3.046 6.203 3.836 9.305 1.918l71.224-46.256 71.224 46.256c1.379.677 2.642 1.015 3.906 1.015zm1.608-8.8c1.264.79 1.608 2.482.804 3.836-.804 1.241-2.527 1.58-3.905.79l-72.373-46.933c-.69-.451-1.494-.451-2.183 0l-72.373 46.933c-1.264.79-2.987.451-3.906-.79-.804-1.241-.459-2.933.804-3.836L-35.53 330.4c.46-.338 1.034-.451 1.608-.451h.115c.574 0 1.149.113 1.608.451l75.015 48.512z"/><path opacity=".7" d="M-101.7 557.618H33.741c1.034 0 1.953-.902 1.953-1.917V381.958c0-1.015-.92-1.917-1.953-1.917-1.034 0-1.953.902-1.953 1.917v171.824H-99.747V382.861c0-1.015-.919-1.918-1.953-1.918s-1.953.903-1.953 1.918v172.727c0 1.128.804 2.03 1.953 2.03z"/><path opacity=".7" d="M-13.129 452.245H12.26c1.034 0 1.953-.903 1.953-1.918v-41.856c0-1.015-.919-1.918-1.953-1.918h-25.388c-1.034 0-1.953.903-1.953 1.918v41.856a1.92 1.92 0 001.953 1.918zm23.435-3.836h-21.482v-38.02h21.482v38.02z"/><path opacity=".7" d="M-13.129 430.584H12.26c1.034 0 1.953-.903 1.953-1.918 0-1.016-.919-1.918-1.953-1.918h-25.388c-1.034 0-1.953.902-1.953 1.918 0 1.128.805 1.918 1.953 1.918zm.46 85.517h25.388c1.034 0 1.953-.903 1.953-1.919v-41.855c0-1.016-.92-1.919-1.953-1.919H-12.67c-1.034 0-1.953.903-1.953 1.919v41.855c0 1.129.92 1.919 1.953 1.919zm23.435-3.836h-21.482v-38.02h21.482v38.02z"/><path opacity=".7" d="M-12.669 494.552h25.388c1.034 0 1.953-.903 1.953-1.918s-.92-1.917-1.953-1.917H-12.67c-1.034 0-1.953.902-1.953 1.917 0 1.015.92 1.918 1.953 1.918zm46.413-100.296h98.565a2.05 2.05 0 001.838-1.129c.345-.677.23-1.466-.344-2.03l-51.121-58.102c-.345-.452-.92-.677-1.493-.677h-103.85c-1.034 0-1.953.902-1.953 1.918 0 1.015.919 1.918 1.953 1.918h102.93l47.79 54.266H33.744c-1.034 0-1.953.902-1.953 1.918 0 1.015.92 1.918 1.953 1.918z"/><path opacity=".7" d="M33.742 557.618h93.856c1.034 0 1.953-.902 1.953-1.917V392.338c0-1.016-.919-1.918-1.953-1.918s-1.953.902-1.953 1.918v161.444H33.742c-1.033 0-1.953.903-1.953 1.919 0 1.015.92 1.917 1.953 1.917z"/><path opacity=".7" d="M60.279 557.618c1.034 0 1.953-.902 1.953-1.917v-65.436h37.22v65.436c0 1.015.919 1.917 1.953 1.917s1.953-.902 1.953-1.917v-67.354c0-1.016-.919-1.919-1.953-1.919H60.279c-1.034 0-1.953.903-1.953 1.919v67.354c0 1.015.92 1.917 1.953 1.917zM49.71 437.691h61.116c1.034 0 1.953-.902 1.953-1.918v-27.302c0-1.015-.919-1.918-1.953-1.918h-61.23c-1.034 0-1.953.903-1.953 1.918v27.302c.115 1.016.919 1.918 2.068 1.918zm59.163-3.836H51.548v-23.466h57.325v23.466z"/><path opacity=".7" d="M49.71 415.579h61.116c1.034 0 1.953-.903 1.953-1.918 0-1.016-.919-1.918-1.953-1.918h-61.23c-1.034 0-1.953.902-1.953 1.918.115 1.015.919 1.918 2.068 1.918z"/><path opacity=".7" d="M80.268 437.691c1.034 0 1.953-.902 1.953-1.918v-21.661c0-1.015-.919-1.918-1.953-1.918-1.033 0-1.953.903-1.953 1.918v21.661c0 1.016.92 1.918 1.953 1.918z"/></g><g opacity=".7"><path opacity=".7" d="M1773.89 570.141h55.5c1.02 0 1.94.903 1.94 1.918 0 1.016-.92 1.917-1.94 1.917h-55.5c-1.02 0-1.94-.901-1.94-1.917 0-1.128.8-1.918 1.94-1.918zm90.64 0h107.64c1.04 0 1.96.903 1.96 1.918 0 1.016-.92 1.917-1.96 1.917h-107.64c-1.02 0-1.94-.901-1.94-1.917 0-1.128.8-1.918 1.94-1.918zm-55.37-174.419c1.27 0 2.53-.338 3.68-1.128l71.23-46.256 71.22 46.256c1.5 1.016 3.34 1.354 5.06.903 1.72-.339 3.21-1.354 4.25-2.821 1.03-1.466 1.37-3.272.92-4.964-.35-1.692-1.39-3.159-2.88-4.174l-74.79-48.512c-1.14-.79-2.52-1.129-3.9-1.129s-2.75.339-3.91 1.129l-74.79 48.512a6.613 6.613 0 00-1.94 9.138c1.49 2.031 3.68 3.046 5.85 3.046zm74.91-51.558c-.35 0-.8.113-1.04.338l-72.38 46.933c-1.25.79-2.98.451-3.9-.79-.8-1.241-.46-2.933.81-3.835l74.79-48.513c.45-.338 1.02-.451 1.6-.451h.12c.57 0 1.14.113 1.61.451l74.77 48.513c.59.451 1.04 1.015 1.16 1.692.11.677 0 1.466-.34 2.031-.47.564-1.04 1.015-1.72 1.128-.7.113-1.5 0-2.08-.339l-72.38-46.932c-.22-.113-.68-.226-1.02-.226z"/><path opacity=".7" d="M1816.64 450.891h135.44c1.03 0 1.95-.903 1.95-1.918v-58.779c0-1.015-.92-1.918-1.95-1.918-1.04 0-1.96.903-1.96 1.918v56.861h-131.53v-57.199c0-1.016-.92-1.918-1.95-1.918-1.04 0-1.96.902-1.96 1.918v59.117c0 1.015.8 1.918 1.96 1.918zm0 106.275h135.44c1.03 0 1.95-.901 1.95-1.917v-79.425c0-1.015-.92-1.918-1.95-1.918-1.04 0-1.96.903-1.96 1.918v77.507h-131.53v-77.958c0-1.015-.92-1.918-1.95-1.918-1.04 0-1.96.903-1.96 1.918v79.876c0 1.129.8 1.917 1.96 1.917z"/><path opacity=".7" d="M1884.29 391.774c8.04 0 14.71-6.431 14.71-14.441 0-7.898-6.55-14.441-14.71-14.441-8.04 0-14.7 6.431-14.7 14.441.12 8.01 6.66 14.441 14.7 14.441zm0-24.933c5.98 0 10.8 4.738 10.8 10.605 0 5.866-4.82 10.605-10.8 10.605-5.97 0-10.8-4.739-10.8-10.605.12-5.867 4.95-10.605 10.8-10.605z"/><path opacity=".7" d="M1884.29 391.774c1.04 0 1.96-.903 1.96-1.918v-24.933c0-1.016-.92-1.918-1.96-1.918-1.02 0-1.94.902-1.94 1.918v24.933c0 1.015.92 1.918 1.94 1.918z"/><path opacity=".7" d="M1871.77 379.251h25.28c1.03 0 1.95-.903 1.95-1.918 0-1.016-.92-1.918-1.95-1.918h-25.28c-1.02 0-1.94.902-1.94 1.918 0 1.128.8 1.918 1.94 1.918zm35.16 51.784h22.86c1.04 0 1.96-.903 1.96-1.918v-22.451c0-1.015-.92-1.918-1.96-1.918h-22.86c-1.04 0-1.96.903-1.96 1.918v22.451c0 1.015.92 1.918 1.96 1.918zm20.91-3.949h-18.96v-18.615h18.96v18.615zm-89.84 3.949h22.87c1.02 0 1.94-.903 1.94-1.918v-22.451c0-1.015-.92-1.918-1.94-1.918H1838c-1.03 0-1.95.903-1.95 1.918v22.451c-.12 1.015.8 1.918 1.95 1.918zm20.8-3.949h-18.96v-18.615h18.96v18.615zm-52.63 50.204h156.36c.68 0 1.26-.338 1.6-.789.35-.565.47-1.128.23-1.805l-10.11-26.4c-.22-.79-1.02-1.241-1.84-1.241h-136.12c-.81 0-1.49.451-1.84 1.241l-10.12 26.4c-.22.565-.1 1.24.24 1.805.35.451.92.789 1.6.789zm153.48-3.835h-150.6l8.62-22.564h133.37l8.61 22.564zm-60.88 83.711c1.03 0 1.95-.901 1.95-1.917v-52.123h26.88v52.123c0 1.016.92 1.917 1.96 1.917 1.03 0 1.95-.901 1.95-1.917v-54.04c0-1.016-.92-1.919-1.95-1.919h-30.68c-1.15 0-2.07.903-2.07 2.032v54.04c0 1.016.92 1.804 1.96 1.804zm-61.12-35.312h39.87c1.03 0 1.95-.902 1.95-1.918v-29.332c0-1.016-.92-1.919-1.95-1.919h-39.87c-1.02 0-1.94.903-1.94 1.919v29.332c0 1.016.92 1.918 1.94 1.918zm37.91-3.835h-35.84v-25.498h35.84v25.498z"/><path opacity=".7" d="M1838 498.388h39.52c1.03 0 1.95-.903 1.95-1.918s-.92-1.918-1.95-1.918H1838c-1.04 0-1.95.903-1.95 1.918-.12 1.015.8 1.918 1.95 1.918zm68.93-84.502h22.86c1.04 0 1.96-.902 1.96-1.918 0-1.015-.92-1.918-1.96-1.918h-22.86c-1.04 0-1.96.903-1.96 1.918 0 1.016.92 1.918 1.96 1.918zm-68.93 0h22.87c1.02 0 1.94-.902 1.94-1.918 0-1.015-.92-1.918-1.94-1.918H1838c-1.03 0-1.95.903-1.95 1.918 0 1.016.8 1.918 1.95 1.918zm102.12-40.728c1.04 0 1.96-.902 1.96-1.918V343.6c0-1.016-.92-1.918-1.96-1.918h-19.07c-1.02 0-1.94.902-1.94 1.918v15.23c0 1.016.92 1.918 1.94 1.918 1.04 0 1.96-.902 1.96-1.918v-13.312h15.16v25.722c0 1.129.8 1.918 1.95 1.918z"/><path opacity=".7" d="M1922.21 345.518h17.23c3.21 0 5.75-2.595 5.75-5.641v-.113c0-3.159-2.64-5.641-5.75-5.641h-17.23c-3.22 0-5.74 2.595-5.74 5.641v.113c-.12 3.046 2.52 5.641 5.74 5.641zm17.11-7.672c1.04 0 1.84.79 1.84 1.805v.113c0 1.015-.8 1.805-1.84 1.805h-17.23c-1.04 0-1.84-.79-1.84-1.805v-.113c0-1.015.8-1.805 1.84-1.805h17.23zM1245 570.141h244.45c1.04 0 1.96.903 1.96 1.918 0 1.016-.92 1.917-1.96 1.917H1245c-1.03 0-1.95-.901-1.95-1.917 0-1.128.92-1.918 1.95-1.918zm271 0h263.07c1.04 0 1.96.903 1.96 1.918 0 1.016-.92 1.917-1.96 1.917H1516c-1.04 0-1.96-.901-1.96-1.917 0-1.128.92-1.918 1.96-1.918zm-550.843 0h55.483c1.04 0 1.96.903 1.96 1.918 0 1.016-.92 1.917-1.96 1.917h-55.483c-1.033 0-1.953-.901-1.953-1.917 0-1.128.804-1.918 1.953-1.918zm90.643 0h107.64c1.03 0 1.95.903 1.95 1.918 0 1.016-.92 1.917-1.95 1.917H1055.8c-1.04 0-1.95-.901-1.95-1.917 0-1.128.8-1.918 1.95-1.918zm-55.37-174.419c1.26 0 2.52-.338 3.67-1.128l71.23-46.256 71.22 46.256c1.5 1.016 3.33 1.354 5.06.903 1.72-.339 3.21-1.354 4.25-2.821 1.03-1.466 1.37-3.272.92-4.964-.35-1.692-1.38-3.159-2.88-4.174l-74.78-48.512c-1.15-.79-2.53-1.129-3.91-1.129-1.38 0-2.76.339-3.9 1.129l-74.789 48.512a6.612 6.612 0 00-1.953 9.138c1.493 2.031 3.676 3.046 5.862 3.046zm74.9-51.558c-.35 0-.81.113-1.04.338l-72.37 46.933c-1.26.79-2.987.451-3.905-.79-.804-1.241-.46-2.933.804-3.835l74.781-48.513c.46-.338 1.04-.451 1.61-.451h.12c.57 0 1.15.113 1.61.451l74.78 48.513c.57.451 1.03 1.015 1.15 1.692.11.677 0 1.466-.34 2.031-.46.564-1.04 1.015-1.73 1.128-.69.113-1.49 0-2.07-.339l-72.37-46.932a2.783 2.783 0 00-1.03-.226zm168.98 138.203c1.04 0 2.07-.338 2.99-.902l50.77-32.943 50.89 32.943c1.16.789 2.65 1.015 4.03.789 1.37-.338 2.64-1.128 3.44-2.255 1.61-2.37.92-5.754-1.5-7.334l-53.64-34.748c-.92-.564-1.95-.903-3.1-.903-1.15 0-2.18.226-3.1.903l-53.65 34.748c-2.41 1.58-3.1 4.851-1.49 7.334.8 1.127 1.95 1.917 3.44 2.255.12.113.46.113.92.113zm53.76-38.019c-.34 0-.8.112-1.03.338l-51.92 33.62c-.35.226-.69.226-1.04.226a2.565 2.565 0 01-.92-.564c-.23-.339-.23-.677-.23-1.016.12-.339.35-.677.58-.903l53.65-34.748c.34-.225.69-.225.8-.225h.11c.23 0 .58 0 .81.225l53.65 34.748c.34.226.58.564.58.903.1.339 0 .79-.24 1.016-.23.338-.58.564-.92.564-.34.113-.8 0-1.03-.226l-51.93-33.62c-.23-.226-.57-.338-.92-.338z"/><path opacity=".7" d="M1007.89 450.891h135.44c1.04 0 1.96-.902 1.96-1.918v-58.779c0-1.015-.92-1.918-1.96-1.918-1.03 0-1.95.903-1.95 1.918v56.861h-131.53v-57.199c0-1.016-.92-1.918-1.96-1.918-1.03 0-1.95.902-1.95 1.918v59.117c0 1.016.81 1.918 1.95 1.918zm0 106.275h135.44c1.04 0 1.96-.901 1.96-1.917v-79.425c0-1.015-.92-1.918-1.96-1.918-1.03 0-1.95.903-1.95 1.918v77.507h-131.53v-77.958c0-1.015-.92-1.918-1.96-1.918-1.03 0-1.95.903-1.95 1.918v79.876c0 1.129.81 1.917 1.95 1.917z"/><path opacity=".7" d="M1075.56 391.774c8.04 0 14.7-6.431 14.7-14.441 0-7.898-6.55-14.441-14.7-14.441-8.05 0-14.71 6.431-14.71 14.441.12 8.01 6.66 14.441 14.71 14.441zm0-24.933c5.97 0 10.79 4.738 10.79 10.605 0 5.866-4.82 10.605-10.79 10.605-5.98 0-10.8-4.739-10.8-10.605.11-5.867 4.94-10.605 10.8-10.605z"/><path opacity=".7" d="M1075.56 391.774c1.03 0 1.95-.903 1.95-1.918v-24.933c0-1.016-.92-1.918-1.95-1.918-1.04 0-1.96.902-1.96 1.918v24.933c0 1.015.92 1.918 1.96 1.918z"/><path opacity=".7" d="M1063.03 379.251h25.28c1.03 0 1.95-.903 1.95-1.918 0-1.016-.92-1.918-1.95-1.918h-25.28c-1.03 0-1.95.902-1.95 1.918 0 1.128.81 1.918 1.95 1.918zm234.82 109.773c8.04 0 14.7-6.431 14.7-14.441 0-7.897-6.55-14.441-14.7-14.441-8.05 0-14.71 6.431-14.71 14.441 0 8.01 6.66 14.441 14.71 14.441zm0-24.933c5.97 0 10.79 4.739 10.79 10.605 0 5.867-4.82 10.605-10.79 10.605-5.98 0-10.8-4.738-10.8-10.605 0-5.866 4.82-10.605 10.8-10.605z"/><path opacity=".7" d="M1297.85 489.024c1.03 0 1.95-.903 1.95-1.918v-24.933c0-1.016-.92-1.918-1.95-1.918-1.04 0-1.96.902-1.96 1.918v24.933c0 1.128.92 1.918 1.96 1.918z"/><path opacity=".7" d="M1285.21 476.613h25.27c1.04 0 1.95-.902 1.95-1.917 0-1.015-.91-1.918-1.95-1.918h-25.27c-1.04 0-1.95.903-1.95 1.918s.91 1.917 1.95 1.917zm-187.02-45.578h22.86c1.03 0 1.95-.903 1.95-1.918v-22.451c0-1.015-.92-1.918-1.95-1.918h-22.86c-1.04 0-1.96.903-1.96 1.918v22.451c0 1.015.92 1.918 1.96 1.918zm20.9-3.949h-18.95v-18.615h18.95v18.615zm-89.83 3.949h22.86c1.03 0 1.95-.903 1.95-1.918v-22.451c0-1.015-.92-1.918-1.95-1.918h-22.86c-1.03 0-1.95.903-1.95 1.918v22.451c-.12 1.015.8 1.918 1.95 1.918zm20.79-3.949h-18.95v-18.615h18.95v18.615zm-52.61 50.204h156.35c.69 0 1.26-.338 1.61-.789.34-.565.46-1.128.23-1.805l-10.11-26.4c-.23-.79-1.04-1.241-1.84-1.241h-136.13c-.8 0-1.49.451-1.84 1.241l-10.109 26.4c-.229.565-.114 1.24.231 1.805.344.451.919.789 1.608.789zm153.48-3.835h-150.61l8.62-22.564h133.37l8.62 22.564zm-60.89 83.711c1.04 0 1.96-.901 1.96-1.917v-52.123h26.88v52.123c0 1.016.92 1.917 1.95 1.917 1.03 0 1.95-.901 1.95-1.917v-54.04c0-1.016-.92-1.919-1.95-1.919h-30.67c-1.15 0-2.07.903-2.07 2.032v54.04c0 1.016.92 1.804 1.95 1.804zm-61.11-35.312h39.86c1.03 0 1.95-.902 1.95-1.918v-29.332c0-1.016-.92-1.919-1.95-1.919h-39.86c-1.04 0-1.96.903-1.96 1.919v29.332c0 1.016.92 1.918 1.96 1.918zm37.91-3.835h-35.84v-25.498h35.84v25.498z"/><path opacity=".7" d="M1029.26 498.388h39.52c1.03 0 1.95-.903 1.95-1.918s-.92-1.918-1.95-1.918h-39.52c-1.03 0-1.95.903-1.95 1.918-.12 1.015.8 1.918 1.95 1.918zm456.87 13.99c.35 0 .68 0 .92-.113 1.26-.226 2.3-.903 2.99-1.918 1.37-2.144.8-4.964-1.39-6.318l-42.73-27.754c-.8-.564-1.72-.79-2.64-.79-.92 0-1.84.226-2.64.79l-42.73 27.754c-2.19 1.354-2.76 4.286-1.39 6.318.69 1.015 1.73 1.692 2.99 1.918 1.26.226 2.53 0 3.56-.677l40.21-26.061 40.21 26.061c.8.451 1.72.79 2.64.79zm-42.73-33.056c.11 0 .23 0 .45.113l42.63 27.64c.33.226.45.676.23 1.015-.12.225-.35.338-.47.338-.11 0-.35 0-.57-.113l-41.35-26.85c-.69-.452-1.49-.452-2.19 0l-41.36 26.85c-.22.113-.45.113-.57.113-.12 0-.35-.113-.45-.338-.24-.339-.12-.789.22-1.015l42.74-27.753c.12-.113.34-.113.45-.113.12.113.12.113.24.113z"/><path opacity=".7" d="M1443.16 509.218c4.03 0 7.24-3.158 7.24-7.107 0-3.949-3.21-7.108-7.24-7.108-4.01 0-7.23 3.159-7.23 7.108-.12 3.836 3.22 7.107 7.23 7.107zm0-10.492c1.84 0 3.33 1.467 3.33 3.273 0 1.804-1.49 3.271-3.33 3.271-1.83 0-3.32-1.467-3.32-3.271-.12-1.806 1.37-3.273 3.32-3.273z"/><path opacity=".7" d="M1405.25 556.942h75.59c1.04 0 1.96-.903 1.96-1.919v-47.158c0-1.015-.92-1.918-1.96-1.918-1.03 0-1.95.903-1.95 1.918v45.24h-71.68v-45.24c0-1.015-.92-1.918-1.96-1.918-1.02 0-1.94.903-1.94 1.918v47.158c0 1.016.92 1.919 1.94 1.919z"/><path opacity=".7" d="M1418.01 555.7c1.03 0 1.95-.902 1.95-1.918v-34.973h46.52v34.973c0 1.016.92 1.918 1.96 1.918 1.03 0 1.95-.902 1.95-1.918V516.89c0-1.015-.92-1.918-1.95-1.918h-50.43c-1.04 0-1.96.903-1.96 1.918v36.892c0 1.016.92 1.918 1.96 1.918z"/><path opacity=".7" d="M1418 523.547h50.44c.8 0 1.37-.564 1.37-1.354 0-.79-.57-1.354-1.37-1.354H1418c-.8 0-1.37.564-1.37 1.354 0 .677.69 1.354 1.37 1.354zm0 5.527h50.44c.8 0 1.37-.563 1.37-1.353s-.57-1.354-1.37-1.354H1418c-.8 0-1.37.564-1.37 1.354 0 .79.69 1.353 1.37 1.353zm0 5.528h50.44c.8 0 1.37-.563 1.37-1.353s-.57-1.354-1.37-1.354H1418c-.8 0-1.37.564-1.37 1.354 0 .79.69 1.353 1.37 1.353zm0 5.528h50.44c.8 0 1.37-.563 1.37-1.353 0-.789-.57-1.354-1.37-1.354H1418c-.8 0-1.37.565-1.37 1.354 0 .79.69 1.353 1.37 1.353zm0 5.528h50.44c.8 0 1.37-.562 1.37-1.352s-.57-1.355-1.37-1.355H1418c-.8 0-1.37.565-1.37 1.355s.69 1.352 1.37 1.352zm0 5.643h50.44c.8 0 1.37-.564 1.37-1.354 0-.79-.57-1.355-1.37-1.355H1418c-.8 0-1.37.565-1.37 1.355 0 .677.69 1.354 1.37 1.354zm-439.744 7.558c1.034 0 1.952-.903 1.952-1.917v-92.174c0-1.015-.918-1.918-1.952-1.918-1.034 0-1.953.903-1.953 1.918v92.174c0 1.014.919 1.917 1.953 1.917z"/><path opacity=".7" d="M978.255 483.721c.46 0 1.034-.225 1.378-.564l7.698-7.559c.804-.789.804-1.917 0-2.707-.804-.79-1.954-.79-2.758 0l-7.697 7.559c-.804.789-.804 1.917 0 2.707.46.452.92.564 1.379.564zm0 14.102a2.24 2.24 0 001.149-.338c.919-.563 1.149-1.804.46-2.707l-8.387-11.959c-.574-.903-1.837-1.129-2.757-.452-.919.565-1.148 1.806-.459 2.709l8.386 11.959c.46.563 1.034.788 1.608.788z"/><path opacity=".7" d="M978.027 522.644c.115 0 .344 0 .459-.113.46-.112 11.373-3.046 15.164-17.938 3.906-15.118-4.251-66.676-12.062-76.604-.804-1.016-1.724-1.693-2.528-2.031a2.187 2.187 0 00-.918-.226h-.346c-.344 0-.573.113-.918.226-.919.338-1.723 1.015-2.527 2.031-7.812 9.928-15.968 61.486-12.063 76.604 3.791 14.892 14.704 17.826 15.164 17.938.344.113.46.113.575.113zm0-92.737c2.068 1.466 6.203 11.846 9.535 31.702 3.101 18.39 4.136 35.313 2.297 42.081-2.872 10.943-9.995 14.216-11.832 15.006-1.953-.677-9.076-3.95-11.833-15.006-1.723-6.881-.805-23.804 2.298-42.081 3.446-19.856 7.582-30.236 9.535-31.702zm545.563 131.434c1.02 0 1.94-.902 1.94-1.918v-91.835c0-1.015-.92-1.918-1.94-1.918-1.04 0-1.96.903-1.96 1.918v91.835c0 1.129.92 1.918 1.96 1.918z"/><path opacity=".7" d="M1523.59 486.654c.45 0 1.02-.224 1.37-.563l7.69-7.559c.82-.79.82-1.919 0-2.708-.8-.789-1.94-.789-2.74 0l-7.71 7.559c-.8.79-.8 1.918 0 2.708.35.339.92.563 1.39.563zm0 13.99c.34 0 .8-.112 1.14-.338.92-.564 1.15-1.806.46-2.708l-8.39-11.845c-.57-.903-1.83-1.129-2.75-.452-.92.565-1.16 1.805-.46 2.707l8.38 11.847c.35.564 1.04.789 1.62.789z"/><path opacity=".7" d="M1523.36 525.351c.11 0 .33 0 .45-.112.47-.113 11.26-3.046 15.16-17.825 3.91-15.006-4.24-66.338-12.05-76.154-.81-1.015-1.61-1.692-2.53-2.03a2.217 2.217 0 00-.92-.226h-.35c-.33 0-.57.113-.92.226-.92.338-1.72 1.015-2.52 2.03-7.81 9.929-15.97 61.148-12.07 76.154 3.8 14.779 14.71 17.712 15.18 17.825.22.112.45.112.57.112zm0-92.285c1.72 1.353 5.85 10.153 9.53 31.588 3.1 18.278 4.02 35.088 2.3 41.97-2.87 10.944-9.88 14.215-11.83 14.892-1.96-.677-8.96-3.948-11.84-14.892-1.72-6.882-.8-23.692 2.29-41.97 3.68-21.435 7.82-30.235 9.55-31.588zm-268.13 123.65h85.81c1.04 0 1.96-.903 1.96-1.918v-79.876c0-1.016-.92-1.918-1.96-1.918s-1.95.902-1.95 1.918v77.957h-81.91v-77.957c0-1.016-.92-1.918-1.95-1.918-1.04 0-1.96.902-1.96 1.918v79.876c0 1.015.92 1.918 1.96 1.918z"/><path opacity=".7" d="M1189.86 475.711h52.5c1.03 0 1.95-.902 1.95-1.917 0-1.016-.92-1.919-1.95-1.919h-49.86l16.55-53.589h177.59l16.55 53.589h-49.4c-1.03 0-1.95.903-1.95 1.919 0 1.015.92 1.917 1.95 1.917h52.04c.57 0 1.14-.338 1.61-.789.35-.451.45-1.128.35-1.693l-17.7-57.425c-.22-.79-1.04-1.354-1.84-1.354h-180.47c-.92 0-1.61.564-1.84 1.354l-17.69 57.425c-.23.565-.11 1.242.35 1.693.11.451.69.789 1.26.789z"/><path opacity=".7" d="M1198.59 556.716h199.42c1.04 0 1.96-.903 1.96-1.918v-81.004c0-1.016-.92-1.919-1.96-1.919-1.02 0-1.94.903-1.94 1.919v79.085h-195.53l-.34-79.085c0-1.016-.92-1.919-1.96-1.919-1.03 0-1.95.903-1.95 1.919l.35 81.004c0 1.015.91 1.918 1.95 1.918z"/><path opacity=".7" d="M1282.68 556.716c1.03 0 1.95-.903 1.95-1.918v-49.077h27.12v48.061c0 1.016.91 1.918 1.95 1.918 1.03 0 1.95-.902 1.95-1.918v-49.979c0-1.014-.92-1.917-1.95-1.917h-31.02c-1.03 0-1.95.903-1.95 1.917v50.882c0 1.128.92 2.031 1.95 2.031zm75.36-29.785h22.87c1.02 0 1.94-.903 1.94-1.918v-33.506c0-1.016-.92-1.919-1.94-1.919h-22.87c-1.03 0-1.95.903-1.95 1.919v33.506c0 1.128.92 1.918 1.95 1.918zm20.91-3.835h-18.84v-29.672h18.96v29.672h-.12zm-163.24 3.835h22.86c1.03 0 1.95-.903 1.95-1.918v-33.506c0-1.016-.92-1.919-1.95-1.919h-22.86c-1.04 0-1.96.903-1.96 1.919v33.506c0 1.128.81 1.918 1.96 1.918zm20.9-3.835h-18.95v-29.672h18.95v29.672zm-105.22-149.938c1.03 0 1.95-.902 1.95-1.917V343.6c0-1.015-.92-1.918-1.95-1.918h-19.07c-1.04 0-1.96.903-1.96 1.918v15.23c0 1.016.92 1.918 1.96 1.918 1.03 0 1.95-.902 1.95-1.918v-13.312h15.16v25.723c0 1.128.81 1.917 1.96 1.917z"/><path opacity=".7" d="M1113.47 345.518h17.23c3.21 0 5.74-2.595 5.74-5.641v-.113c0-3.159-2.64-5.641-5.74-5.641h-17.23c-3.22 0-5.75 2.595-5.75 5.641v.113c-.11 3.046 2.53 5.641 5.75 5.641zm17.11-7.672c1.04 0 1.84.79 1.84 1.805v.113c0 1.015-.8 1.805-1.84 1.805h-17.23c-1.03 0-1.84-.79-1.84-1.805v-.113c0-1.015.81-1.805 1.84-1.805h17.23zm21.37 218.87h44.11c1.04 0 1.96-.903 1.96-1.918v-40.503c0-1.014-.92-1.917-1.96-1.917h-44.11c-1.03 0-1.95.903-1.95 1.917v40.503c0 1.015.92 1.918 1.95 1.918zm42.16-3.95h-40.21v-36.665h40.21v36.665z"/><path opacity=".7" d="M1190.43 556.716c1.04 0 1.96-.903 1.96-1.918v-40.503c0-1.014-.92-1.917-1.96-1.917-1.03 0-1.95.903-1.95 1.917v40.503c0 1.015.92 1.918 1.95 1.918zm-6.43 0c1.04 0 1.95-.903 1.95-1.918v-40.503c0-1.014-.91-1.917-1.95-1.917-1.03 0-1.95.903-1.95 1.917v40.503c0 1.015.8 1.918 1.95 1.918zm-6.55 0c1.04 0 1.96-.903 1.96-1.918v-40.503c0-1.014-.92-1.917-1.96-1.917-1.03 0-1.95.903-1.95 1.917v40.503c0 1.015.92 1.918 1.95 1.918zm-6.54 0c1.03 0 1.95-.903 1.95-1.918v-40.503c0-1.014-.92-1.917-1.95-1.917-1.04 0-1.96.903-1.96 1.917v40.503c0 1.015.92 1.918 1.96 1.918zm-6.44 0c1.04 0 1.95-.903 1.95-1.918v-40.503c0-1.014-.91-1.917-1.95-1.917-1.03 0-1.95.903-1.95 1.917v40.503c0 1.015.8 1.918 1.95 1.918zm-6.55 0c1.04 0 1.96-.903 1.96-1.918v-40.503c0-1.014-.92-1.917-1.96-1.917-1.03 0-1.95.903-1.95 1.917v40.503c0 1.015.92 1.918 1.95 1.918zm343.72 17.26c1.03 0 1.95-.901 1.95-1.917v-44.676c0-1.016-.92-1.919-1.95-1.919-1.04 0-1.96.903-1.96 1.919v44.676c0 1.016.92 1.917 1.96 1.917z"/><path opacity=".7" d="M1501.64 537.423c.45 0 1.03-.225 1.37-.564l4.48-4.287c.82-.79.82-1.918 0-2.708-.8-.789-1.94-.789-2.74 0l-4.5 4.288c-.8.79-.8 1.917 0 2.707.35.339.92.564 1.39.564zm0 7.785c.35 0 .8-.112 1.15-.338.92-.564 1.14-1.806.57-2.708l-5.28-7.784c-.57-.903-1.84-1.129-2.76-.565-.92.565-1.15 1.805-.57 2.707l5.28 7.786c.34.564 1.04.902 1.61.902z"/><path opacity=".7" d="M1501.64 551.075c9.99 0 18.03-8.011 18.03-17.713 0-9.815-8.15-17.713-18.03-17.713-10 0-18.04 8.011-18.04 17.713 0 9.702 8.04 17.713 18.04 17.713zm0-31.703c7.81 0 14.13 6.205 14.13 13.877 0 7.671-6.32 13.876-14.13 13.876-7.81 0-14.13-6.205-14.13-13.876 0-7.559 6.32-13.877 14.13-13.877zm188.17-131.66c2.18 0 4.36-1.015 5.63-2.933 2.07-3.046 1.15-7.108-1.96-9.138l-74.79-48.513c-1.14-.79-2.52-1.128-3.9-1.128s-2.75.338-3.9 1.128l-74.78 48.513c-3.11 2.03-3.91 6.092-1.96 9.138 2.06 3.046 6.2 3.836 9.3 1.918l71.23-46.256 71.23 46.256c1.37.677 2.64 1.015 3.9 1.015zm1.6-8.8c1.27.79 1.62 2.482.82 3.836-.82 1.241-2.54 1.58-3.91.79l-72.37-46.933c-.7-.451-1.5-.451-2.19 0l-72.37 46.933c-1.27.79-2.99.451-3.91-.79-.8-1.241-.45-2.933.8-3.836l74.79-48.512c.46-.338 1.04-.451 1.61-.451h.11c.58 0 1.16.113 1.61.451l75.01 48.512z"/><path opacity=".7" d="M1546.89 557.618h135.46c1.02 0 1.94-.902 1.94-1.917V381.958c0-1.015-.92-1.917-1.94-1.917-1.04 0-1.96.902-1.96 1.917v171.824h-131.54V382.861c0-1.015-.92-1.918-1.96-1.918-1.02 0-1.94.903-1.94 1.918v172.727c0 1.128.8 2.03 1.94 2.03z"/><path opacity=".7" d="M1614.56 383.876c8.04 0 14.71-6.43 14.71-14.441 0-7.897-6.55-14.44-14.71-14.44-8.04 0-14.71 6.43-14.71 14.44.12 7.898 6.67 14.441 14.71 14.441zm0-25.046c5.97 0 10.8 4.739 10.8 10.605 0 5.867-4.83 10.606-10.8 10.606-5.97 0-10.8-4.739-10.8-10.606.12-5.866 4.95-10.605 10.8-10.605z"/><path opacity=".7" d="M1614.56 383.876c1.04 0 1.96-.902 1.96-1.918v-24.933c0-1.015-.92-1.918-1.96-1.918-1.03 0-1.95.903-1.95 1.918v24.933c0 1.016.92 1.918 1.95 1.918z"/><path opacity=".7" d="M1601.92 371.353h25.28c1.03 0 1.95-.902 1.95-1.918 0-1.015-.92-1.917-1.95-1.917h-25.28c-1.03 0-1.95.902-1.95 1.917 0 1.016.8 1.918 1.95 1.918zm-33.88 80.892h25.39c1.02 0 1.94-.903 1.94-1.918v-41.856c0-1.015-.92-1.918-1.94-1.918h-25.39c-1.04 0-1.96.903-1.96 1.918v41.856c0 1.015.92 1.918 1.96 1.918zm23.43-3.836h-21.48v-38.02h21.48v38.02z"/><path opacity=".7" d="M1568.04 430.584h25.39c1.02 0 1.94-.903 1.94-1.918 0-1.016-.92-1.918-1.94-1.918h-25.39c-1.04 0-1.96.902-1.96 1.918 0 1.128.92 1.918 1.96 1.918zm33.89 21.661h25.39c1.03 0 1.95-.903 1.95-1.918v-41.856c0-1.015-.92-1.918-1.95-1.918h-25.39c-1.04 0-1.96.903-1.96 1.918v41.856c0 1.015.8 1.918 1.96 1.918zm23.43-3.836h-21.48v-38.02h21.48v38.02z"/><path opacity=".7" d="M1601.93 430.584h25.39c1.03 0 1.95-.903 1.95-1.918 0-1.016-.92-1.918-1.95-1.918h-25.39c-1.04 0-1.96.902-1.96 1.918 0 1.128.8 1.918 1.96 1.918zm-33.32 85.517H1594c1.04 0 1.95-.903 1.95-1.919v-41.855c0-1.016-.91-1.919-1.95-1.919h-25.39c-1.04 0-1.96.903-1.96 1.919v41.855c0 1.129.92 1.919 1.96 1.919zm23.44-3.836h-21.49v-38.02h21.49v38.02z"/><path opacity=".7" d="M1568.61 494.552H1594c1.04 0 1.95-.903 1.95-1.918s-.91-1.917-1.95-1.917h-25.39c-1.04 0-1.96.902-1.96 1.917 0 1.015.92 1.918 1.96 1.918zm33.78 21.549h25.38c1.04 0 1.96-.903 1.96-1.919v-41.855c0-1.016-.92-1.919-1.96-1.919h-25.38c-1.04 0-1.95.903-1.95 1.919v41.855c0 1.129.91 1.919 1.95 1.919zm23.44-3.836h-21.5v-38.02h21.5v38.02z"/><path opacity=".7" d="M1602.39 494.552h25.38c1.04 0 1.96-.903 1.96-1.918s-.92-1.917-1.96-1.917h-25.38c-1.04 0-1.95.902-1.95 1.917 0 1.015.91 1.918 1.95 1.918zm33.08-42.307h25.38c1.04 0 1.96-.903 1.96-1.918v-41.856c0-1.015-.92-1.918-1.96-1.918h-25.38c-1.03 0-1.95.903-1.95 1.918v41.856c0 1.015.8 1.918 1.95 1.918zm23.44-3.836h-21.48v-38.02h21.48v38.02z"/><path opacity=".7" d="M1635.47 430.584h25.38c1.04 0 1.96-.903 1.96-1.918 0-1.016-.92-1.918-1.96-1.918h-25.38c-1.03 0-1.95.902-1.95 1.918 0 1.128.8 1.918 1.95 1.918zm.46 85.517h25.39c1.03 0 1.95-.903 1.95-1.919v-41.855c0-1.016-.92-1.919-1.95-1.919h-25.39c-1.04 0-1.96.903-1.96 1.919v41.855c0 1.129.92 1.919 1.96 1.919zm23.43-3.836h-21.48v-38.02h21.48v38.02z"/><path opacity=".7" d="M1635.93 494.552h25.39c1.03 0 1.95-.903 1.95-1.918s-.92-1.917-1.95-1.917h-25.39c-1.04 0-1.96.902-1.96 1.917 0 1.015.92 1.918 1.96 1.918zm46.42-100.296h98.56c.8 0 1.49-.452 1.84-1.129.34-.677.22-1.466-.35-2.03l-51.12-58.102c-.35-.452-.92-.677-1.49-.677h-103.86c-1.02 0-1.94.902-1.94 1.918 0 1.015.92 1.918 1.94 1.918h102.94l47.78 54.266h-94.3c-1.04 0-1.96.902-1.96 1.918 0 1.015.92 1.918 1.96 1.918z"/><path opacity=".7" d="M1682.35 557.618h93.85c1.03 0 1.95-.902 1.95-1.917V392.338c0-1.016-.92-1.918-1.95-1.918-1.04 0-1.96.902-1.96 1.918v161.444h-91.89c-1.04 0-1.96.903-1.96 1.919 0 1.015.92 1.917 1.96 1.917z"/><path opacity=".7" d="M1708.88 557.618c1.03 0 1.95-.902 1.95-1.917v-65.436h37.22v65.436c0 1.015.92 1.917 1.95 1.917 1.04 0 1.96-.902 1.96-1.917v-67.354c0-1.016-.92-1.919-1.96-1.919h-41.12c-1.04 0-1.96.903-1.96 1.919v67.354c0 1.015.92 1.917 1.96 1.917zm-10.57-119.927h61.12c1.02 0 1.94-.902 1.94-1.918v-27.302c0-1.015-.92-1.918-1.94-1.918h-61.23c-1.04 0-1.96.903-1.96 1.918v27.302c.12 1.016.92 1.918 2.07 1.918zm59.16-3.836h-57.32v-23.466h57.32v23.466z"/><path opacity=".7" d="M1698.31 415.579h61.12c1.02 0 1.94-.903 1.94-1.918 0-1.016-.92-1.918-1.94-1.918h-61.23c-1.04 0-1.96.902-1.96 1.918.12 1.015.92 1.918 2.07 1.918z"/><path opacity=".7" d="M1728.87 437.691c1.04 0 1.96-.902 1.96-1.918v-21.661c0-1.015-.92-1.918-1.96-1.918-1.03 0-1.95.903-1.95 1.918v21.661c0 1.016.92 1.918 1.95 1.918z"/></g></g></g><defs><clipPath id="clip0_502_11"><path fill="#fff" transform="translate(0 326)" d="M0 0h1920v248H0z"/></clipPath></defs></svg>