<svg width="366" height="366" fill="none" xmlns="http://www.w3.org/2000/svg"><path d="M183 366c96.725 0 175.136-78.411 175.136-175.136 0-96.726-78.411-175.137-175.136-175.137S7.863 94.138 7.863 190.864C7.863 287.589 86.275 366 183 366z" fill="#1A2B63"/><path d="M230.91 318.105a3.584 3.584 0 01-3.574 3.575h-88.672a3.584 3.584 0 01-3.574-3.575v-30.023a3.584 3.584 0 013.574-3.574h88.672a3.584 3.584 0 013.574 3.574v30.023z" fill="#293D7C"/><path d="M149.37 318.105v-30.023a3.585 3.585 0 013.574-3.574h-14.28a3.584 3.584 0 00-3.574 3.574v30.023a3.584 3.584 0 003.574 3.575h14.28a3.585 3.585 0 01-3.574-3.575z" fill="#1A2B63"/><path d="M172.063 136.872l2.98-17.376c.131-.762-.352-2.249-.906-2.789l-12.624-12.305c-1.551-1.512-2.155-3.364-1.713-5.131l-6.606.96c-2.095.305-3.618 1.463-4.176 3.18-.557 1.717-.008 3.551 1.508 5.029l11.651 11.357c.512.499.957 1.869.836 2.573l-2.751 16.036c-.283 1.654.066 3.166.984 4.255.828.982 2.015 1.523 3.342 1.523.874 0 1.768-.237 2.657-.704l5.34-2.808c-.574-1.073-.764-2.386-.522-3.8zm23.446 121.754V220.3a19.35 19.35 0 01-4.605.557h-15.808a19.35 19.35 0 01-4.605-.557v38.326h25.018z" fill="#FFAF10"/><path d="M181.57 258.626v-37.769h-6.474a19.35 19.35 0 01-4.605-.557v38.326h11.079z" fill="#EF9614"/><path d="M183 203.733a76.64 76.64 0 01-27.226-4.976v3.523c0 10.671 8.651 19.321 19.322 19.321h15.808c10.671 0 19.322-8.65 19.322-19.321v-3.523A76.644 76.644 0 01183 203.733z" fill="#FFD00D"/><path d="M177.92 203.561a76.439 76.439 0 01-22.145-4.804v3.523c0 10.671 8.651 19.321 19.322 19.321h15.808c1.071 0 2.121-.09 3.145-.258-8.763-1.435-15.539-8.763-16.13-17.782z" fill="#FFAF10"/><path d="M210.879 273.07v-12.152a3.585 3.585 0 00-3.574-3.574h-48.61a3.585 3.585 0 00-3.574 3.574v12.152h55.758z" fill="#EF8318"/><path d="M176.566 273.07v-12.152a3.585 3.585 0 013.575-3.574h-21.446a3.585 3.585 0 00-3.574 3.574v12.152h21.445z" fill="#DB722C"/><path d="M250.553 333.832v-58.617a3.584 3.584 0 00-3.575-3.574H119.022a3.584 3.584 0 00-3.575 3.574v58.617h135.106z" fill="#A05F33"/><path d="M126.527 333.832v-58.617a3.585 3.585 0 013.574-3.574h-11.079a3.584 3.584 0 00-3.575 3.574v58.617h11.08z" fill="#87502A"/><path d="M265.564 333.117H100.436a3.585 3.585 0 00-3.575 3.574v6.686C122.298 357.773 151.687 366 183 366c31.314 0 60.703-8.227 86.138-22.624v-6.685a3.585 3.585 0 00-3.574-3.574z" fill="#BF7E52"/><path d="M118.664 336.691a3.585 3.585 0 013.575-3.574h-21.803a3.585 3.585 0 00-3.575 3.574v6.686a174.58 174.58 0 0021.803 10.416v-17.102z" fill="#AA6B3F"/><path d="M303.276 18.294h-27.704v6.01a2.862 2.862 0 01-2.859 2.86h-11.996a.714.714 0 00-.714.715v8.286h37.472c-1.531 31.312-15.687 59.361-37.472 79.155v11.411c0 4.152-.336 8.227-.972 12.202 34.115-23.993 56.452-63.65 56.452-108.432 0-6.732-5.476-12.207-12.207-12.207z" fill="#FFAF10"/><path d="M105.998 126.731V115.32C84.213 95.526 70.056 67.477 68.526 36.165h37.472v-8.286a.715.715 0 00-.715-.715H93.287a2.862 2.862 0 01-2.86-2.86v-6.01H62.725c-6.731 0-12.207 5.476-12.207 12.207 0 44.782 22.338 84.44 56.452 108.433a77.218 77.218 0 01-.971-12.203z" fill="#FFD00D"/><path d="M105.283 27.164v99.567c0 42.922 34.795 77.717 77.717 77.717 42.921 0 77.717-34.795 77.717-77.717V27.164H105.283z" fill="#EF8318"/><path d="M120.809 126.731V26.451h-15.526v100.28c0 42.922 34.795 77.717 77.717 77.717a77.87 77.87 0 007.707-.39c-39.25-3.921-69.898-37.044-69.898-77.327z" fill="#DB722C"/><path d="M183 164.057c29.215 0 52.899-23.684 52.899-52.899S212.215 58.26 183 58.26s-52.899 23.684-52.899 52.898c0 29.215 23.684 52.899 52.899 52.899z" fill="#DB722C"/><path d="M143.684 111.157c0-26.912 20.102-49.113 46.107-52.449a53.343 53.343 0 00-6.791-.449c-29.215 0-52.899 23.684-52.899 52.898 0 29.216 23.684 52.899 52.899 52.899a53.38 53.38 0 006.791-.449c-26.005-3.335-46.107-25.537-46.107-52.45z" fill="#C95E23"/><path d="M201.411 144.182c-.874.001-1.768-.236-2.657-.704l-14.401-7.571c-.218-.114-.703-.247-1.352-.247-.651 0-1.136.133-1.354.247l-14.401 7.571c-.889.468-1.784.704-2.657.704-1.327 0-2.514-.54-3.342-1.523-.918-1.089-1.267-2.599-.983-4.254l2.75-16.036c.122-.704-.324-2.074-.835-2.573l-11.651-11.357c-1.517-1.479-2.067-3.312-1.508-5.029.558-1.717 2.08-2.876 4.176-3.181l16.1-2.338c.706-.104 1.873-.95 2.188-1.591l7.2-14.59c.939-1.9 2.511-2.988 4.317-2.988s3.379 1.089 4.315 2.988l7.201 14.59c.316.64 1.481 1.488 2.188 1.591l16.101 2.338c2.094.305 3.617 1.464 4.174 3.181.559 1.717.01 3.55-1.506 5.028l-11.652 11.358c-.511.498-.957 1.869-.836 2.573l2.75 16.036c.284 1.655-.065 3.165-.982 4.254-.829.983-2.016 1.523-3.343 1.523zm74.876-119.877a3.585 3.585 0 01-3.574 3.574H93.287a3.585 3.585 0 01-3.574-3.574V3.575A3.585 3.585 0 0193.287 0h179.426a3.585 3.585 0 013.574 3.574v20.73z" fill="#FFD00D"/><path d="M111.516 24.305V3.575A3.584 3.584 0 01115.09 0H93.287a3.585 3.585 0 00-3.574 3.574v20.73a3.585 3.585 0 003.574 3.575h21.803a3.584 3.584 0 01-3.574-3.574z" fill="#FFAF10"/><path d="M90.785 236.614c-.92 0-1.738-.588-2.031-1.459-4.115-12.191-7.194-15.271-19.385-19.385a2.144 2.144 0 010-4.063c12.19-4.114 15.269-7.195 19.384-19.385a2.145 2.145 0 014.063 0c4.115 12.19 7.194 15.271 19.385 19.385a2.144 2.144 0 010 4.063c-12.191 4.114-15.27 7.194-19.385 19.385a2.144 2.144 0 01-2.03 1.459zm177.639-23.59a1.71 1.71 0 01-1.62-1.162c-3.279-9.715-5.733-12.169-15.447-15.447a1.711 1.711 0 010-3.239c9.715-3.279 12.168-5.733 15.447-15.447a1.709 1.709 0 013.239 0c3.279 9.714 5.733 12.168 15.448 15.447a1.71 1.71 0 010 3.239c-9.715 3.278-12.169 5.732-15.448 15.447a1.712 1.712 0 01-1.619 1.162zm-66.123 86.496h-38.602a3.575 3.575 0 010-7.149h38.602a3.574 3.574 0 110 7.149zm-8.578 12.866h-21.446a3.574 3.574 0 010-7.147h21.446a3.574 3.574 0 110 7.147zM139.395 57.188c-.69 0-1.304-.44-1.524-1.094-3.086-9.143-5.396-11.453-14.539-14.539a1.61 1.61 0 010-3.048c9.143-3.085 11.453-5.395 14.539-14.538a1.608 1.608 0 013.048 0c3.086 9.143 5.395 11.452 14.538 14.538a1.609 1.609 0 010 3.048c-9.143 3.086-11.452 5.396-14.538 14.539a1.61 1.61 0 01-1.524 1.093z" fill="#fff"/></svg>