<svg width="1425" height="289" fill="none" xmlns="http://www.w3.org/2000/svg"><g opacity=".29" fill="#DCDCDC"><path opacity=".7" d="M365.72 81.257c1.674 0 3.349-.395 4.869-1.315l94.353-53.908 94.351 53.908a9.144 9.144 0 006.695 1.052c2.284-.395 4.261-1.578 5.63-3.288 1.37-1.709 1.827-3.813 1.219-5.785-.457-1.972-1.827-3.681-3.804-4.865L469.964 10.52c-1.522-.92-3.349-1.315-5.175-1.315-1.826 0-3.653.394-5.173 1.315l-99.069 56.537c-4.109 2.367-5.175 7.1-2.588 10.65 1.978 2.367 4.87 3.55 7.761 3.55zm99.222-60.088c-.457 0-1.065.131-1.371.394L367.7 76.26c-1.676.92-3.957.526-5.175-.92-1.066-1.447-.609-3.419 1.065-4.47l99.069-56.538c.608-.395 1.369-.526 2.13-.526h.153c.761 0 1.52.131 2.13.526l99.069 56.537c.76.526 1.369 1.184 1.521 1.973.153.788 0 1.709-.456 2.366-.61.658-1.371 1.184-2.283 1.315-.912.132-1.978 0-2.739-.394l-95.873-54.697c-.304-.132-.914-.263-1.369-.263zm223.854 161.067c1.369 0 2.739-.395 3.957-1.052l67.261-38.394 67.417 38.394c1.52.919 3.499 1.183 5.326.919 1.826-.394 3.499-1.315 4.565-2.628 2.13-2.763 1.218-6.706-1.978-8.548l-71.069-40.496a8.543 8.543 0 00-4.108-1.052c-1.522 0-2.891.263-4.109 1.052l-71.068 40.496c-3.195 1.842-4.108 5.655-1.977 8.548 1.065 1.313 2.587 2.234 4.565 2.628.153.133.608.133 1.218.133zm71.218-44.31c-.455 0-1.065.131-1.369.394l-68.784 39.182c-.457.264-.914.264-1.369.264a3.46 3.46 0 01-1.218-.658c-.304-.396-.304-.79-.304-1.184.151-.394.457-.788.761-1.052l71.067-40.497c.457-.262.912-.262 1.065-.262h.151c.306 0 .761 0 1.065.262l71.068 40.497c.457.264.761.658.761 1.052.153.394 0 .921-.304 1.184-.304.394-.761.658-1.217.658-.457.131-1.065 0-1.371-.264l-68.784-39.182c-.304-.263-.761-.394-1.218-.394z"/><path opacity=".7" d="M375.611 145.552H555.03c1.371 0 2.588-1.052 2.588-2.236V74.814c0-1.184-1.217-2.236-2.588-2.236-1.369 0-2.586 1.052-2.586 2.236v66.267H378.199V74.419c0-1.183-1.218-2.235-2.588-2.235-1.369 0-2.587 1.052-2.587 2.235v68.897c0 1.184 1.067 2.236 2.587 2.236zm0 123.857H555.03c1.371 0 2.588-1.053 2.588-2.235v-92.565c0-1.182-1.217-2.234-2.588-2.234-1.369 0-2.586 1.052-2.586 2.234v90.329H378.199v-90.854c0-1.184-1.218-2.236-2.588-2.236-1.369 0-2.587 1.052-2.587 2.236v93.09c0 1.315 1.067 2.235 2.587 2.235z"/><path opacity=".7" d="M465.244 76.655c10.654 0 19.48-7.495 19.48-16.83 0-9.204-8.675-16.83-19.48-16.83-10.652 0-19.478 7.495-19.478 16.83.151 9.335 8.826 16.83 19.478 16.83zm0-29.058c7.914 0 14.305 5.522 14.305 12.36 0 6.836-6.391 12.359-14.305 12.359-7.913 0-14.305-5.523-14.305-12.36.153-6.837 6.545-12.359 14.305-12.359z"/><path opacity=".7" d="M465.246 76.655c1.369 0 2.586-1.052 2.586-2.236V45.362c0-1.184-1.217-2.236-2.586-2.236-1.371 0-2.587 1.052-2.587 2.236v29.057c0 1.184 1.216 2.236 2.587 2.236z"/><path opacity=".7" d="M448.658 62.06h33.479c1.369 0 2.587-1.052 2.587-2.235 0-1.184-1.218-2.236-2.587-2.236h-33.479c-1.37 0-2.588 1.052-2.588 2.236 0 1.314 1.066 2.235 2.588 2.235zm311.054 127.933c10.652 0 19.48-7.494 19.48-16.83 0-9.203-8.675-16.83-19.48-16.83-10.652 0-19.478 7.494-19.478 16.83 0 9.336 8.826 16.83 19.478 16.83zm0-29.057c7.914 0 14.305 5.521 14.305 12.358 0 6.838-6.391 12.36-14.305 12.36s-14.305-5.522-14.305-12.36c0-6.837 6.391-12.358 14.305-12.358z"/><path opacity=".7" d="M759.712 189.993c1.369 0 2.586-1.052 2.586-2.236V158.7c0-1.184-1.217-2.236-2.586-2.236-1.369 0-2.587 1.052-2.587 2.236v29.057c0 1.315 1.218 2.236 2.587 2.236z"/><path opacity=".7" d="M742.973 175.53h33.478c1.371 0 2.588-1.052 2.588-2.236 0-1.183-1.217-2.234-2.588-2.234h-33.478c-1.37 0-2.588 1.051-2.588 2.234 0 1.184 1.218 2.236 2.588 2.236zm-247.75-53.119h30.285c1.369 0 2.588-1.052 2.588-2.235V94.01c0-1.183-1.219-2.235-2.588-2.235h-30.285c-1.369 0-2.585 1.052-2.585 2.235v26.166c0 1.183 1.216 2.235 2.585 2.235zm27.698-4.602h-25.11V96.114h25.11v21.695zm-119.004 4.602H434.2c1.369 0 2.587-1.052 2.587-2.235V94.01c0-1.183-1.218-2.235-2.587-2.235h-30.283c-1.369 0-2.588 1.052-2.588 2.235v26.166c-.151 1.183 1.066 2.235 2.588 2.235zm27.544-4.602h-25.11V96.114h25.11v21.695zm-69.698 58.509h207.115c.914 0 1.675-.394 2.13-.919.458-.658.61-1.315.305-2.105l-13.391-30.766c-.304-.921-1.37-1.447-2.435-1.447H375.154c-1.065 0-1.977.526-2.434 1.447l-13.393 30.766c-.304.658-.151 1.447.306 2.105.455.525 1.216.919 2.13.919zm203.311-4.47H365.567l11.414-26.296h176.68l11.413 26.296zm-80.654 97.561c1.369 0 2.587-1.053 2.587-2.236v-60.744h35.61v60.744c0 1.183 1.218 2.236 2.587 2.236 1.369 0 2.587-1.053 2.587-2.236v-62.98c0-1.184-1.218-2.236-2.587-2.236h-40.631c-1.522 0-2.741 1.052-2.741 2.367v62.98c0 1.184 1.219 2.105 2.588 2.105zm-80.96-41.155h52.806c1.369 0 2.587-1.052 2.587-2.234v-34.187c0-1.182-1.218-2.234-2.587-2.234H403.46c-1.369 0-2.588 1.052-2.588 2.234v34.187c0 1.182 1.219 2.234 2.588 2.234zm50.218-4.47h-47.479v-29.715h47.479v29.715z"/><path opacity=".7" d="M403.917 200.906h52.349c1.369 0 2.587-1.052 2.587-2.235 0-1.184-1.218-2.235-2.587-2.235h-52.349c-1.371 0-2.588 1.051-2.588 2.235-.152 1.183 1.066 2.235 2.588 2.235zm91.306-98.481h30.285c1.369 0 2.588-1.052 2.588-2.235 0-1.183-1.219-2.235-2.588-2.235h-30.285c-1.369 0-2.585 1.052-2.585 2.235 0 1.183 1.216 2.235 2.585 2.235zm-91.306 0H434.2c1.369 0 2.587-1.052 2.587-2.235 0-1.183-1.218-2.235-2.587-2.235h-30.283c-1.369 0-2.588 1.052-2.588 2.235 0 1.183 1.066 2.235 2.588 2.235zM1009.13 217.21c.46 0 .92 0 1.22-.132 1.67-.263 3.04-1.052 3.96-2.234 1.82-2.499 1.06-5.787-1.83-7.363l-56.61-32.345c-1.065-.658-2.283-.921-3.5-.921-1.218 0-2.434.263-3.501.921l-56.609 32.345c-2.892 1.576-3.653 4.996-1.827 7.363.912 1.182 2.284 1.971 3.957 2.234 1.673.263 3.349 0 4.718-.788l53.262-30.373 53.26 30.373c1.07.525 2.28.92 3.5.92zm-56.608-38.525c.153 0 .304 0 .61.132l56.458 32.213c.46.263.61.79.3 1.184-.15.263-.45.394-.61.394-.15 0-.45 0-.76-.131l-54.78-31.293a2.843 2.843 0 00-2.892 0l-54.785 31.293c-.304.131-.608.131-.761.131-.151 0-.455-.131-.608-.394-.304-.394-.153-.921.304-1.184l56.611-32.345c.152-.131.457-.131.609-.131.152.131.152.131.304.131z"/><path opacity=".7" d="M952.218 213.529c5.327 0 9.588-3.682 9.588-8.284 0-4.603-4.261-8.283-9.588-8.283-5.327 0-9.587 3.68-9.587 8.283-.152 4.47 4.26 8.284 9.587 8.284zm0-12.229c2.436 0 4.413 1.71 4.413 3.814 0 2.103-1.977 3.812-4.413 3.812-2.435 0-4.413-1.709-4.413-3.812-.152-2.104 1.827-3.814 4.413-3.814z"/><path opacity=".7" d="M901.999 269.146h100.131c1.37 0 2.59-1.052 2.59-2.236v-54.96c0-1.182-1.22-2.235-2.59-2.235-1.37 0-2.584 1.053-2.584 2.235v52.726h-94.961V211.95c0-1.182-1.216-2.235-2.586-2.235-1.371 0-2.587 1.053-2.587 2.235v54.96c0 1.184 1.216 2.236 2.587 2.236z"/><path opacity=".7" d="M918.89 267.699c1.371 0 2.587-1.052 2.587-2.235v-40.759h61.634v40.759c0 1.183 1.216 2.235 2.585 2.235 1.371 0 2.588-1.052 2.588-2.235v-42.995c0-1.183-1.217-2.234-2.588-2.234H918.89c-1.369 0-2.586 1.051-2.586 2.234v42.995c0 1.183 1.217 2.235 2.586 2.235z"/><path opacity=".7" d="M918.89 230.226h66.806c1.066 0 1.827-.657 1.827-1.576 0-.921-.761-1.579-1.827-1.579H918.89c-1.065 0-1.826.658-1.826 1.579 0 .788.912 1.576 1.826 1.576zm0 6.443h66.806c1.066 0 1.827-.658 1.827-1.577 0-.921-.761-1.578-1.827-1.578H918.89c-1.065 0-1.826.657-1.826 1.578 0 .919.912 1.577 1.826 1.577zm0 6.442h66.806c1.066 0 1.827-.657 1.827-1.576 0-.921-.761-1.579-1.827-1.579H918.89c-1.065 0-1.826.658-1.826 1.579 0 .919.912 1.576 1.826 1.576zm0 6.444h66.806c1.066 0 1.827-.657 1.827-1.578s-.761-1.578-1.827-1.578H918.89c-1.065 0-1.826.657-1.826 1.578s.912 1.578 1.826 1.578zm0 6.443h66.806c1.066 0 1.827-.658 1.827-1.579 0-.92-.761-1.578-1.827-1.578H918.89c-1.065 0-1.826.658-1.826 1.578 0 .921.912 1.579 1.826 1.579zm0 6.573h66.806c1.066 0 1.827-.657 1.827-1.577 0-.92-.761-1.578-1.827-1.578H918.89c-1.065 0-1.826.658-1.826 1.578 0 .789.912 1.577 1.826 1.577zm139.85 11.703c1.37 0 2.59-1.052 2.59-2.236V165.012c0-1.185-1.22-2.236-2.59-2.236-1.37 0-2.58 1.051-2.58 2.236v107.026c0 1.315 1.21 2.236 2.58 2.236z"/><path opacity=".7" d="M1058.74 187.232c.61 0 1.37-.263 1.83-.657l10.19-8.809c1.07-.921 1.07-2.236 0-3.157-1.06-.921-2.58-.921-3.65 0l-10.19 8.809c-1.07.921-1.07 2.236 0 3.157.45.394 1.21.657 1.82.657zm0 16.304c.46 0 1.07-.131 1.53-.395 1.21-.657 1.52-2.103.61-3.156l-11.11-13.804c-.77-1.054-2.44-1.315-3.66-.527-1.21.657-1.52 2.103-.61 3.155l11.11 13.806c.46.657 1.37.921 2.13.921z"/><path opacity=".7" d="M1058.44 232.33c.15 0 .46 0 .61-.131.61-.131 14.91-3.55 20.08-20.775 5.18-17.486-5.63-77.311-15.97-88.75-1.07-1.184-2.13-1.973-3.35-2.367a3.246 3.246 0 00-1.22-.263h-.46c-.45 0-.76.131-1.21.263-1.22.394-2.29 1.183-3.35 2.367-10.35 11.57-21.15 71.264-15.98 88.75 5.02 17.225 19.48 20.644 20.09 20.775.3.131.61.131.76.131zm0-107.553c2.28 1.578 7.76 11.834 12.63 36.816 4.11 21.3 5.33 40.891 3.04 48.912-3.8 12.754-13.08 16.566-15.67 17.355-2.59-.789-11.87-4.601-15.68-17.355-2.28-8.021-1.06-27.612 3.05-48.912 4.87-24.982 10.35-35.238 12.63-36.816zM703.254 268.883h113.677c1.37 0 2.588-1.052 2.588-2.236v-93.09c0-1.182-1.218-2.235-2.588-2.235-1.369 0-2.587 1.053-2.587 2.235v90.856H705.841v-90.856c0-1.182-1.218-2.235-2.587-2.235-1.37 0-2.588 1.053-2.588 2.235v93.09c0 1.184 1.218 2.236 2.588 2.236z"/><path opacity=".7" d="M616.663 174.478h69.545c1.37 0 2.588-1.051 2.588-2.236 0-1.182-1.218-2.235-2.588-2.235h-66.045l21.914-62.454h235.269l21.913 62.454h-65.437c-1.369 0-2.586 1.053-2.586 2.235 0 1.185 1.217 2.236 2.586 2.236h68.937c.761 0 1.522-.394 2.132-.921.455-.526.608-1.315.455-1.972l-23.435-66.925c-.304-.92-1.369-1.577-2.434-1.577H640.402c-1.216 0-2.13.657-2.434 1.577l-23.435 66.925c-.304.657-.153 1.446.457 1.972.151.527.912.921 1.673.921z"/><path opacity=".7" d="M628.23 268.883h264.182c1.37 0 2.586-1.052 2.586-2.236v-94.405c0-1.182-1.216-2.234-2.586-2.234-1.371 0-2.587 1.052-2.587 2.234v92.171h-259.01l-.455-92.171c0-1.182-1.218-2.234-2.587-2.234-1.37 0-2.588 1.052-2.588 2.234l.457 94.405c0 1.184 1.217 2.236 2.588 2.236z"/><path opacity=".7" d="M739.624 268.883c1.371 0 2.587-1.052 2.587-2.236v-57.194h35.916v56.011c0 1.183 1.216 2.235 2.585 2.235 1.371 0 2.588-1.052 2.588-2.235v-58.247c0-1.184-1.217-2.236-2.588-2.236h-41.088c-1.369 0-2.586 1.052-2.586 2.236v59.299c0 1.315 1.217 2.367 2.586 2.367zm99.83-34.712h30.283c1.369 0 2.587-1.051 2.587-2.235v-39.051c0-1.183-1.218-2.234-2.587-2.234h-30.283c-1.371 0-2.588 1.051-2.588 2.234v39.051c0 1.314 1.217 2.235 2.588 2.235zm27.696-4.47h-24.958v-34.58h25.11v34.58h-.152zm-216.247 4.47h30.285c1.369 0 2.586-1.051 2.586-2.235v-39.051c0-1.183-1.217-2.234-2.586-2.234h-30.285c-1.369 0-2.585 1.051-2.585 2.234v39.051c0 1.314 1.065 2.235 2.585 2.235zm27.698-4.47h-25.11v-34.58h25.11v34.58zM539.205 54.96c1.369 0 2.587-1.052 2.587-2.235V20.51c0-1.183-1.218-2.235-2.587-2.235h-25.263c-1.369 0-2.586 1.052-2.586 2.235v17.75c0 1.184 1.217 2.236 2.586 2.236 1.371 0 2.587-1.052 2.587-2.236V22.746h20.088v29.979c0 1.314 1.066 2.235 2.588 2.235z"/><path opacity=".7" d="M515.464 22.747h22.827c4.261 0 7.609-3.025 7.609-6.575v-.131c0-3.682-3.499-6.574-7.609-6.574h-22.827c-4.261 0-7.609 3.024-7.609 6.574v.131c-.151 3.55 3.348 6.575 7.609 6.575zm22.676-8.941c1.369 0 2.434.92 2.434 2.103v.132c0 1.183-1.065 2.104-2.434 2.104h-22.827c-1.371 0-2.436-.92-2.436-2.104v-.132c0-1.183 1.065-2.103 2.436-2.103h22.827zm28.304 255.077h58.437c1.369 0 2.586-1.052 2.586-2.236v-47.202c0-1.183-1.217-2.235-2.586-2.235h-58.437c-1.37 0-2.588 1.052-2.588 2.235v47.202c0 1.184 1.218 2.236 2.588 2.236zm55.85-4.603h-53.263v-42.73h53.263v42.73z"/><path opacity=".7" d="M617.424 268.883c1.37 0 2.588-1.052 2.588-2.236v-47.202c0-1.183-1.218-2.235-2.588-2.235-1.369 0-2.587 1.052-2.587 2.235v47.202c0 1.184 1.218 2.236 2.587 2.236zm-8.523 0c1.371 0 2.587-1.052 2.587-2.236v-47.202c0-1.183-1.216-2.235-2.587-2.235-1.369 0-2.586 1.052-2.586 2.235v47.202c0 1.184 1.066 2.236 2.586 2.236zm-8.673 0c1.369 0 2.586-1.052 2.586-2.236v-47.202c0-1.183-1.217-2.235-2.586-2.235-1.371 0-2.587 1.052-2.587 2.235v47.202c0 1.184 1.216 2.236 2.587 2.236zm-8.675 0c1.37 0 2.586-1.052 2.586-2.236v-47.202c0-1.183-1.216-2.235-2.586-2.235-1.369 0-2.587 1.052-2.587 2.235v47.202c0 1.184 1.218 2.236 2.587 2.236zm-8.521 0c1.369 0 2.587-1.052 2.587-2.236v-47.202c0-1.183-1.218-2.235-2.587-2.235-1.37 0-2.588 1.052-2.588 2.235v47.202c0 1.184 1.065 2.236 2.588 2.236zm-8.675 0c1.369 0 2.588-1.052 2.588-2.236v-47.202c0-1.183-1.219-2.235-2.588-2.235s-2.587 1.052-2.587 2.235v47.202c0 1.184 1.218 2.236 2.587 2.236zM1029.68 289c1.37 0 2.58-1.052 2.58-2.236v-52.066c0-1.184-1.21-2.236-2.58-2.236s-2.59 1.052-2.59 2.236v52.066c0 1.184 1.22 2.236 2.59 2.236z"/><path opacity=".7" d="M1029.68 246.399c.61 0 1.37-.264 1.82-.658l5.94-4.996c1.06-.92 1.06-2.235 0-3.155-1.07-.921-2.59-.921-3.65 0l-5.94 4.996c-1.06.921-1.06 2.234 0 3.155.46.394 1.22.658 1.83.658zm0 9.072c.45 0 1.06-.131 1.52-.394 1.22-.658 1.52-2.103.76-3.155l-7-9.073c-.76-1.051-2.43-1.314-3.65-.657-1.22.657-1.52 2.103-.76 3.155l7 9.072c.45.658 1.37 1.052 2.13 1.052z"/><path opacity=".7" d="M1029.68 262.308c13.24 0 23.89-9.334 23.89-20.643 0-11.439-10.81-20.642-23.89-20.642-13.24 0-23.9 9.336-23.9 20.642 0 11.309 10.66 20.643 23.9 20.643zm0-36.946c10.35 0 18.71 7.231 18.71 16.172 0 8.94-8.36 16.173-18.71 16.173-10.35 0-18.72-7.233-18.72-16.173 0-8.809 8.37-16.172 18.72-16.172zm186.83-153.441c-2.9 0-5.79-1.183-7.46-3.418-2.74-3.55-1.52-8.284 2.59-10.65l99.06-56.538c1.53-.92 3.35-1.315 5.18-1.315 1.82 0 3.65.394 5.17 1.315l99.07 56.538c4.11 2.366 5.17 7.1 2.59 10.65-2.74 3.55-8.22 4.47-12.33 2.235l-94.35-53.908-94.35 53.908c-1.83.789-3.5 1.183-5.17 1.183zm-2.14-10.256c-1.67.921-2.13 2.893-1.06 4.471 1.06 1.446 3.35 1.84 5.17.92l95.88-54.697a2.844 2.844 0 012.89 0l95.87 54.697c1.67.92 3.96.526 5.18-.92 1.06-1.446.6-3.419-1.07-4.47l-99.07-56.538c-.61-.395-1.37-.526-2.13-.526h-.15c-.76 0-1.52.131-2.13.526l-99.38 56.538z"/><path opacity=".7" d="M1405.82 269.934H1226.4c-1.37 0-2.59-1.051-2.59-2.235V65.216c0-1.184 1.22-2.236 2.59-2.236 1.37 0 2.59 1.052 2.59 2.236v200.248h174.24V66.267c0-1.183 1.22-2.235 2.59-2.235 1.37 0 2.58 1.052 2.58 2.236v201.3c0 1.315-1.06 2.366-2.58 2.366z"/><path opacity=".7" d="M1316.18 67.45c-10.65 0-19.48-7.494-19.48-16.83 0-9.203 8.68-16.829 19.48-16.829 10.66 0 19.48 7.495 19.48 16.83-.15 9.204-8.82 16.83-19.48 16.83zm0-29.188c-7.91 0-14.3 5.522-14.3 12.359s6.39 12.36 14.3 12.36c7.92 0 14.31-5.523 14.31-12.36-.15-6.837-6.55-12.36-14.31-12.36z"/><path opacity=".7" d="M1316.18 67.45c-1.37 0-2.58-1.051-2.58-2.234V36.158c0-1.184 1.21-2.235 2.58-2.235s2.59 1.051 2.59 2.235v29.058c0 1.183-1.22 2.235-2.59 2.235z"/><path opacity=".7" d="M1332.92 52.856h-33.48c-1.36 0-2.58-1.052-2.58-2.235 0-1.183 1.22-2.235 2.58-2.235h33.48c1.37 0 2.59 1.052 2.59 2.235 0 1.183-1.06 2.235-2.59 2.235zm44.9 94.273h-33.63c-1.38 0-2.59-1.051-2.59-2.235v-48.78c0-1.183 1.21-2.235 2.59-2.235h33.63c1.37 0 2.58 1.052 2.58 2.235v48.78c0 1.184-1.21 2.235-2.58 2.235zm-31.05-4.47h28.46v-44.31h-28.46v44.31z"/><path opacity=".7" d="M1377.82 121.885h-33.63c-1.38 0-2.59-1.052-2.59-2.235 0-1.184 1.21-2.236 2.59-2.236h33.63c1.37 0 2.58 1.052 2.58 2.236 0 1.314-1.21 2.235-2.58 2.235zm-44.9 25.244h-33.63c-1.37 0-2.59-1.051-2.59-2.235v-48.78c0-1.183 1.22-2.235 2.59-2.235h33.63c1.37 0 2.59 1.052 2.59 2.235v48.78c0 1.184-1.07 2.235-2.59 2.235zm-31.04-4.47h28.46v-44.31h-28.46v44.31z"/><path opacity=".7" d="M1332.92 121.885h-33.63c-1.37 0-2.59-1.052-2.59-2.235 0-1.184 1.22-2.236 2.59-2.236h33.63c1.37 0 2.59 1.052 2.59 2.236 0 1.314-1.07 2.235-2.59 2.235zm44.13 99.664h-33.63c-1.37 0-2.59-1.053-2.59-2.235v-48.781c0-1.182 1.22-2.236 2.59-2.236h33.63c1.37 0 2.59 1.054 2.59 2.236v48.781c0 1.315-1.22 2.235-2.59 2.235zm-31.04-4.471h28.46v-44.309h-28.46v44.309z"/><path opacity=".7" d="M1377.05 196.436h-33.63c-1.37 0-2.59-1.052-2.59-2.236 0-1.183 1.22-2.234 2.59-2.234h33.63c1.37 0 2.59 1.051 2.59 2.234 0 1.184-1.22 2.236-2.59 2.236zm-44.73 25.113h-33.64c-1.37 0-2.58-1.053-2.58-2.235v-48.781c0-1.182 1.21-2.236 2.58-2.236h33.64c1.36 0 2.58 1.054 2.58 2.236v48.781c0 1.315-1.22 2.235-2.58 2.235zm-31.05-4.471h28.46v-44.309h-28.46v44.309z"/><path opacity=".7" d="M1332.32 196.436h-33.64c-1.37 0-2.58-1.052-2.58-2.236 0-1.183 1.21-2.234 2.58-2.234h33.64c1.36 0 2.58 1.051 2.58 2.234 0 1.184-1.22 2.236-2.58 2.236zm-43.83-49.307h-33.64c-1.36 0-2.58-1.051-2.58-2.235v-48.78c0-1.183 1.22-2.235 2.58-2.235h33.64c1.37 0 2.58 1.052 2.58 2.235v48.78c0 1.184-1.06 2.235-2.58 2.235zm-31.05-4.47h28.46v-44.31h-28.46v44.31z"/><path opacity=".7" d="M1288.49 121.885h-33.64c-1.36 0-2.58-1.052-2.58-2.235 0-1.184 1.22-2.236 2.58-2.236h33.64c1.37 0 2.58 1.052 2.58 2.236 0 1.314-1.06 2.235-2.58 2.235zm-.61 99.664h-33.63c-1.37 0-2.59-1.053-2.59-2.235v-48.781c0-1.182 1.22-2.236 2.59-2.236h33.63c1.37 0 2.59 1.054 2.59 2.236v48.781c0 1.315-1.22 2.235-2.59 2.235zm-31.05-4.471h28.46v-44.309h-28.46v44.309z"/><path opacity=".7" d="M1287.88 196.436h-33.63c-1.37 0-2.59-1.052-2.59-2.236 0-1.183 1.22-2.234 2.59-2.234h33.63c1.37 0 2.59 1.051 2.59 2.234 0 1.184-1.22 2.236-2.59 2.236zM1226.4 79.547h-130.57c-1.07 0-1.98-.526-2.44-1.314-.45-.79-.3-1.71.46-2.367l67.72-67.714c.46-.526 1.22-.789 1.98-.789h137.57c1.37 0 2.58 1.052 2.58 2.235 0 1.184-1.21 2.236-2.58 2.236h-136.36l-63.3 63.243h124.94c1.37 0 2.58 1.052 2.58 2.235 0 1.184-1.21 2.235-2.58 2.235z"/><path opacity=".7" d="M1226.4 269.934h-124.33c-1.37 0-2.59-1.051-2.59-2.235V77.312c0-1.183 1.22-2.235 2.59-2.235 1.37 0 2.58 1.052 2.58 2.235v188.152h121.75c1.37 0 2.58 1.052 2.58 2.235 0 1.184-1.21 2.235-2.58 2.235z"/><path opacity=".7" d="M1191.24 269.934c-1.37 0-2.58-1.051-2.58-2.235v-76.26h-49.31v76.26c0 1.184-1.22 2.235-2.59 2.235-1.37 0-2.58-1.051-2.58-2.235v-78.494c0-1.184 1.21-2.236 2.58-2.236h54.48c1.37 0 2.59 1.052 2.59 2.236v78.494c0 1.184-1.22 2.235-2.59 2.235zm14-139.766h-80.96c-1.36 0-2.58-1.052-2.58-2.235V96.114c0-1.183 1.22-2.235 2.58-2.235h81.12c1.37 0 2.58 1.052 2.58 2.235v31.819c-.15 1.183-1.21 2.235-2.74 2.235zm-78.37-4.47h75.94V98.349h-75.94v27.349z"/><path opacity=".7" d="M1205.24 104.398h-80.96c-1.36 0-2.58-1.052-2.58-2.236 0-1.183 1.22-2.235 2.58-2.235h81.12c1.37 0 2.58 1.052 2.58 2.235-.15 1.184-1.21 2.236-2.74 2.236z"/><path opacity=".7" d="M1164.76 130.168c-1.36 0-2.58-1.052-2.58-2.235v-25.245c0-1.183 1.22-2.235 2.58-2.235 1.37 0 2.59 1.052 2.59 2.235v25.245c0 1.183-1.22 2.235-2.59 2.235zM207.605 71.921c2.891 0 5.783-1.183 7.457-3.418 2.739-3.55 1.522-8.284-2.587-10.65L113.406 1.315C111.885.395 110.058 0 108.232 0c-1.826 0-3.652.394-5.174 1.315L3.989 57.853c-4.108 2.366-5.173 7.1-2.587 10.65 2.74 3.55 8.217 4.47 12.327 2.235L108.08 16.83l94.351 53.908c1.826.789 3.5 1.183 5.174 1.183zm2.131-10.256c1.674.921 2.13 2.893 1.065 4.471-1.065 1.446-3.348 1.84-5.174.92L109.754 12.36a2.846 2.846 0 00-2.891 0L10.99 67.056c-1.675.92-3.956.526-5.174-.92-1.066-1.446-.609-3.419 1.065-4.47L105.95 5.128c.608-.395 1.369-.526 2.13-.526h.152c.761 0 1.522.131 2.131.526l99.373 56.538z"/><path opacity=".7" d="M18.295 269.934h179.419c1.37 0 2.587-1.051 2.587-2.235V65.216c0-1.184-1.217-2.236-2.587-2.236-1.369 0-2.587 1.052-2.587 2.236v200.248H20.882V66.267c0-1.183-1.217-2.235-2.587-2.235s-2.587 1.052-2.587 2.236v201.3c0 1.315 1.065 2.366 2.587 2.366z"/><path opacity=".7" d="M197.715 79.547h130.57c1.065 0 1.978-.526 2.434-1.314.457-.79.305-1.71-.456-2.367l-67.72-67.714c-.456-.526-1.217-.789-1.978-.789h-137.57c-1.37 0-2.587 1.052-2.587 2.235 0 1.184 1.217 2.236 2.587 2.236h136.353l63.306 63.243H197.715c-1.37 0-2.587 1.052-2.587 2.235 0 1.184 1.217 2.235 2.587 2.235z"/><path opacity=".7" d="M197.715 269.934h124.33c1.37 0 2.587-1.051 2.587-2.235V77.312c0-1.183-1.217-2.235-2.587-2.235-1.369 0-2.587 1.052-2.587 2.235v188.152H197.715c-1.37 0-2.587 1.052-2.587 2.235 0 1.184 1.217 2.235 2.587 2.235z"/><path opacity=".7" d="M232.867 269.934c1.37 0 2.587-1.051 2.587-2.235v-76.26h49.306v76.26c0 1.184 1.217 2.235 2.587 2.235s2.587-1.051 2.587-2.235v-78.494c0-1.184-1.217-2.236-2.587-2.236h-54.48c-1.37 0-2.587 1.052-2.587 2.236v78.494c0 1.184 1.217 2.235 2.587 2.235zm-14.001-139.766h80.96c1.369 0 2.587-1.052 2.587-2.235V96.114c0-1.183-1.218-2.235-2.587-2.235h-81.112c-1.369 0-2.587 1.052-2.587 2.235v31.819c.152 1.183 1.218 2.235 2.739 2.235zm78.373-4.47h-75.938V98.349h75.938v27.349z"/><path opacity=".7" d="M218.866 104.398h80.96c1.369 0 2.587-1.052 2.587-2.236 0-1.183-1.218-2.235-2.587-2.235h-81.112c-1.369 0-2.587 1.052-2.587 2.235.152 1.184 1.218 2.236 2.739 2.236z"/><path opacity=".7" d="M259.347 130.168c1.369 0 2.587-1.052 2.587-2.235v-25.245c0-1.183-1.218-2.235-2.587-2.235-1.37 0-2.587 1.052-2.587 2.235v25.245c0 1.183 1.217 2.235 2.587 2.235z"/></g></svg>