<svg width="401" height="443" fill="none" xmlns="http://www.w3.org/2000/svg"><g clip-path="url(#clip0_505_208)" fill="#236569"><path d="M349.739 358.545c3.657 2.205 4.136 5.561 4.872 10.654a55.328 55.328 0 001.831 8.977c2.03 6.566 1.736 12.065-.786 14.758a4.943 4.943 0 01-4.976 1.296 5.504 5.504 0 01-1.447-.557 16.417 16.417 0 01-4.812-5.533 21.017 21.017 0 00-6.945-7.478l-.162-.175-.175-.188a20.981 20.981 0 00-9.968-1.97 16.49 16.49 0 01-7.326-1.073 5.645 5.645 0 01-1.249-.94 4.892 4.892 0 01-1.399-2.273 4.937 4.937 0 01-.006-2.674c.971-3.552 5.537-6.668 12.285-8.409a56.058 56.058 0 008.684-3.063c4.794-1.952 7.877-3.365 11.672-1.388l-.093.036zm.943-1.826c-7.016-3.686-12.251 1.901-21.805 4.298-14.017 3.515-16.493 11.991-11.765 16.677.497.509 1.067.94 1.691 1.28 4.795 2.674 11.87.204 17.198 3.183l.149.161.075.08.112.121c5.327 3.03 6.936 10.362 11.743 13.05.604.32 1.244.565 1.908.729 6.5 1.589 12.46-4.921 8.191-18.686-2.893-9.39-.825-16.737-7.644-20.807l.147-.086zm-21.105-24.184c2.747 1.524 4.866 5.483 5.378 10.009a15.812 15.812 0 01-1.25 8.662 5.834 5.834 0 01-4.075 3.509 4.144 4.144 0 01-2.563-.569c-2.748-1.525-4.866-5.483-5.378-10.01a15.817 15.817 0 011.249-8.661 5.84 5.84 0 014.075-3.51c.896-.1 1.798.1 2.564.57zm.992-1.772a6.16 6.16 0 00-3.789-.807c-4.778.562-7.955 7.013-7.101 14.422.621 5.375 3.19 9.765 6.408 11.553a6.162 6.162 0 003.789.807c4.778-.562 7.955-7.013 7.102-14.423-.621-5.374-3.191-9.764-6.409-11.552zm51.918 31.426a4.129 4.129 0 011.808 1.946c1.495 3.288-2.013 8.246-7.677 10.856-4.155 1.909-8.61 2.17-11.407.591a4.386 4.386 0 01-1.808-1.946c-1.495-3.287 2.026-8.258 7.677-10.856 4.169-1.921 8.61-2.17 11.407-.591zm.925-1.709c-3.192-1.787-8.277-1.691-13.187.569-6.789 3.129-10.678 9.192-8.679 13.562a6.297 6.297 0 002.656 2.859c3.205 1.775 8.29 1.678 13.199-.581 6.776-3.117 10.665-9.18 8.666-13.55a6.17 6.17 0 00-2.655-2.859zm-28.101-37.317c3.217 1.788 4.114 7.757 2.066 13.585a16.621 16.621 0 01-5.213 7.692 6.21 6.21 0 01-2.607 1.447 6.176 6.176 0 01-2.975.062 4.002 4.002 0 01-.639-.282c-3.204-1.801-4.114-7.757-2.067-13.585a16.629 16.629 0 015.214-7.692 6.28 6.28 0 012.661-1.448 6.251 6.251 0 013.024-.031c.219.075.428.173.625.294l-.089-.042zm1.055-1.73a6.276 6.276 0 00-.958-.41c-4.782-1.66-10.774 3.004-13.378 10.424-2.415 6.919-1.073 13.774 2.984 16.032.303.167.619.309.945.423 4.782 1.66 10.774-3.004 13.391-10.436 2.428-6.906 1.06-13.762-2.984-16.033zm20.765 13.948c.21.112.405.25.582.41 2.997 2.442 1.954 8.838-2.262 13.953-3.917 4.763-9.505 7.102-12.67 5.29a4.22 4.22 0 01-.595-.397 6.22 6.22 0 01-1.483-2.563 6.255 6.255 0 01-.133-2.963 16.764 16.764 0 013.892-8.44c3.916-4.763 9.491-7.09 12.669-5.29zm1.055-1.705c-4.045-2.245-10.598.165-15.25 5.811-5.008 6.076-5.901 13.607-1.959 16.823.272.233.569.435.886.602 4.043 2.272 10.61-.151 15.249-5.785 5.021-6.088 5.914-13.619 1.959-16.822a7.09 7.09 0 00-.886-.603l.001-.026z"/></g><g clip-path="url(#clip1_505_208)" fill="#236569"><path d="M129.739 392.545c3.657 2.205 4.136 5.561 4.872 10.654a55.328 55.328 0 001.831 8.977c2.03 6.566 1.736 12.065-.786 14.758a4.943 4.943 0 01-4.976 1.296 5.504 5.504 0 01-1.447-.557 16.417 16.417 0 01-4.812-5.533 21.017 21.017 0 00-6.945-7.478l-.162-.175-.175-.188a20.981 20.981 0 00-9.968-1.97 16.489 16.489 0 01-7.326-1.073 5.644 5.644 0 01-1.25-.94 4.905 4.905 0 01-1.398-2.273 4.937 4.937 0 01-.006-2.674c.971-3.552 5.537-6.668 12.285-8.409a56.058 56.058 0 008.684-3.063c4.794-1.952 7.877-3.365 11.672-1.388l-.093.036zm.943-1.826c-7.016-3.686-12.251 1.901-21.805 4.298-14.017 3.515-16.493 11.991-11.765 16.677a7.11 7.11 0 001.691 1.28c4.795 2.674 11.87.204 17.198 3.183l.149.161.075.08.112.121c5.327 3.03 6.936 10.362 11.743 13.05.604.32 1.244.565 1.908.729 6.5 1.589 12.46-4.921 8.191-18.686-2.893-9.39-.825-16.737-7.644-20.807l.147-.086zm-21.105-24.184c2.747 1.524 4.866 5.483 5.378 10.009a15.812 15.812 0 01-1.25 8.662 5.834 5.834 0 01-4.075 3.509 4.144 4.144 0 01-2.563-.569c-2.748-1.525-4.866-5.483-5.378-10.01a15.817 15.817 0 011.249-8.661 5.84 5.84 0 014.075-3.51c.896-.1 1.798.1 2.564.57zm.992-1.772a6.16 6.16 0 00-3.789-.807c-4.778.562-7.955 7.013-7.102 14.422.621 5.375 3.191 9.765 6.409 11.553a6.162 6.162 0 003.789.807c4.778-.562 7.955-7.013 7.102-14.423-.621-5.374-3.191-9.764-6.409-11.552zm51.918 31.426a4.129 4.129 0 011.808 1.946c1.495 3.288-2.013 8.246-7.677 10.856-4.155 1.909-8.61 2.17-11.407.591a4.38 4.38 0 01-1.808-1.946c-1.495-3.287 2.026-8.258 7.677-10.856 4.169-1.921 8.61-2.17 11.407-.591zm.925-1.709c-3.192-1.787-8.277-1.691-13.187.569-6.789 3.129-10.678 9.192-8.679 13.562a6.297 6.297 0 002.656 2.859c3.205 1.775 8.29 1.678 13.199-.581 6.776-3.117 10.665-9.18 8.666-13.55a6.17 6.17 0 00-2.655-2.859zm-28.101-37.317c3.217 1.788 4.114 7.757 2.066 13.585a16.621 16.621 0 01-5.213 7.692 6.21 6.21 0 01-2.607 1.447 6.176 6.176 0 01-2.975.062 4.002 4.002 0 01-.639-.282c-3.204-1.801-4.114-7.757-2.067-13.585a16.629 16.629 0 015.214-7.692 6.28 6.28 0 012.661-1.448 6.251 6.251 0 013.024-.031c.219.075.428.173.625.294l-.089-.042zm1.055-1.73a6.276 6.276 0 00-.958-.41c-4.782-1.66-10.774 3.004-13.378 10.424-2.415 6.919-1.073 13.774 2.984 16.032.303.167.619.309.945.423 4.782 1.66 10.774-3.004 13.391-10.436 2.428-6.906 1.06-13.762-2.984-16.033zm20.765 13.948c.21.112.405.25.582.41 2.997 2.442 1.954 8.838-2.262 13.953-3.917 4.763-9.505 7.102-12.67 5.29a4.22 4.22 0 01-.595-.397 6.22 6.22 0 01-1.483-2.563 6.255 6.255 0 01-.133-2.963 16.764 16.764 0 013.892-8.44c3.916-4.763 9.491-7.09 12.669-5.29zm1.055-1.705c-4.045-2.245-10.598.165-15.25 5.811-5.008 6.076-5.901 13.607-1.959 16.823.272.233.569.435.886.602 4.043 2.272 10.61-.151 15.249-5.785 5.021-6.088 5.914-13.619 1.959-16.822a7.09 7.09 0 00-.886-.603l.001-.026z"/></g><g clip-path="url(#clip2_505_208)" fill="#236569"><path d="M123.739 75.545c3.657 2.205 4.136 5.561 4.872 10.654a55.318 55.318 0 001.831 8.977c2.03 6.566 1.736 12.065-.786 14.758a4.943 4.943 0 01-4.976 1.296 5.504 5.504 0 01-1.447-.557 16.417 16.417 0 01-4.812-5.533 21.023 21.023 0 00-6.945-7.478l-.162-.175-.175-.188a20.982 20.982 0 00-9.968-1.97 16.503 16.503 0 01-7.326-1.073 5.66 5.66 0 01-1.25-.94 4.91 4.91 0 01-1.398-2.273 4.937 4.937 0 01-.006-2.674c.971-3.552 5.537-6.668 12.285-8.409a56.103 56.103 0 008.684-3.063c4.794-1.952 7.877-3.365 11.672-1.388l-.093.036zm.943-1.826c-7.016-3.686-12.251 1.9-21.805 4.298-14.017 3.515-16.493 11.991-11.765 16.677.497.509 1.067.94 1.691 1.28 4.794 2.674 11.87.204 17.198 3.182l.149.162.075.08.112.121c5.327 3.03 6.936 10.362 11.743 13.05.604.32 1.244.565 1.908.729 6.5 1.589 12.46-4.921 8.191-18.686-2.893-9.39-.825-16.737-7.644-20.807l.147-.086zm-21.105-24.184c2.747 1.524 4.866 5.483 5.378 10.009a15.812 15.812 0 01-1.25 8.662 5.842 5.842 0 01-4.075 3.51 4.138 4.138 0 01-2.563-.57c-2.747-1.525-4.866-5.483-5.378-10.01a15.815 15.815 0 011.25-8.662 5.838 5.838 0 014.074-3.509c.896-.1 1.798.1 2.564.57zm.992-1.772a6.155 6.155 0 00-3.789-.807c-4.778.562-7.955 7.013-7.102 14.422.621 5.375 3.191 9.765 6.409 11.553a6.162 6.162 0 003.789.807c4.778-.562 7.955-7.013 7.102-14.423-.621-5.374-3.191-9.764-6.409-11.552zm51.918 31.426a4.127 4.127 0 011.808 1.947c1.495 3.287-2.013 8.245-7.677 10.855-4.155 1.909-8.61 2.17-11.407.591a4.38 4.38 0 01-1.808-1.946c-1.495-3.287 2.026-8.258 7.677-10.856 4.169-1.92 8.61-2.17 11.407-.591zm.925-1.71c-3.192-1.786-8.277-1.69-13.187.57-6.789 3.13-10.678 9.192-8.679 13.562a6.295 6.295 0 002.656 2.86c3.205 1.774 8.29 1.677 13.199-.582 6.776-3.117 10.665-9.18 8.666-13.55a6.166 6.166 0 00-2.655-2.86zm-28.101-37.316c3.217 1.788 4.114 7.757 2.066 13.585a16.627 16.627 0 01-5.213 7.692 6.208 6.208 0 01-2.607 1.447 6.172 6.172 0 01-2.975.062 3.957 3.957 0 01-.639-.282c-3.204-1.8-4.114-7.757-2.067-13.585a16.629 16.629 0 015.214-7.692 6.28 6.28 0 012.661-1.448 6.248 6.248 0 013.024-.031c.219.075.428.173.625.294l-.089-.042zm1.055-1.73a6.266 6.266 0 00-.958-.41c-4.782-1.66-10.774 3.004-13.378 10.424-2.415 6.919-1.073 13.774 2.984 16.032a6.1 6.1 0 00.945.423c4.782 1.66 10.774-3.004 13.391-10.436 2.428-6.906 1.06-13.762-2.984-16.033zm20.765 13.947c.21.113.405.25.582.41 2.997 2.443 1.954 8.839-2.262 13.954-3.917 4.763-9.505 7.102-12.67 5.29a4.284 4.284 0 01-.595-.397 6.223 6.223 0 01-1.483-2.563 6.255 6.255 0 01-.133-2.963 16.768 16.768 0 013.892-8.44c3.916-4.763 9.491-7.09 12.669-5.29zm1.055-1.704c-4.045-2.245-10.598.165-15.25 5.811-5.008 6.076-5.901 13.607-1.959 16.823.272.233.569.435.886.602 4.043 2.272 10.61-.151 15.249-5.785 5.021-6.088 5.914-13.619 1.959-16.822a7.15 7.15 0 00-.886-.603l.001-.026z"/></g><g opacity=".2" clip-path="url(#clip3_505_208)" fill="#25666A"><path d="M203.572 238.535c-8.081-3.713-13.573 2.804-24.073 6.016-15.421 4.692-17.62 14.268-12.007 19.253 5.614 4.986 14.72.464 21.673 3.938l.125.083c7.095 3.339 9.131 13.355 16.406 14.719 7.276 1.364 13.636-6.263 7.86-21.296-3.917-10.245-2.109-18.574-9.984-22.713zm-16.368-15.357c1.465 8.205-1.663 15.579-6.949 16.484-5.285.905-10.767-5.014-12.22-13.237-1.453-8.224 1.664-15.58 6.968-16.473 5.303-.894 10.755 5.032 12.201 13.226zm38.484 18.977c-7.365 3.84-11.284 10.815-8.767 15.581 2.517 4.766 10.537 5.476 17.862 1.659 7.324-3.816 11.296-10.833 8.767-15.582-2.528-4.748-10.573-5.575-17.862-1.658zM211.861 216.4c-2.418 8.434-8.787 13.985-14.231 12.382-5.445-1.602-7.917-9.686-5.511-18.102 2.407-8.416 8.775-13.967 14.232-12.382 5.456 1.585 7.869 9.757 5.51 18.102zm4.071 2.12c-5.164 7.068-5.655 15.506-1.068 18.863 4.586 3.357 12.495.364 17.677-6.692s5.655-15.506 1.086-18.851c-4.568-3.345-12.513-.376-17.695 6.68z"/></g><g opacity=".2" clip-path="url(#clip4_505_208)" fill="#25666A"><path d="M271.572 55.535c-8.08-3.713-13.573 2.804-24.073 6.016-15.421 4.692-17.62 14.268-12.007 19.253 5.614 4.986 14.72.464 21.673 3.938l.125.083c7.095 3.34 9.131 13.355 16.406 14.72 7.276 1.363 13.636-6.264 7.86-21.297-3.917-10.245-2.109-18.574-9.984-22.713zm-16.368-15.357c1.465 8.205-1.663 15.579-6.949 16.484-5.285.906-10.767-5.014-12.22-13.237-1.452-8.224 1.664-15.58 6.968-16.473 5.303-.894 10.755 5.032 12.201 13.226zm38.484 18.977c-7.365 3.84-11.284 10.816-8.767 15.582 2.517 4.766 10.537 5.475 17.862 1.658 7.324-3.816 11.296-10.833 8.767-15.582-2.528-4.748-10.573-5.575-17.862-1.658zM279.861 33.4c-2.418 8.434-8.787 13.985-14.231 12.383-5.445-1.603-7.917-9.687-5.511-18.103 2.407-8.416 8.775-13.967 14.232-12.382 5.456 1.585 7.869 9.757 5.51 18.102zm4.071 2.12c-5.164 7.068-5.655 15.506-1.068 18.863 4.586 3.357 12.495.364 17.677-6.692s5.655-15.506 1.086-18.851c-4.568-3.345-12.513-.376-17.695 6.68z"/></g><g opacity=".2" clip-path="url(#clip5_505_208)" fill="#25666A"><path d="M34.572 186.535c-8.08-3.713-13.573 2.804-24.073 6.016-15.42 4.692-17.62 14.268-12.007 19.253 5.614 4.986 14.72.464 21.673 3.938l.125.083c7.095 3.339 9.13 13.355 16.407 14.719 7.275 1.364 13.635-6.263 7.859-21.296-3.917-10.245-2.109-18.574-9.984-22.713zm-16.368-15.357c1.465 8.205-1.663 15.579-6.949 16.484-5.285.905-10.767-5.014-12.22-13.237-1.453-8.224 1.664-15.58 6.968-16.473 5.303-.894 10.755 5.032 12.201 13.226zm38.484 18.977c-7.366 3.84-11.285 10.815-8.767 15.581 2.517 4.766 10.537 5.476 17.862 1.659 7.324-3.816 11.296-10.833 8.767-15.582-2.528-4.748-10.573-5.575-17.861-1.658zM42.86 164.4c-2.417 8.434-8.786 13.985-14.23 12.382-5.445-1.602-7.917-9.686-5.51-18.102 2.406-8.416 8.774-13.967 14.23-12.382 5.457 1.585 7.87 9.757 5.51 18.102zm4.072 2.12c-5.164 7.068-5.655 15.506-1.068 18.863 4.586 3.357 12.495.364 17.677-6.692s5.655-15.506 1.086-18.851c-4.568-3.345-12.513-.376-17.695 6.68z"/></g><defs><clipPath id="clip0_505_208"><path fill="#fff" transform="rotate(47.116 -173.777 556.1)" d="M0 0h71v75H0z"/></clipPath><clipPath id="clip1_505_208"><path fill="#fff" transform="rotate(47.116 -322.766 320.818)" d="M0 0h71v75H0z"/></clipPath><clipPath id="clip2_505_208"><path fill="#fff" transform="rotate(47.116 37.75 155.437)" d="M0 0h71v75H0z"/></clipPath><clipPath id="clip3_505_208"><path fill="#fff" transform="rotate(33.627 -207.65 406.385)" d="M0 0h82v80H0z"/></clipPath><clipPath id="clip4_505_208"><path fill="#fff" transform="rotate(33.627 129.152 427.401)" d="M0 0h82v80H0z"/></clipPath><clipPath id="clip5_505_208"><path fill="#fff" transform="rotate(33.627 -206.108 100.75)" d="M0 0h82v80H0z"/></clipPath></defs></svg>