<svg width="65" height="65" fill="none" xmlns="http://www.w3.org/2000/svg"><g clip-path="url(#clip0_199_97)" fill="#236569"><path d="M22.497 16.43c.76.48.86 1.21 1.013 2.318.075.66.202 1.314.38 1.952.422 1.428.361 2.624-.163 3.21a1.02 1.02 0 01-.48.293.98.98 0 01-.554-.011 1.11 1.11 0 01-.3-.121 3.528 3.528 0 01-1.001-1.204 4.497 4.497 0 00-1.444-1.626l-.033-.038-.037-.041a4.194 4.194 0 00-2.071-.429 3.291 3.291 0 01-1.523-.233 1.18 1.18 0 01-.26-.204 1.077 1.077 0 01-.29-.495 1.123 1.123 0 01-.001-.581c.201-.773 1.15-1.45 2.553-1.83.618-.17 1.221-.392 1.805-.666.996-.424 1.637-.731 2.425-.301l-.019.007zm.196-.397c-1.458-.802-2.546.414-4.532.935-2.913.765-3.428 2.608-2.445 3.627.103.11.222.205.352.279.996.581 2.466.044 3.574.692l.031.035.016.017.023.027c1.107.659 1.441 2.253 2.44 2.838.126.07.259.123.397.159 1.35.345 2.59-1.07 1.702-4.064-.601-2.043-.171-3.64-1.588-4.526l.03-.019zm-4.386-5.26c.57.332 1.011 1.193 1.117 2.177a3.585 3.585 0 01-.26 1.884 1.27 1.27 0 01-.334.49 1.194 1.194 0 01-.512.274.83.83 0 01-.533-.125c-.57-.331-1.011-1.192-1.117-2.176a3.585 3.585 0 01.26-1.884 1.27 1.27 0 01.334-.49c.147-.133.323-.227.512-.274a.812.812 0 01.533.124zm.206-.385a1.233 1.233 0 00-.787-.176c-.993.123-1.654 1.526-1.476 3.137.129 1.17.663 2.124 1.331 2.513.238.145.514.207.788.175.993-.122 1.653-1.525 1.476-3.136-.13-1.17-.663-2.124-1.332-2.513zm10.79 6.835a.882.882 0 01.376.423c.311.715-.418 1.794-1.595 2.361-.864.416-1.79.472-2.371.13a.937.937 0 01-.376-.424c-.31-.715.421-1.796 1.596-2.361.866-.418 1.79-.472 2.37-.129zm.193-.372c-.664-.388-1.72-.367-2.74.124-1.412.68-2.22 2-1.805 2.95.117.263.31.48.552.622.666.386 1.723.365 2.744-.127 1.408-.678 2.216-1.996 1.8-2.947a1.32 1.32 0 00-.551-.622zm-5.841-8.116c.669.389.855 1.687.43 2.955A3.628 3.628 0 0123 13.363a1.27 1.27 0 01-.542.314 1.228 1.228 0 01-.618.014.8.8 0 01-.133-.062c-.666-.391-.855-1.687-.43-2.954a3.627 3.627 0 011.084-1.673 1.253 1.253 0 011.182-.322.635.635 0 01.13.064l-.019-.009zm.22-.376a1.271 1.271 0 00-.2-.09c-.994-.36-2.239.654-2.78 2.268-.502 1.505-.223 2.995.62 3.487.063.036.129.067.197.092.994.36 2.239-.654 2.783-2.27.504-1.502.22-2.993-.62-3.487zm4.315 3.033a.613.613 0 01.121.09c.623.53.406 1.922-.47 3.034-.814 1.036-1.975 1.545-2.633 1.15a.882.882 0 01-.124-.085 1.37 1.37 0 01-.308-.558 1.42 1.42 0 01-.028-.644c.099-.68.38-1.316.81-1.836.813-1.036 1.972-1.542 2.632-1.15zm.22-.37c-.841-.489-2.203.035-3.17 1.264-1.04 1.32-1.226 2.959-.407 3.658a.947.947 0 00.184.131c.84.494 2.205-.032 3.17-1.258 1.043-1.324 1.228-2.962.406-3.659a1.486 1.486 0 00-.184-.13v-.006z"/></g><g opacity=".2" clip-path="url(#clip1_199_97)" fill="#25666A"><path d="M39.09 51.881c-1.68-.808-2.822.61-5.004 1.308-3.205 1.02-3.662 3.104-2.495 4.188 1.166 1.084 3.059.1 4.504.856l.026.018c1.474.727 1.898 2.905 3.41 3.202 1.512.296 2.834-1.362 1.633-4.632-.814-2.228-.438-4.04-2.075-4.94zm-3.403-3.341c.305 1.785-.345 3.389-1.444 3.586-1.098.197-2.238-1.09-2.54-2.88-.302-1.788.346-3.388 1.448-3.582 1.103-.194 2.236 1.094 2.536 2.877zm7.999 4.128c-1.531.835-2.346 2.352-1.822 3.39.523 1.036 2.19 1.19 3.712.36 1.522-.83 2.348-2.356 1.822-3.39-.526-1.032-2.197-1.212-3.712-.36zm-2.874-5.602c-.503 1.835-1.826 3.042-2.958 2.694-1.131-.349-1.645-2.107-1.145-3.938.5-1.83 1.824-3.038 2.958-2.693 1.134.345 1.635 2.122 1.145 3.937zm.846.462c-1.073 1.537-1.175 3.372-.222 4.102.953.73 2.597.08 3.674-1.455 1.077-1.535 1.175-3.373.226-4.1-.95-.728-2.601-.082-3.678 1.453z"/></g><g opacity=".2" clip-path="url(#clip2_199_97)" fill="#25666A"><path d="M53.222 12.079c-1.68-.808-2.821.61-5.003 1.308-3.205 1.02-3.662 3.103-2.496 4.188 1.167 1.084 3.06.1 4.505.856l.026.018c1.474.726 1.897 2.905 3.41 3.202 1.512.296 2.833-1.363 1.633-4.632-.814-2.229-.438-4.04-2.075-4.94zm-3.402-3.34c.305 1.784-.346 3.388-1.444 3.585-1.099.197-2.238-1.09-2.54-2.88-.302-1.788.346-3.388 1.448-3.582 1.102-.194 2.236 1.094 2.536 2.877zm7.999 4.127c-1.531.835-2.346 2.352-1.823 3.389.523 1.036 2.19 1.19 3.713.36 1.522-.83 2.348-2.356 1.822-3.388-.526-1.033-2.198-1.213-3.712-.361zm-2.874-5.602c-.503 1.835-1.827 3.042-2.958 2.694-1.132-.349-1.645-2.107-1.145-3.938.5-1.83 1.823-3.037 2.957-2.693 1.135.345 1.636 2.122 1.146 3.937zm.845.461c-1.072 1.538-1.174 3.373-.221 4.103.953.73 2.597.08 3.674-1.455 1.077-1.535 1.175-3.373.226-4.1-.95-.728-2.601-.082-3.678 1.452z"/></g><g opacity=".2" clip-path="url(#clip3_199_97)" fill="#25666A"><path d="M3.965 40.57c-1.68-.807-2.82.61-5.003 1.31-3.205 1.02-3.662 3.102-2.495 4.187 1.166 1.084 3.059.1 4.504.856l.026.018c1.475.726 1.898 2.905 3.41 3.201 1.512.297 2.834-1.362 1.633-4.631-.814-2.229-.438-4.04-2.075-4.94zM.564 37.23c.304 1.785-.346 3.389-1.445 3.586-1.098.197-2.237-1.09-2.54-2.88-.301-1.788.346-3.388 1.449-3.582C-.87 34.16.263 35.448.564 37.23zm7.998 4.128c-1.53.835-2.345 2.352-1.822 3.389.523 1.036 2.19 1.19 3.712.36 1.522-.83 2.348-2.356 1.822-3.388-.525-1.033-2.197-1.213-3.712-.361zm-2.874-5.602c-.503 1.835-1.826 3.042-2.958 2.694-1.131-.349-1.645-2.107-1.145-3.938.5-1.83 1.824-3.038 2.958-2.693 1.134.345 1.635 2.122 1.145 3.937zm.846.461c-1.073 1.538-1.175 3.373-.222 4.103.953.73 2.597.08 3.674-1.456 1.077-1.534 1.175-3.372.226-4.1-.95-.727-2.6-.081-3.678 1.453z"/></g><defs><clipPath id="clip0_199_97"><path fill="#fff" transform="matrix(.66377 .74794 -.7171 .69696 22.958 4.785)" d="M0 0h15.129v15.927H0z"/></clipPath><clipPath id="clip1_199_97"><path fill="#fff" transform="matrix(.82077 .57126 -.53638 .84398 36.331 39.802)" d="M0 0h17.289v17.166H0z"/></clipPath><clipPath id="clip2_199_97"><path fill="#fff" transform="matrix(.82077 .57126 -.53638 .84398 50.464 0)" d="M0 0h17.289v17.166H0z"/></clipPath><clipPath id="clip3_199_97"><path fill="#fff" transform="matrix(.82077 .57126 -.53638 .84398 1.208 28.492)" d="M0 0h17.289v17.166H0z"/></clipPath></defs></svg>