<svg width="62" height="100" fill="none" xmlns="http://www.w3.org/2000/svg"><g clip-path="url(#clip0_199_98)" fill="#236569"><path d="M10.337 34.604c.717.432.81 1.09.955 2.088.071.596.191 1.184.36 1.76.397 1.287.34 2.365-.155 2.893a.97.97 0 01-.975.254c-.1-.023-.195-.06-.284-.11a3.218 3.218 0 01-.943-1.084 4.12 4.12 0 00-1.361-1.466l-.032-.034-.034-.037a4.112 4.112 0 00-1.954-.386c-.49.04-.98-.032-1.436-.21a1.11 1.11 0 01-.245-.185.963.963 0 01-.275-.97c.19-.696 1.085-1.306 2.408-1.648a10.995 10.995 0 001.702-.6c.94-.383 1.544-.66 2.287-.272l-.018.007zm.185-.358c-1.375-.722-2.401.373-4.274.843-2.747.689-3.233 2.35-2.306 3.268.097.1.21.185.332.251.94.524 2.326.04 3.37.624l.03.032.014.015.022.024c1.044.594 1.36 2.031 2.302 2.558.118.063.244.11.374.143 1.274.312 2.442-.965 1.606-3.663-.568-1.84-.162-3.28-1.499-4.078l.029-.017zm-4.137-4.74c.539.299.954 1.075 1.054 1.962a3.1 3.1 0 01-.244 1.698 1.143 1.143 0 01-.8.687.811.811 0 01-.502-.111c-.538-.3-.953-1.075-1.054-1.962a3.1 3.1 0 01.245-1.698 1.144 1.144 0 01.799-.688.79.79 0 01.502.112zm.195-.347A1.207 1.207 0 005.837 29c-.936.11-1.559 1.375-1.392 2.827.122 1.054.626 1.914 1.256 2.265.224.13.485.186.743.158.937-.11 1.56-1.375 1.392-2.827-.122-1.053-.625-1.914-1.256-2.264zm10.176 6.159a.808.808 0 01.354.382c.294.644-.394 1.616-1.504 2.128-.815.374-1.688.425-2.236.115a.858.858 0 01-.354-.381c-.293-.644.397-1.619 1.504-2.128.817-.376 1.688-.425 2.236-.116zm.181-.335c-.625-.35-1.622-.331-2.584.112-1.33.613-2.093 1.802-1.701 2.658.11.237.292.434.52.56.628.348 1.625.33 2.587-.113 1.328-.611 2.09-1.8 1.699-2.656a1.209 1.209 0 00-.52-.56zM11.43 27.67c.63.35.806 1.52.405 2.662a3.258 3.258 0 01-1.022 1.508 1.217 1.217 0 01-1.095.295.773.773 0 01-.125-.055c-.628-.353-.806-1.52-.405-2.663a3.263 3.263 0 011.022-1.508 1.231 1.231 0 011.114-.29.602.602 0 01.123.058l-.018-.008zm.206-.34a1.23 1.23 0 00-.188-.08c-.937-.326-2.111.588-2.622 2.043-.473 1.356-.21 2.7.585 3.142.06.033.122.06.185.083.938.325 2.112-.589 2.625-2.046.476-1.353.208-2.697-.585-3.142zm4.071 2.734c.04.022.079.049.113.08.588.479.383 1.732-.443 2.735-.768.934-1.863 1.392-2.483 1.037a.843.843 0 01-.117-.078 1.22 1.22 0 01-.317-1.083 3.287 3.287 0 01.763-1.655c.768-.933 1.86-1.39 2.483-1.036zm.206-.334c-.793-.44-2.077.032-2.989 1.139-.981 1.19-1.156 2.667-.384 3.297a.935.935 0 00.174.118c.792.445 2.08-.03 2.989-1.134.984-1.193 1.159-2.67.384-3.297a1.383 1.383 0 00-.174-.118v-.005z"/></g><g clip-path="url(#clip1_199_98)" fill="#236569"><path d="M51.5 89.487c.716.432.81 1.09.954 2.088.07.596.19 1.184.359 1.76.398 1.287.34 2.364-.154 2.892a.97.97 0 01-.976.254 1.073 1.073 0 01-.283-.11 3.219 3.219 0 01-.943-1.084 4.12 4.12 0 00-1.362-1.465l-.032-.035-.034-.036a4.113 4.113 0 00-1.954-.387c-.488.04-.98-.032-1.435-.21a1.108 1.108 0 01-.245-.184.963.963 0 01-.276-.97c.19-.696 1.086-1.307 2.408-1.648a10.996 10.996 0 001.702-.6c.94-.383 1.544-.66 2.288-.272l-.018.007zm.184-.358c-1.375-.723-2.401.372-4.274.842-2.748.69-3.233 2.35-2.306 3.269.097.1.209.184.331.25.94.525 2.327.04 3.371.625l.03.031.014.016.022.024c1.044.594 1.36 2.03 2.302 2.558.118.062.244.11.374.142 1.274.312 2.442-.964 1.605-3.662-.567-1.84-.161-3.28-1.498-4.078l.029-.017zm-4.137-4.741c.538.3.954 1.075 1.054 1.962a3.1 3.1 0 01-.245 1.698 1.145 1.145 0 01-.799.688.812.812 0 01-.502-.112c-.539-.298-.954-1.074-1.054-1.962a3.1 3.1 0 01.245-1.697 1.145 1.145 0 01.798-.688c.176-.02.353.02.503.111zm.194-.347a1.206 1.206 0 00-.742-.158c-.937.11-1.56 1.374-1.392 2.827.121 1.053.625 1.914 1.256 2.264.224.131.484.187.742.158.937-.11 1.56-1.374 1.393-2.827-.122-1.053-.626-1.913-1.257-2.264zM57.918 90.2a.808.808 0 01.354.382c.293.645-.394 1.616-1.504 2.128-.815.374-1.688.425-2.236.116a.859.859 0 01-.355-.382c-.293-.644.398-1.618 1.505-2.127.817-.377 1.688-.426 2.236-.116zm.181-.334c-.625-.35-1.622-.332-2.584.111-1.331.614-2.093 1.802-1.702 2.658.11.238.292.434.52.56.63.349 1.626.33 2.588-.113 1.328-.611 2.09-1.8 1.699-2.656a1.209 1.209 0 00-.52-.56zm-5.508-7.315c.63.35.806 1.52.405 2.663a3.259 3.259 0 01-1.022 1.508 1.217 1.217 0 01-1.094.296.78.78 0 01-.125-.056c-.628-.353-.806-1.52-.405-2.662a3.26 3.26 0 011.022-1.508 1.23 1.23 0 011.114-.29.61.61 0 01.123.058l-.018-.009zm.207-.339a1.22 1.22 0 00-.188-.08c-.937-.326-2.112.589-2.622 2.043-.474 1.356-.21 2.7.585 3.143.06.032.121.06.185.082.937.326 2.112-.588 2.625-2.045.476-1.354.207-2.698-.585-3.143zm4.07 2.734c.041.022.08.05.114.08.587.48.383 1.733-.443 2.736-.768.933-1.863 1.392-2.484 1.037a.837.837 0 01-.116-.078 1.22 1.22 0 01-.317-1.084 3.287 3.287 0 01.763-1.654c.767-.933 1.86-1.39 2.483-1.037zm.207-.334c-.793-.44-2.077.032-2.99 1.14-.98 1.19-1.156 2.666-.383 3.297a.944.944 0 00.173.118c.793.445 2.08-.03 2.99-1.134.983-1.194 1.158-2.67.383-3.298a1.4 1.4 0 00-.173-.118v-.005z"/></g><g opacity=".2" clip-path="url(#clip2_199_98)" fill="#25666A"><path d="M43.822 52.047c-1.584-.728-2.66.55-4.718 1.18-3.023.919-3.454 2.796-2.354 3.773 1.1.977 2.885.09 4.248.772l.025.016c1.39.655 1.79 2.618 3.215 2.885 1.426.268 2.673-1.227 1.54-4.174-.767-2.008-.412-3.64-1.956-4.452zm-3.208-3.01c.287 1.608-.326 3.053-1.362 3.231-1.036.177-2.11-.983-2.396-2.595-.284-1.612.327-3.053 1.366-3.229 1.04-.175 2.108.987 2.392 2.593zm7.543 3.72c-1.444.752-2.212 2.12-1.718 3.054.493.934 2.065 1.073 3.5.325 1.436-.748 2.215-2.124 1.72-3.054-.497-.931-2.073-1.093-3.502-.325zm-2.71-5.049c-.474 1.653-1.723 2.741-2.79 2.427-1.067-.314-1.551-1.898-1.08-3.548.472-1.65 1.72-2.738 2.79-2.427 1.07.31 1.542 1.913 1.08 3.548zm.798.416c-1.012 1.385-1.109 3.04-.21 3.697.9.658 2.45.072 3.465-1.311 1.016-1.383 1.109-3.04.213-3.695-.895-.656-2.453-.074-3.468 1.309z"/></g><g opacity=".2" clip-path="url(#clip3_199_98)" fill="#25666A"><path d="M44.606 10.885c-1.584-.728-2.66.55-4.718 1.18-3.023.92-3.454 2.796-2.354 3.773 1.1.978 2.885.091 4.248.772l.025.016c1.39.655 1.79 2.618 3.215 2.886 1.427.267 2.673-1.228 1.54-4.175-.767-2.008-.412-3.64-1.956-4.452zm-3.208-3.01c.287 1.608-.326 3.054-1.362 3.231-1.036.178-2.11-.983-2.396-2.595-.284-1.611.327-3.053 1.366-3.228 1.04-.176 2.108.986 2.392 2.592zm7.543 3.72c-1.444.752-2.212 2.12-1.719 3.054.494.934 2.066 1.073 3.502.325 1.435-.748 2.214-2.123 1.718-3.054-.496-.93-2.072-1.093-3.501-.325zM46.23 6.547c-.473 1.653-1.722 2.74-2.789 2.427-1.067-.314-1.552-1.899-1.08-3.548.472-1.65 1.72-2.738 2.79-2.428 1.07.311 1.542 1.913 1.08 3.549zm.799.415c-1.013 1.385-1.109 3.04-.21 3.697.9.658 2.45.072 3.465-1.311 1.016-1.383 1.108-3.04.213-3.695-.895-.656-2.453-.074-3.468 1.31z"/></g><g opacity=".2" clip-path="url(#clip4_199_98)" fill="#25666A"><path d="M11.479 66.007c-1.698.398-1.763 2.067-3.002 3.827-1.822 2.581-1.01 4.328.459 4.424 1.468.096 2.333-1.7 3.827-1.998l.03-.002c1.499-.337 3.019.968 4.309.304 1.29-.665 1.356-2.61-1.346-4.242-1.839-1.114-2.56-2.62-4.277-2.313zM7.098 65.6c1.214 1.094 1.617 2.61.908 3.387-.709.776-2.27.52-3.483-.578-1.215-1.098-1.617-2.611-.904-3.388.713-.776 2.27-.515 3.48.579zm8.238-1.693c-.678 1.48-.445 3.03.518 3.466.963.434 2.29-.421 2.964-1.893.674-1.472.444-3.035-.518-3.466-.963-.43-2.307.41-2.964 1.892zm-5.238-2.322c.64 1.596.323 3.221-.712 3.628-1.036.407-2.39-.546-3.03-2.138-.641-1.592-.323-3.217.712-3.628 1.035-.412 2.391.563 3.03 2.138zm.885-.162c.051 1.715.99 3.08 2.104 3.047 1.114-.032 1.978-1.447 1.93-3.162-.046-1.715-.99-3.08-2.1-3.048-1.109.032-1.98 1.448-1.934 3.163z"/></g><defs><clipPath id="clip0_199_98"><path fill="#fff" transform="rotate(47.116 -22.26 24.407)" d="M0 0h13.917v14.701H0z"/></clipPath><clipPath id="clip1_199_98"><path fill="#fff" transform="rotate(47.116 -64.615 99.05)" d="M0 0h13.917v14.701H0z"/></clipPath><clipPath id="clip2_199_98"><path fill="#fff" transform="rotate(33.627 -47.497 88.787)" d="M0 0h16.073v15.681H0z"/></clipPath><clipPath id="clip3_199_98"><path fill="#fff" transform="rotate(33.627 21.003 69.504)" d="M0 0h16.073v15.681H0z"/></clipPath><clipPath id="clip4_199_98"><path fill="#fff" transform="rotate(-4.237 799.012 -7.585)" d="M0 0h16.073v15.681H0z"/></clipPath></defs></svg>