<svg width="314" height="569" fill="none" xmlns="http://www.w3.org/2000/svg"><g opacity=".2" clip-path="url(#clip0_505_210)" fill="#25666A"><path d="M227.572 55.535c-8.081-3.713-13.573 2.804-24.073 6.016-15.421 4.692-17.62 14.268-12.007 19.253 5.614 4.986 14.72.464 21.673 3.938l.125.083c7.095 3.34 9.131 13.355 16.406 14.72 7.276 1.363 13.636-6.264 7.86-21.297-3.917-10.245-2.109-18.574-9.984-22.713zm-16.368-15.357c1.465 8.205-1.663 15.579-6.949 16.484-5.285.906-10.767-5.014-12.22-13.237-1.452-8.224 1.664-15.58 6.968-16.473 5.303-.894 10.755 5.032 12.201 13.226zm38.485 18.977c-7.366 3.84-11.285 10.816-8.768 15.582 2.517 4.766 10.537 5.475 17.862 1.658 7.324-3.816 11.296-10.833 8.768-15.582-2.529-4.748-10.574-5.575-17.862-1.658zM235.861 33.4c-2.418 8.434-8.787 13.985-14.231 12.383-5.445-1.603-7.917-9.687-5.511-18.103 2.407-8.416 8.775-13.967 14.232-12.382 5.456 1.585 7.869 9.757 5.51 18.102zm4.071 2.12c-5.164 7.068-5.655 15.506-1.068 18.863 4.586 3.357 12.495.364 17.677-6.692s5.655-15.506 1.086-18.851c-4.568-3.345-12.513-.376-17.695 6.68z"/></g><g clip-path="url(#clip1_505_210)" fill="#236569"><path d="M131.739 518.545c3.657 2.205 4.136 5.561 4.872 10.654a55.328 55.328 0 001.831 8.977c2.03 6.566 1.736 12.065-.786 14.758a4.943 4.943 0 01-4.976 1.296 5.504 5.504 0 01-1.447-.557 16.417 16.417 0 01-4.812-5.533 21.017 21.017 0 00-6.945-7.478l-.162-.175-.175-.188a20.981 20.981 0 00-9.968-1.97 16.49 16.49 0 01-7.326-1.073 5.645 5.645 0 01-1.249-.94 4.902 4.902 0 01-1.4-2.273 4.937 4.937 0 01-.005-2.674c.971-3.552 5.537-6.668 12.285-8.409a56.058 56.058 0 008.684-3.063c4.794-1.952 7.877-3.365 11.672-1.388l-.093.036zm.943-1.826c-7.016-3.686-12.251 1.901-21.805 4.298-14.017 3.515-16.493 11.991-11.765 16.677.497.509 1.067.94 1.691 1.28 4.795 2.674 11.87.204 17.198 3.183l.149.161.075.08.112.121c5.327 3.03 6.936 10.362 11.743 13.05.604.32 1.244.565 1.908.729 6.5 1.589 12.46-4.921 8.191-18.686-2.893-9.39-.825-16.737-7.644-20.807l.147-.086zm-21.105-24.184c2.747 1.524 4.866 5.483 5.378 10.009a15.812 15.812 0 01-1.25 8.662 5.834 5.834 0 01-4.075 3.509 4.144 4.144 0 01-2.563-.569c-2.748-1.525-4.866-5.483-5.378-10.01a15.817 15.817 0 011.249-8.661 5.84 5.84 0 014.075-3.51c.896-.1 1.798.1 2.564.57zm.992-1.772a6.16 6.16 0 00-3.789-.807c-4.778.562-7.955 7.013-7.102 14.422.621 5.375 3.191 9.765 6.409 11.553a6.162 6.162 0 003.789.807c4.778-.562 7.955-7.013 7.102-14.423-.621-5.374-3.191-9.764-6.409-11.552zm51.918 31.426a4.129 4.129 0 011.808 1.946c1.495 3.288-2.013 8.246-7.677 10.856-4.155 1.909-8.61 2.17-11.407.591a4.38 4.38 0 01-1.808-1.946c-1.495-3.287 2.026-8.258 7.677-10.856 4.169-1.921 8.61-2.17 11.407-.591zm.925-1.709c-3.192-1.787-8.277-1.691-13.187.569-6.789 3.129-10.678 9.192-8.679 13.562a6.297 6.297 0 002.656 2.859c3.205 1.775 8.29 1.678 13.199-.581 6.776-3.117 10.665-9.18 8.666-13.55a6.17 6.17 0 00-2.655-2.859zm-28.101-37.317c3.217 1.788 4.114 7.757 2.066 13.585a16.621 16.621 0 01-5.213 7.692 6.21 6.21 0 01-2.607 1.447 6.176 6.176 0 01-2.975.062 4.002 4.002 0 01-.639-.282c-3.204-1.801-4.114-7.757-2.067-13.585a16.629 16.629 0 015.214-7.692 6.28 6.28 0 012.661-1.448 6.251 6.251 0 013.024-.031c.219.075.428.173.625.294l-.089-.042zm1.055-1.73a6.276 6.276 0 00-.958-.41c-4.782-1.66-10.774 3.004-13.378 10.424-2.415 6.919-1.073 13.774 2.984 16.032.303.167.619.309.945.423 4.782 1.66 10.774-3.004 13.391-10.436 2.428-6.906 1.06-13.762-2.984-16.033zm20.765 13.948c.21.112.405.25.582.41 2.997 2.442 1.954 8.838-2.262 13.953-3.917 4.763-9.505 7.102-12.67 5.29a4.22 4.22 0 01-.595-.397 6.22 6.22 0 01-1.483-2.563 6.255 6.255 0 01-.133-2.963 16.764 16.764 0 013.892-8.44c3.916-4.763 9.491-7.09 12.669-5.29zm1.055-1.705c-4.045-2.245-10.598.165-15.25 5.811-5.008 6.076-5.901 13.607-1.959 16.823.272.233.569.435.886.602 4.043 2.272 10.61-.151 15.249-5.785 5.021-6.088 5.914-13.619 1.959-16.822a7.09 7.09 0 00-.886-.603l.001-.026z"/></g><g clip-path="url(#clip2_505_210)" fill="#236569"><path d="M52.74 176.545c3.656 2.205 4.135 5.561 4.87 10.654a55.328 55.328 0 001.832 8.977c2.03 6.566 1.736 12.065-.786 14.758a4.94 4.94 0 01-4.976 1.296 5.51 5.51 0 01-1.447-.557 16.416 16.416 0 01-4.812-5.533 21.01 21.01 0 00-6.945-7.478l-.162-.175-.175-.188a20.981 20.981 0 00-9.968-1.97 16.49 16.49 0 01-7.326-1.073 5.644 5.644 0 01-1.25-.94 4.905 4.905 0 01-1.398-2.273 4.937 4.937 0 01-.006-2.674c.971-3.552 5.537-6.668 12.285-8.409a56.041 56.041 0 008.684-3.063c4.794-1.952 7.877-3.365 11.672-1.388l-.093.036zm.942-1.826c-7.016-3.686-12.251 1.901-21.806 4.298-14.016 3.515-16.492 11.991-11.764 16.677a7.11 7.11 0 001.691 1.28c4.794 2.674 11.87.204 17.198 3.183l.15.161.074.08.112.121c5.327 3.03 6.936 10.362 11.743 13.05.604.32 1.244.565 1.908.729 6.5 1.589 12.46-4.921 8.191-18.686-2.893-9.39-.825-16.737-7.644-20.807l.147-.086zm-21.105-24.184c2.747 1.524 4.866 5.483 5.378 10.009a15.814 15.814 0 01-1.25 8.662 5.843 5.843 0 01-4.075 3.509 4.146 4.146 0 01-2.563-.569c-2.747-1.525-4.866-5.483-5.378-10.01a15.811 15.811 0 011.25-8.661 5.833 5.833 0 014.074-3.51c.896-.1 1.798.1 2.564.57zm.992-1.772a6.161 6.161 0 00-3.789-.807c-4.778.562-7.955 7.013-7.102 14.422.621 5.375 3.191 9.765 6.409 11.553a6.161 6.161 0 003.789.807c4.778-.562 7.955-7.013 7.102-14.423-.621-5.374-3.191-9.764-6.409-11.552zm51.918 31.426a4.126 4.126 0 011.808 1.946c1.495 3.288-2.013 8.246-7.677 10.856-4.155 1.909-8.61 2.17-11.407.591a4.38 4.38 0 01-1.808-1.946c-1.495-3.287 2.026-8.258 7.677-10.856 4.169-1.921 8.61-2.17 11.407-.591zm.925-1.709c-3.192-1.787-8.277-1.691-13.187.569-6.789 3.129-10.678 9.192-8.68 13.562a6.296 6.296 0 002.657 2.859c3.205 1.775 8.29 1.678 13.2-.581 6.775-3.117 10.664-9.18 8.665-13.55a6.17 6.17 0 00-2.655-2.859zM58.31 141.163c3.218 1.788 4.115 7.757 2.067 13.585a16.619 16.619 0 01-5.213 7.692 6.208 6.208 0 01-2.607 1.447 6.177 6.177 0 01-2.975.062 4.006 4.006 0 01-.64-.282c-3.203-1.801-4.113-7.757-2.066-13.585a16.624 16.624 0 015.214-7.692 6.279 6.279 0 012.661-1.448 6.25 6.25 0 013.024-.031c.219.075.428.173.625.294l-.09-.042zm1.056-1.73a6.287 6.287 0 00-.958-.41c-4.782-1.66-10.774 3.004-13.378 10.424-2.415 6.919-1.073 13.774 2.984 16.032.303.167.619.309.945.423 4.782 1.66 10.774-3.004 13.391-10.436 2.428-6.906 1.06-13.762-2.984-16.033zm20.765 13.948c.21.112.405.25.582.41 2.997 2.442 1.954 8.838-2.262 13.953-3.917 4.763-9.505 7.102-12.67 5.29a4.204 4.204 0 01-.595-.397 6.219 6.219 0 01-1.483-2.563 6.255 6.255 0 01-.133-2.963 16.766 16.766 0 013.892-8.44c3.916-4.763 9.491-7.09 12.67-5.29zm1.055-1.705c-4.045-2.245-10.598.165-15.25 5.811-5.008 6.076-5.9 13.607-1.96 16.823a4.8 4.8 0 00.887.602c4.043 2.272 10.61-.151 15.249-5.785 5.02-6.088 5.913-13.619 1.959-16.822a7.069 7.069 0 00-.886-.603v-.026z"/></g><g clip-path="url(#clip3_505_210)" fill="#236569"><path d="M262.74 456.545c3.656 2.205 4.135 5.561 4.871 10.654a55.328 55.328 0 001.831 8.977c2.03 6.566 1.736 12.065-.786 14.758a4.943 4.943 0 01-4.976 1.296 5.504 5.504 0 01-1.447-.557 16.417 16.417 0 01-4.812-5.533 21.009 21.009 0 00-6.945-7.478l-.162-.175-.175-.188a20.979 20.979 0 00-9.968-1.97 16.49 16.49 0 01-7.326-1.073 5.645 5.645 0 01-1.249-.94 4.892 4.892 0 01-1.399-2.273 4.937 4.937 0 01-.006-2.674c.971-3.552 5.537-6.668 12.285-8.409a56.058 56.058 0 008.684-3.063c4.794-1.952 7.877-3.365 11.672-1.388l-.092.036zm.942-1.826c-7.016-3.686-12.251 1.901-21.805 4.298-14.017 3.515-16.493 11.991-11.765 16.677.497.509 1.067.94 1.691 1.28 4.795 2.674 11.87.204 17.198 3.183l.15.161.074.08.113.121c5.326 3.03 6.936 10.362 11.742 13.05.604.32 1.244.565 1.908.729 6.5 1.589 12.46-4.921 8.192-18.686-2.894-9.39-.826-16.737-7.645-20.807l.147-.086zm-21.105-24.184c2.747 1.524 4.866 5.483 5.378 10.009a15.812 15.812 0 01-1.25 8.662 5.834 5.834 0 01-4.075 3.509 4.144 4.144 0 01-2.563-.569c-2.747-1.525-4.866-5.483-5.378-10.01a15.817 15.817 0 011.249-8.661 5.84 5.84 0 014.075-3.51c.896-.1 1.798.1 2.564.57zm.992-1.772a6.16 6.16 0 00-3.789-.807c-4.778.562-7.955 7.013-7.101 14.422.621 5.375 3.19 9.765 6.408 11.553a6.162 6.162 0 003.789.807c4.778-.562 7.955-7.013 7.102-14.423-.621-5.374-3.191-9.764-6.409-11.552zm51.918 31.426a4.129 4.129 0 011.808 1.946c1.496 3.288-2.013 8.246-7.677 10.856-4.155 1.909-8.609 2.17-11.407.591a4.379 4.379 0 01-1.807-1.946c-1.496-3.287 2.026-8.258 7.676-10.856 4.169-1.921 8.61-2.17 11.407-.591zm.925-1.709c-3.192-1.787-8.277-1.691-13.187.569-6.789 3.129-10.678 9.192-8.679 13.562a6.297 6.297 0 002.656 2.859c3.205 1.775 8.29 1.678 13.2-.581 6.775-3.117 10.664-9.18 8.666-13.55a6.176 6.176 0 00-2.656-2.859zm-28.101-37.317c3.217 1.788 4.114 7.757 2.066 13.585a16.621 16.621 0 01-5.213 7.692 6.21 6.21 0 01-2.607 1.447 6.176 6.176 0 01-2.975.062 4.002 4.002 0 01-.639-.282c-3.204-1.801-4.114-7.757-2.067-13.585a16.629 16.629 0 015.214-7.692 6.28 6.28 0 012.661-1.448 6.251 6.251 0 013.024-.031c.219.075.428.173.625.294l-.089-.042zm1.055-1.73a6.276 6.276 0 00-.958-.41c-4.782-1.66-10.774 3.004-13.378 10.424-2.415 6.919-1.073 13.774 2.984 16.032.303.167.619.309.945.423 4.782 1.66 10.774-3.004 13.391-10.436 2.428-6.906 1.06-13.762-2.984-16.033zm20.765 13.948c.21.112.405.25.582.41 2.997 2.442 1.954 8.838-2.262 13.953-3.917 4.763-9.505 7.102-12.67 5.29a4.22 4.22 0 01-.595-.397 6.22 6.22 0 01-1.483-2.563 6.255 6.255 0 01-.133-2.963 16.764 16.764 0 013.892-8.44c3.916-4.763 9.491-7.09 12.669-5.29zm1.055-1.705c-4.045-2.245-10.598.165-15.25 5.811-5.008 6.076-5.901 13.607-1.959 16.823.272.233.569.435.886.602 4.043 2.272 10.61-.151 15.249-5.785 5.021-6.088 5.914-13.619 1.959-16.822a7.09 7.09 0 00-.886-.603l.001-.026z"/></g><g opacity=".2" clip-path="url(#clip4_505_210)" fill="#25666A"><path d="M223.572 265.535c-8.081-3.713-13.573 2.804-24.073 6.016-15.421 4.692-17.62 14.268-12.007 19.253 5.614 4.986 14.72.464 21.673 3.938l.125.083c7.095 3.339 9.131 13.355 16.406 14.719 7.276 1.364 13.636-6.263 7.86-21.296-3.917-10.245-2.109-18.574-9.984-22.713zm-16.368-15.357c1.465 8.205-1.663 15.579-6.949 16.484-5.285.905-10.767-5.014-12.22-13.237-1.452-8.224 1.664-15.58 6.968-16.473 5.303-.894 10.755 5.032 12.201 13.226zm38.485 18.977c-7.366 3.84-11.285 10.815-8.768 15.581 2.517 4.766 10.537 5.476 17.862 1.659 7.324-3.816 11.296-10.833 8.768-15.582-2.529-4.748-10.574-5.575-17.862-1.658zM231.861 243.4c-2.418 8.434-8.787 13.985-14.231 12.382-5.445-1.602-7.917-9.686-5.511-18.102 2.407-8.416 8.775-13.967 14.232-12.382 5.456 1.585 7.869 9.757 5.51 18.102zm4.071 2.12c-5.164 7.068-5.655 15.506-1.068 18.863 4.586 3.357 12.495.364 17.677-6.692s5.655-15.506 1.086-18.851c-4.568-3.345-12.513-.376-17.695 6.68z"/></g><g opacity=".2" clip-path="url(#clip5_505_210)" fill="#25666A"><path d="M58.563 336.757c-8.66 2.028-8.995 10.545-15.313 19.525-9.294 13.17-5.153 22.08 2.339 22.57 7.491.49 11.905-8.669 19.527-10.194l.15-.011c7.65-1.719 15.405 4.939 21.986 1.55 6.581-3.389 6.92-13.314-6.867-21.637-9.38-5.684-13.065-13.369-21.822-11.803zm-22.349-2.078c6.193 5.579 8.25 13.321 4.632 17.28-3.617 3.959-11.578 2.649-17.772-2.951-6.195-5.6-8.249-13.32-4.61-17.281 3.638-3.96 11.579-2.628 17.75 2.952zm42.03-8.639c-3.458 7.552-2.27 15.465 2.642 17.683 4.913 2.217 11.68-2.146 15.12-9.654 3.44-7.509 2.269-15.487-2.642-17.683-4.911-2.197-11.77 2.088-15.12 9.654zM51.52 314.194c3.267 8.143 1.647 16.434-3.635 18.511-5.282 2.077-12.195-2.787-15.461-10.909-3.266-8.121-1.646-16.412 3.635-18.51 5.28-2.098 12.201 2.872 15.46 10.908zm4.515-.825c.261 8.75 5.053 15.712 10.734 15.548 5.682-.165 10.089-7.383 9.849-16.134-.24-8.751-5.053-15.712-10.713-15.549-5.66.164-10.11 7.384-9.87 16.135z"/></g><defs><clipPath id="clip0_505_210"><path fill="#fff" transform="rotate(33.627 107.152 354.596)" d="M0 0h82v80H0z"/></clipPath><clipPath id="clip1_505_210"><path fill="#fff" transform="rotate(47.116 -466.255 386.111)" d="M0 0h71v75H0z"/></clipPath><clipPath id="clip2_505_210"><path fill="#fff" transform="rotate(47.116 -113.571 124.52)" d="M0 0h71v75H0z"/></clipPath><clipPath id="clip3_505_210"><path fill="#fff" transform="rotate(47.116 -329.658 505.334)" d="M0 0h71v75H0z"/></clipPath><clipPath id="clip4_505_210"><path fill="#fff" transform="rotate(33.627 -242.325 452.978)" d="M0 0h82v80H0z"/></clipPath><clipPath id="clip5_505_210"><path fill="#fff" transform="rotate(-4.237 4076.422 -38.709)" d="M0 0h82v80H0z"/></clipPath></defs></svg>