<svg width="1918" height="609" fill="none" xmlns="http://www.w3.org/2000/svg"><g clip-path="url(#clip0_55_688)"><path d="M1268.94 603.995h289.55c1.23 0 2.31 1.03 2.31 2.189s-1.08 2.189-2.31 2.189h-289.55c-1.22 0-2.31-1.03-2.31-2.189 0-1.288 1.09-2.189 2.31-2.189zm320.98 0h311.59c1.22 0 2.31 1.03 2.31 2.189s-1.09 2.189-2.31 2.189h-311.59c-1.22 0-2.31-1.03-2.31-2.189 0-1.288 1.09-2.189 2.31-2.189zm-652.429 0h65.719c1.22 0 2.31 1.03 2.31 2.189s-1.09 2.189-2.31 2.189h-65.719c-1.224 0-2.313-1.03-2.313-2.189 0-1.288.953-2.189 2.313-2.189zm107.359 0h127.49c1.22 0 2.31 1.03 2.31 2.189s-1.09 2.189-2.31 2.189h-127.49c-1.23 0-2.32-1.03-2.32-2.189 0-1.288.96-2.189 2.32-2.189zm-65.587-199.051c1.497 0 2.993-.386 4.354-1.288l84.363-52.788 84.36 52.788c1.77 1.159 3.94 1.545 5.98 1.03 2.04-.386 3.81-1.545 5.04-3.218 1.22-1.674 1.63-3.734 1.09-5.666-.41-1.931-1.64-3.605-3.41-4.763l-88.57-55.364c-1.36-.901-3-1.288-4.63-1.288s-3.26.387-4.63 1.288l-88.573 55.364c-3.674 2.317-4.626 6.952-2.313 10.429 1.768 2.317 4.354 3.476 6.939 3.476zm88.717-58.84c-.41 0-.96.129-1.23.386l-85.718 53.561c-1.497.902-3.538.515-4.626-.901-.953-1.416-.545-3.348.952-4.378l88.582-55.363c.54-.386 1.22-.515 1.9-.515h.14c.68 0 1.36.129 1.9.515l88.58 55.363c.68.515 1.22 1.159 1.36 1.932.14.772 0 1.674-.41 2.317-.54.644-1.22 1.159-2.04 1.288-.82.129-1.77 0-2.45-.386l-85.72-53.562c-.27-.128-.81-.257-1.22-.257zm200.15 157.722c1.22 0 2.45-.386 3.53-1.03l60.14-37.596 60.28 37.596c1.36.901 3.13 1.159 4.77.901 1.63-.386 3.13-1.287 4.08-2.575 1.9-2.704 1.09-6.566-1.77-8.369l-63.55-39.656c-1.08-.643-2.31-1.03-3.67-1.03-1.36 0-2.58.258-3.67 1.03l-63.55 39.656c-2.85 1.803-3.67 5.537-1.76 8.369.95 1.288 2.31 2.189 4.08 2.575.13.129.54.129 1.09.129zm63.67-43.39c-.4 0-.95.129-1.22.387l-61.5 38.368c-.41.257-.82.257-1.23.257a3 3 0 01-1.08-.643c-.28-.387-.28-.773-.28-1.159.14-.386.41-.773.68-1.03l63.55-39.656c.4-.258.81-.258.95-.258h.13c.28 0 .68 0 .96.258l63.54 39.656c.41.257.68.644.68 1.03.14.386 0 .901-.27 1.159-.27.386-.68.643-1.09.643-.41.129-.95 0-1.22-.257l-61.51-38.368c-.27-.258-.68-.387-1.09-.387z" fill="#F0F0F0"/><path d="M988.107 467.904h160.423c1.22 0 2.31-1.03 2.31-2.189v-67.08c0-1.159-1.09-2.189-2.31-2.189-1.23 0-2.32 1.03-2.32 2.189v64.891H990.42v-65.277c0-1.159-1.088-2.189-2.313-2.189s-2.313 1.03-2.313 2.189v67.466c0 1.159.952 2.189 2.313 2.189zm0 121.285h160.423c1.22 0 2.31-1.03 2.31-2.189v-90.642c0-1.159-1.09-2.189-2.31-2.189-1.23 0-2.32 1.03-2.32 2.189v88.453H990.42v-88.968c0-1.159-1.088-2.189-2.313-2.189s-2.313 1.03-2.313 2.189V587c0 1.287.952 2.189 2.313 2.189z" fill="#F0F0F0"/><path d="M1068.25 400.437c9.52 0 17.42-7.338 17.42-16.48 0-9.013-7.76-16.48-17.42-16.48-9.53 0-17.42 7.339-17.42 16.48.14 9.142 7.89 16.48 17.42 16.48zm0-28.454c7.07 0 12.79 5.408 12.79 12.103 0 6.695-5.72 12.103-12.79 12.103-7.08 0-12.79-5.408-12.79-12.103.14-6.695 5.85-12.103 12.79-12.103z" fill="#F0F0F0"/><path d="M1068.25 400.437c1.22 0 2.31-1.03 2.31-2.188v-28.455c0-1.158-1.09-2.189-2.31-2.189-1.23 0-2.31 1.031-2.31 2.189v28.455c0 1.158 1.08 2.188 2.31 2.188z" fill="#F0F0F0"/><path d="M1053.42 386.146h29.93c1.23 0 2.32-1.03 2.32-2.189s-1.09-2.189-2.32-2.189h-29.93c-1.23 0-2.32 1.03-2.32 2.189 0 1.288.96 2.189 2.32 2.189z" fill="#F0F0F0"/><path d="M1334.01 513.208c9.53 0 17.42-7.339 17.42-16.48 0-9.013-7.76-16.48-17.42-16.48-9.52 0-17.41 7.338-17.41 16.48 0 9.141 7.89 16.48 17.41 16.48z" fill="#FFE2C0" fill-opacity=".39"/><path d="M1331.53 511.422c9.53 0 17.42-7.339 17.42-16.48 0-9.013-7.75-16.481-17.42-16.481-9.52 0-17.41 7.339-17.41 16.481 0 9.141 7.89 16.48 17.41 16.48zm0-28.454c7.08 0 12.8 5.407 12.8 12.103 0 6.695-5.72 12.102-12.8 12.102-7.07 0-12.79-5.407-12.79-12.102 0-6.696 5.72-12.103 12.79-12.103z" fill="#F0F0F0"/><path d="M1331.53 511.422c1.23 0 2.32-1.03 2.32-2.189v-28.454c0-1.159-1.09-2.189-2.32-2.189-1.22 0-2.31 1.03-2.31 2.189v28.454c0 1.288 1.09 2.189 2.31 2.189z" fill="#F0F0F0"/><path d="M1316.57 497.259h29.93c1.23 0 2.32-1.03 2.32-2.188 0-1.159-1.09-2.189-2.32-2.189h-29.93c-1.23 0-2.32 1.03-2.32 2.189 0 1.158 1.09 2.188 2.32 2.188zm-221.52-52.016h27.08c1.23 0 2.31-1.03 2.31-2.188v-25.622c0-1.159-1.08-2.189-2.31-2.189h-27.08c-1.22 0-2.31 1.03-2.31 2.189v25.622c0 1.158 1.09 2.188 2.31 2.188zm24.77-4.506h-22.45v-21.244h22.45v21.244zm-106.4 4.506h27.07c1.23 0 2.32-1.03 2.32-2.188v-25.622c0-1.159-1.09-2.189-2.32-2.189h-27.07c-1.23 0-2.32 1.03-2.32 2.189v25.622c-.13 1.158.95 2.188 2.32 2.188zm24.62-4.506h-22.45v-21.244h22.45v21.244z" fill="#F0F0F0"/><path d="M984.195 503.165h185.185c.82 0 1.5-.386 1.9-.901.41-.644.55-1.287.28-2.06l-11.98-30.128c-.27-.901-1.22-1.416-2.17-1.416H996.169c-.952 0-1.769.515-2.177 1.416l-11.974 30.128c-.272.644-.136 1.416.272 2.06a2.429 2.429 0 001.905.901z" fill="#FFD3C0" fill-opacity=".39"/><path d="M975.725 498.032h185.185c.82 0 1.5-.386 1.9-.901.41-.644.55-1.288.28-2.06l-11.98-30.128c-.27-.902-1.22-1.417-2.17-1.417H987.699c-.953 0-1.769.515-2.177 1.417l-11.974 30.128c-.272.644-.136 1.416.272 2.06a2.429 2.429 0 001.905.901zm181.785-4.378H979.127l10.205-25.75H1147.3l10.21 25.75zm-72.12 95.535c1.23 0 2.32-1.03 2.32-2.189v-59.484h31.84V587c0 1.159 1.08 2.189 2.31 2.189 1.22 0 2.31-1.03 2.31-2.189v-61.673c0-1.158-1.09-2.188-2.31-2.188h-36.33c-1.36 0-2.45 1.03-2.45 2.317v61.673c0 1.159 1.09 2.06 2.31 2.06zm-72.38-40.3h47.21c1.23 0 2.31-1.03 2.31-2.188v-33.476c0-1.159-1.08-2.189-2.31-2.189h-47.21c-1.23 0-2.32 1.03-2.32 2.189v33.476c0 1.158 1.09 2.188 2.32 2.188zm44.9-4.377h-42.45v-29.098h42.45v29.098z" fill="#F0F0F0"/><path d="M1013.42 522.109h46.8c1.23 0 2.31-1.03 2.31-2.189s-1.08-2.189-2.31-2.189h-46.8c-1.23 0-2.32 1.03-2.32 2.189-.13 1.159.95 2.189 2.32 2.189zm81.63-96.436h27.08c1.23 0 2.31-1.03 2.31-2.189s-1.08-2.189-2.31-2.189h-27.08c-1.22 0-2.31 1.03-2.31 2.189s1.09 2.189 2.31 2.189zm-81.63 0h27.07c1.23 0 2.32-1.03 2.32-2.189s-1.09-2.189-2.32-2.189h-27.07c-1.23 0-2.32 1.03-2.32 2.189s.95 2.189 2.32 2.189zm541.12 112.401c.41 0 .82 0 1.09-.129 1.5-.257 2.72-1.03 3.54-2.189 1.63-2.446.95-5.665-1.63-7.21l-50.62-31.673c-.95-.644-2.04-.901-3.13-.901-1.09 0-2.17.257-3.13.901l-50.61 31.673c-2.59 1.545-3.27 4.893-1.64 7.21.82 1.159 2.05 1.932 3.54 2.189 1.5.258 3 0 4.22-.772l47.62-29.742 47.63 29.742c.95.515 2.04.901 3.12.901zm-50.61-37.725c.13 0 .27 0 .54.129l50.48 31.544c.41.258.55.773.28 1.159-.14.258-.41.386-.55.386-.14 0-.41 0-.68-.128l-48.98-30.643c-.82-.515-1.77-.515-2.59 0l-48.98 30.643c-.27.128-.55.128-.68.128-.14 0-.41-.128-.55-.386-.27-.386-.13-.901.28-1.159l50.61-31.673c.14-.128.41-.128.55-.128.13.128.13.128.27.128z" fill="#F0F0F0"/><path d="M1503.66 534.469c4.76 0 8.57-3.605 8.57-8.111 0-4.507-3.81-8.112-8.57-8.112-4.77 0-8.58 3.605-8.58 8.112-.13 4.377 3.81 8.111 8.58 8.111zm0-11.974c2.17 0 3.94 1.674 3.94 3.734s-1.77 3.734-3.94 3.734c-2.18 0-3.95-1.674-3.95-3.734-.14-2.06 1.63-3.734 3.95-3.734z" fill="#F0F0F0"/><path d="M1458.76 588.932h89.53c1.22 0 2.31-1.03 2.31-2.189v-53.819c0-1.159-1.09-2.189-2.31-2.189-1.23 0-2.32 1.03-2.32 2.189v51.63h-84.9v-51.63c0-1.159-1.09-2.189-2.31-2.189-1.23 0-2.32 1.03-2.32 2.189v53.819c0 1.159 1.09 2.189 2.32 2.189z" fill="#F0F0F0"/><path d="M1473.86 587.515c1.22 0 2.31-1.03 2.31-2.189v-39.913h55.11v39.913c0 1.159 1.09 2.189 2.31 2.189 1.23 0 2.31-1.03 2.31-2.189v-42.102c0-1.159-1.08-2.189-2.31-2.189h-59.73c-1.23 0-2.31 1.03-2.31 2.189v42.102c0 1.159 1.08 2.189 2.31 2.189z" fill="#F0F0F0"/><path d="M1473.86 550.821h59.73c.95 0 1.63-.644 1.63-1.545 0-.902-.68-1.546-1.63-1.546h-59.73c-.95 0-1.63.644-1.63 1.546 0 .772.81 1.545 1.63 1.545zm0 6.309h59.73c.95 0 1.63-.644 1.63-1.545 0-.902-.68-1.545-1.63-1.545h-59.73c-.95 0-1.63.643-1.63 1.545 0 .901.81 1.545 1.63 1.545zm0 6.308h59.73c.95 0 1.63-.644 1.63-1.545 0-.901-.68-1.545-1.63-1.545h-59.73c-.95 0-1.63.644-1.63 1.545 0 .901.81 1.545 1.63 1.545zm0 6.309h59.73c.95 0 1.63-.643 1.63-1.545 0-.901-.68-1.545-1.63-1.545h-59.73c-.95 0-1.63.644-1.63 1.545 0 .902.81 1.545 1.63 1.545zm0 6.309h59.73c.95 0 1.63-.644 1.63-1.545 0-.901-.68-1.545-1.63-1.545h-59.73c-.95 0-1.63.644-1.63 1.545 0 .901.81 1.545 1.63 1.545zm0 6.438h59.73c.95 0 1.63-.644 1.63-1.545 0-.901-.68-1.545-1.63-1.545h-59.73c-.95 0-1.63.644-1.63 1.545 0 .772.81 1.545 1.63 1.545zm125.04 11.459c1.23 0 2.31-1.03 2.31-2.189V486.959c0-1.158-1.08-2.188-2.31-2.188-1.22 0-2.31 1.03-2.31 2.188v104.805c0 1.287 1.09 2.189 2.31 2.189z" fill="#F0F0F0"/><path d="M1598.9 508.718c.55 0 1.23-.257 1.63-.643l9.12-8.627c.95-.901.95-2.189 0-3.09-.95-.901-2.31-.901-3.26 0l-9.12 8.627c-.95.901-.95 2.188 0 3.09.41.386 1.09.643 1.63.643zm0 15.966c.41 0 .95-.129 1.36-.387 1.09-.643 1.36-2.06.55-3.09l-9.94-13.519c-.68-1.03-2.17-1.287-3.26-.515-1.09.644-1.36 2.06-.55 3.09l9.94 13.519c.4.644 1.22.902 1.9.902z" fill="#F0F0F0"/><path d="M1598.63 552.881c.14 0 .41 0 .54-.129.55-.129 13.34-3.477 17.96-20.343 4.63-17.124-5.03-75.707-14.28-86.908-.95-1.159-1.91-1.931-3-2.318a2.675 2.675 0 00-1.08-.257h-.41c-.41 0-.68.129-1.09.257-1.09.387-2.04 1.159-2.99 2.318-9.26 11.33-18.92 69.784-14.29 86.908 4.49 16.866 17.42 20.214 17.96 20.343.27.129.54.129.68.129zm0-105.32c2.04 1.545 6.94 11.588 11.29 36.051 3.68 20.858 4.77 40.042 2.72 47.896-3.4 12.489-11.7 16.222-14.01 16.995-2.31-.773-10.61-4.506-14.02-16.995-2.04-7.854-.95-27.038 2.73-47.896 4.35-24.463 9.25-34.506 11.29-36.051zm-317.58 141.113h101.65c1.22 0 2.31-1.03 2.31-2.189v-91.157c0-1.159-1.09-2.189-2.31-2.189-1.23 0-2.32 1.03-2.32 2.189v88.968h-97.01v-88.968c0-1.159-1.09-2.189-2.32-2.189-1.22 0-2.31 1.03-2.31 2.189v91.157c0 1.159 1.09 2.189 2.31 2.189z" fill="#F0F0F0"/><path d="M1203.63 496.23h62.18c1.23 0 2.32-1.03 2.32-2.189s-1.09-2.189-2.32-2.189h-59.05l19.59-61.158h210.36l19.6 61.158h-58.51c-1.23 0-2.31 1.03-2.31 2.189s1.08 2.189 2.31 2.189h61.64c.68 0 1.36-.387 1.9-.902.41-.515.54-1.287.41-1.931l-20.96-65.535c-.27-.901-1.22-1.545-2.17-1.545h-213.76c-1.09 0-1.91.644-2.18 1.545l-20.95 65.535c-.28.644-.14 1.416.41 1.931.13.515.81.902 1.49.902z" fill="#F0F0F0"/><path d="M1213.97 588.674h236.21c1.23 0 2.32-1.03 2.32-2.189v-92.444c0-1.159-1.09-2.189-2.32-2.189-1.22 0-2.31 1.03-2.31 2.189v90.255h-231.58l-.41-90.255c0-1.159-1.09-2.189-2.31-2.189-1.23 0-2.32 1.03-2.32 2.189l.41 92.444c0 1.159 1.09 2.189 2.31 2.189z" fill="#F0F0F0"/><path d="M1313.57 588.674c1.23 0 2.32-1.03 2.32-2.189v-56.007H1348v54.848c0 1.159 1.09 2.189 2.31 2.189 1.23 0 2.32-1.03 2.32-2.189v-57.037c0-1.159-1.09-2.189-2.32-2.189h-36.74c-1.22 0-2.31 1.03-2.31 2.189v58.067c0 1.288 1.09 2.318 2.31 2.318zm89.26-33.991h27.08c1.22 0 2.31-1.03 2.31-2.189v-38.239c0-1.159-1.09-2.189-2.31-2.189h-27.08c-1.22 0-2.31 1.03-2.31 2.189v38.239c0 1.288 1.09 2.189 2.31 2.189zm24.77-4.378h-22.32v-33.862h22.45v33.862h-.13zm-193.35 4.378h27.07c1.23 0 2.32-1.03 2.32-2.189v-38.239c0-1.159-1.09-2.189-2.32-2.189h-27.07c-1.23 0-2.32 1.03-2.32 2.189v38.239c0 1.288.96 2.189 2.32 2.189zm24.76-4.378h-22.45v-33.862h22.45v33.862zm-124.63-171.112c1.22 0 2.31-1.03 2.31-2.189V345.46c0-1.159-1.09-2.189-2.31-2.189h-22.59c-1.22 0-2.31 1.03-2.31 2.189v17.382c0 1.158 1.09 2.188 2.31 2.188s2.31-1.03 2.31-2.188v-15.193h17.96v29.355c0 1.288.96 2.189 2.32 2.189z" fill="#F0F0F0"/><path d="M1113.15 347.649h20.41c3.81 0 6.8-2.962 6.8-6.438v-.129c0-3.605-3.13-6.437-6.8-6.437h-20.41c-3.81 0-6.8 2.961-6.8 6.437v.129c-.14 3.476 2.99 6.438 6.8 6.438zm20.27-8.755c1.23 0 2.18.901 2.18 2.06v.128c0 1.159-.95 2.06-2.18 2.06h-20.41c-1.22 0-2.17-.901-2.17-2.06v-.128c0-1.159.95-2.06 2.17-2.06h20.41zm25.31 249.78h52.25c1.23 0 2.31-1.03 2.31-2.189v-46.222c0-1.159-1.08-2.189-2.31-2.189h-52.25c-1.22 0-2.31 1.03-2.31 2.189v46.222c0 1.159 1.09 2.189 2.31 2.189zm49.94-4.506h-47.62v-41.845h47.62v41.845z" fill="#F0F0F0"/><path d="M1204.31 588.674c1.23 0 2.32-1.03 2.32-2.189v-46.222c0-1.159-1.09-2.189-2.32-2.189-1.22 0-2.31 1.03-2.31 2.189v46.222c0 1.159 1.09 2.189 2.31 2.189zm-7.62 0c1.23 0 2.32-1.03 2.32-2.189v-46.222c0-1.159-1.09-2.189-2.32-2.189-1.22 0-2.31 1.03-2.31 2.189v46.222c0 1.159.95 2.189 2.31 2.189zm-7.75 0c1.22 0 2.31-1.03 2.31-2.189v-46.222c0-1.159-1.09-2.189-2.31-2.189-1.23 0-2.31 1.03-2.31 2.189v46.222c0 1.159 1.08 2.189 2.31 2.189zm-7.76 0c1.23 0 2.32-1.03 2.32-2.189v-46.222c0-1.159-1.09-2.189-2.32-2.189-1.22 0-2.31 1.03-2.31 2.189v46.222c0 1.159 1.09 2.189 2.31 2.189zm-7.62 0c1.23 0 2.32-1.03 2.32-2.189v-46.222c0-1.159-1.09-2.189-2.32-2.189-1.22 0-2.31 1.03-2.31 2.189v46.222c0 1.159.95 2.189 2.31 2.189zm-7.75 0c1.22 0 2.31-1.03 2.31-2.189v-46.222c0-1.159-1.09-2.189-2.31-2.189-1.23 0-2.32 1.03-2.32 2.189v46.222c0 1.159 1.09 2.189 2.32 2.189zm407.1 19.699c1.23 0 2.32-1.03 2.32-2.189v-50.986c0-1.159-1.09-2.189-2.32-2.189-1.22 0-2.31 1.03-2.31 2.189v50.986c0 1.159 1.09 2.189 2.31 2.189z" fill="#F0F0F0"/><path d="M1572.91 566.657c.55 0 1.23-.258 1.64-.644l5.3-4.893c.96-.901.96-2.188 0-3.09-.95-.901-2.31-.901-3.26 0l-5.31 4.893c-.95.901-.95 2.189 0 3.09.41.386 1.09.644 1.63.644zm0 8.884c.41 0 .96-.129 1.36-.386 1.09-.644 1.36-2.06.68-3.09l-6.25-8.884c-.68-1.03-2.18-1.288-3.27-.644-1.09.644-1.36 2.06-.68 3.09l6.26 8.884c.41.644 1.22 1.03 1.9 1.03z" fill="#F0F0F0"/><path d="M1572.91 582.236c11.84 0 21.37-9.141 21.37-20.214 0-11.202-9.66-20.214-21.37-20.214-11.83 0-21.36 9.141-21.36 20.214 0 11.073 9.53 20.214 21.36 20.214zm0-36.18c9.26 0 16.74 7.082 16.74 15.837 0 8.755-7.48 15.837-16.74 15.837-9.25 0-16.73-7.082-16.73-15.837 0-8.626 7.48-15.837 16.73-15.837zm167.05-150.254c-2.59 0-5.17-1.158-6.67-3.347-2.45-3.476-1.36-8.112 2.32-10.429l88.57-55.364c1.36-.901 3-1.287 4.63-1.287s3.27.386 4.63 1.287l88.57 55.364c3.68 2.317 4.63 6.953 2.32 10.429-2.45 3.476-7.35 4.377-11.02 2.189l-84.36-52.789-84.36 52.789c-1.64.772-3.13 1.158-4.63 1.158zm-1.91-10.042c-1.49.901-1.9 2.832-.95 4.377.95 1.417 3 1.803 4.63.902l85.72-53.561c.82-.515 1.77-.515 2.58 0l85.72 53.561c1.5.901 3.54.515 4.63-.902.95-1.416.55-3.347-.95-4.377l-88.58-55.364c-.54-.386-1.22-.515-1.9-.515h-.14c-.68 0-1.36.129-1.91.515l-88.85 55.364z" fill="#F0F0F0"/><path d="M1909.22 589.704H1748.8c-1.22 0-2.31-1.03-2.31-2.189V389.236c0-1.159 1.09-2.189 2.31-2.189 1.23 0 2.32 1.03 2.32 2.189v196.09h155.79v-195.06c0-1.159 1.09-2.189 2.31-2.189 1.23 0 2.32 1.03 2.32 2.189v197.12c0 1.288-.96 2.318-2.32 2.318z" fill="#F0F0F0"/><path d="M1829.08 391.425c-9.52 0-17.41-7.339-17.41-16.481 0-9.012 7.75-16.48 17.41-16.48 9.53 0 17.42 7.339 17.42 16.48-.14 9.013-7.89 16.481-17.42 16.481zm0-28.583c-7.07 0-12.79 5.407-12.79 12.102 0 6.696 5.72 12.103 12.79 12.103 7.08 0 12.79-5.407 12.79-12.103-.13-6.695-5.85-12.102-12.79-12.102z" fill="#F0F0F0"/><path d="M1829.08 391.425c-1.22 0-2.31-1.03-2.31-2.189v-28.454c0-1.159 1.09-2.189 2.31-2.189 1.23 0 2.32 1.03 2.32 2.189v28.454c0 1.159-1.09 2.189-2.32 2.189z" fill="#F0F0F0"/><path d="M1844.05 377.133h-29.94c-1.22 0-2.31-1.03-2.31-2.189 0-1.158 1.09-2.188 2.31-2.188h29.94c1.22 0 2.31 1.03 2.31 2.188 0 1.159-.95 2.189-2.31 2.189zm40.14 92.316h-30.07c-1.23 0-2.32-1.03-2.32-2.189v-47.767c0-1.159 1.09-2.189 2.32-2.189h30.07c1.22 0 2.31 1.03 2.31 2.189v47.767c0 1.159-1.09 2.189-2.31 2.189zm-27.76-4.378h25.44v-43.389h-25.44v43.389z" fill="#F0F0F0"/><path d="M1884.19 444.728h-30.07c-1.23 0-2.32-1.03-2.32-2.189 0-1.158 1.09-2.188 2.32-2.188h30.07c1.22 0 2.31 1.03 2.31 2.188 0 1.288-1.09 2.189-2.31 2.189zm-40.14 24.721h-30.07c-1.23 0-2.31-1.03-2.31-2.189v-47.767c0-1.159 1.08-2.189 2.31-2.189h30.07c1.22 0 2.31 1.03 2.31 2.189v47.767c0 1.159-.95 2.189-2.31 2.189zm-27.76-4.378h25.45v-43.389h-25.45v43.389z" fill="#F0F0F0"/><path d="M1844.05 444.728h-30.07c-1.23 0-2.31-1.03-2.31-2.189 0-1.158 1.08-2.188 2.31-2.188h30.07c1.22 0 2.31 1.03 2.31 2.188 0 1.288-.95 2.189-2.31 2.189z" fill="#F0F0F0"/><path d="M1888.07 495.698h-31.3v46.351h31.3v-46.351z" fill="#FFE2C0" fill-opacity=".39"/><path d="M1883.51 542.323h-30.07c-1.23 0-2.32-1.03-2.32-2.189v-47.767c0-1.159 1.09-2.189 2.32-2.189h30.07c1.22 0 2.31 1.03 2.31 2.189v47.767c0 1.288-1.09 2.189-2.31 2.189zm-27.76-4.378h25.44v-43.389h-25.44v43.389z" fill="#F0F0F0"/><path d="M1883.51 517.731h-30.07c-1.23 0-2.32-1.03-2.32-2.189 0-1.158 1.09-2.188 2.32-2.188h30.07c1.22 0 2.31 1.03 2.31 2.188 0 1.159-1.09 2.189-2.31 2.189zm-40.01 24.592h-30.07c-1.22 0-2.31-1.03-2.31-2.189v-47.767c0-1.159 1.09-2.189 2.31-2.189h30.07c1.23 0 2.32 1.03 2.32 2.189v47.767c0 1.288-1.09 2.189-2.32 2.189zm-27.75-4.378h25.44v-43.389h-25.44v43.389z" fill="#F0F0F0"/><path d="M1843.5 517.731h-30.07c-1.22 0-2.31-1.03-2.31-2.189 0-1.158 1.09-2.188 2.31-2.188h30.07c1.23 0 2.32 1.03 2.32 2.188 0 1.159-1.09 2.189-2.32 2.189z" fill="#F0F0F0"/><path d="M1809.15 422.309h-31.3v46.351h31.3v-46.351z" fill="#FFE2C0" fill-opacity=".39"/><path d="M1804.32 469.449h-30.07c-1.23 0-2.32-1.03-2.32-2.189v-47.767c0-1.159 1.09-2.189 2.32-2.189h30.07c1.22 0 2.31 1.03 2.31 2.189v47.767c0 1.159-.95 2.189-2.31 2.189zm-27.76-4.378h25.45v-43.389h-25.45v43.389z" fill="#F0F0F0"/><path d="M1804.32 444.728h-30.07c-1.23 0-2.32-1.03-2.32-2.189 0-1.158 1.09-2.188 2.32-2.188h30.07c1.22 0 2.31 1.03 2.31 2.188 0 1.288-.95 2.189-2.31 2.189zm-.55 97.595h-30.07c-1.22 0-2.31-1.03-2.31-2.189v-47.767c0-1.159 1.09-2.189 2.31-2.189h30.07c1.23 0 2.32 1.03 2.32 2.189v47.767c0 1.288-1.09 2.189-2.32 2.189zm-27.75-4.378h25.44v-43.389h-25.44v43.389z" fill="#F0F0F0"/><path d="M1803.77 517.731h-30.07c-1.22 0-2.31-1.03-2.31-2.189 0-1.158 1.09-2.188 2.31-2.188h30.07c1.23 0 2.32 1.03 2.32 2.188 0 1.159-1.09 2.189-2.32 2.189zM1748.8 403.27h-116.74c-.95 0-1.77-.515-2.18-1.288-.4-.772-.27-1.673.41-2.317l60.55-66.308c.41-.515 1.09-.772 1.77-.772h123c1.23 0 2.31 1.03 2.31 2.189 0 1.158-1.08 2.188-2.31 2.188H1693.7l-56.6 61.93h111.7c1.23 0 2.32 1.03 2.32 2.189s-1.09 2.189-2.32 2.189z" fill="#F0F0F0"/><path opacity=".4" d="M1806.43 335.401h-120.42l-71.43 66.307h127.9v-11.587l-14.97 3.218v-9.012l78.92-48.926z" fill="#EEFFD1"/><path d="M1748.8 589.704h-111.16c-1.23 0-2.31-1.03-2.31-2.189V401.081c0-1.159 1.08-2.189 2.31-2.189 1.22 0 2.31 1.03 2.31 2.189v184.245h108.85c1.23 0 2.32 1.03 2.32 2.189s-1.09 2.189-2.32 2.189z" fill="#F0F0F0"/><path d="M1717.37 589.704c-1.22 0-2.31-1.03-2.31-2.189v-74.676h-44.09v74.676c0 1.159-1.08 2.189-2.31 2.189-1.22 0-2.31-1.03-2.31-2.189V510.65c0-1.159 1.09-2.189 2.31-2.189h48.71c1.23 0 2.32 1.03 2.32 2.189v76.865c0 1.159-1.09 2.189-2.32 2.189zm12.52-136.864h-72.39c-1.22 0-2.31-1.03-2.31-2.189v-31.158c0-1.159 1.09-2.189 2.31-2.189h72.53c1.22 0 2.31 1.03 2.31 2.189v31.158c-.14 1.159-1.09 2.189-2.45 2.189zm-70.07-4.378h67.89v-26.78h-67.89v26.78z" fill="#F0F0F0"/><path d="M1729.89 427.604h-72.39c-1.22 0-2.31-1.03-2.31-2.189 0-1.158 1.09-2.188 2.31-2.188h72.53c1.22 0 2.31 1.03 2.31 2.188-.14 1.159-1.09 2.189-2.45 2.189z" fill="#F0F0F0"/><path d="M1693.7 452.84c-1.23 0-2.32-1.03-2.32-2.189V425.93c0-1.158 1.09-2.188 2.32-2.188 1.22 0 2.31 1.03 2.31 2.188v24.721c0 1.159-1.09 2.189-2.31 2.189zm-271.41-201.627h48.17c13.33 0 24.22-10.3 24.22-22.918 0-11.716-9.26-21.373-21.23-22.789-2.45-10.043-12.25-17.51-23.27-17.51-11.29 0-20.95 7.467-23.4 17.767-1.5-.257-2.99-.386-4.49-.386-13.33 0-24.22 10.3-24.22 22.918 0 12.618 10.89 22.918 24.22 22.918zm27.89-58.84c9.53 0 17.69 6.695 19.05 15.451l.27 1.802 1.91.129c10.48.386 18.64 8.626 18.64 18.54 0 10.172-8.84 18.541-19.59 18.541h-48.17c-10.75 0-19.59-8.369-19.59-18.541 0-10.171 8.84-18.54 19.59-18.54 1.91 0 3.81.257 5.71.772l2.73.773.27-2.575c1.09-9.399 9.25-16.352 19.18-16.352zm-188.31 108.281h48.17c13.33 0 24.22-10.3 24.22-22.918 0-12.618-10.89-22.918-24.22-22.918-1.5 0-3 .129-4.49.386-2.32-10.3-11.98-17.767-23.41-17.767-11.15 0-20.82 7.467-23.26 17.51-12.11 1.416-21.23 11.073-21.23 22.789 0 12.618 10.88 22.918 24.22 22.918zm48.17-41.458c10.74 0 19.59 8.369 19.59 18.54 0 10.172-8.85 18.54-19.59 18.54h-48.17c-10.75 0-19.59-8.368-19.59-18.54 0-9.914 8.16-18.025 18.64-18.54l1.9-.129.27-1.803c1.36-8.883 9.66-15.45 19.05-15.45 9.94 0 18.1 6.953 19.19 16.223l.27 2.575 2.72-.773c1.91-.386 3.81-.643 5.72-.643zm-253.08-113.56c.27 14.678 12.51 26.266 28.02 26.523 15.52.258 27.76-12.231 28.03-26.523.28-14.678-12.92-26.266-28.03-26.523-15.51-.129-27.75 12.231-28.02 26.523 0 2.06-3.41 2.06-3.27 0 .27-13.648 9.8-25.364 23.68-28.841 13.87-3.476 28.71 3.219 35.37 15.065 6.81 11.974 3.4 27.166-7.21 36.179-10.75 9.141-27.21 9.528-38.78 1.803-8.3-5.537-12.92-14.678-13.06-24.077-.14-2.06 3.27-2.06 3.27-.129z" fill="#F0F0F0"/><path d="M811.932 169.696h45.854c12.79 0 23.131-9.785 23.131-21.888 0-12.103-10.341-21.888-23.131-21.888-1.361 0-2.721.129-4.218.386-2.313-9.785-11.429-16.866-22.315-16.866-10.613 0-19.865 7.081-22.314 16.609-11.566 1.287-20.274 10.558-20.274 21.759.136 11.974 10.613 21.888 23.267 21.888z" fill="#DCEBF3" fill-opacity=".39"/><path d="M803.768 167.121h45.854c12.79 0 23.131-9.785 23.131-21.888 0-12.103-10.341-21.888-23.131-21.888-1.361 0-2.721.129-4.218.386-2.313-9.785-11.429-16.866-22.314-16.866-10.613 0-19.866 7.081-22.315 16.609-11.565 1.287-20.274 10.558-20.274 21.759.136 11.974 10.613 21.888 23.267 21.888zm45.854-39.527c10.205 0 18.505 7.854 18.505 17.51 0 9.657-8.3 17.511-18.505 17.511h-45.854c-10.204 0-18.504-7.854-18.504-17.511 0-9.399 7.755-17.124 17.688-17.51l1.905-.129.272-1.802c1.361-8.369 9.116-14.678 17.961-14.678 9.388 0 17.144 6.566 18.096 15.321l.272 2.575 2.721-.772c1.905-.258 3.674-.515 5.443-.515z" fill="#F0F0F0"/><path d="M937.385 112.175h62.133c17.332 0 31.342-13.259 31.342-29.658 0-16.4-14.01-29.658-31.342-29.658-1.844 0-3.688.174-5.717.523-3.133-13.26-15.486-22.855-30.236-22.855-14.38 0-26.917 9.596-30.236 22.506-15.672 1.745-27.472 14.306-27.472 29.484.186 16.225 14.381 29.658 31.528 29.658z" fill="#DCEBF3" fill-opacity=".39"/><path d="M926.323 108.686h62.132c17.335 0 31.345-13.259 31.345-29.658 0-16.4-14.01-29.659-31.345-29.659-1.843 0-3.687.175-5.716.524-3.133-13.26-15.486-22.855-30.236-22.855-14.38 0-26.917 9.595-30.236 22.506-15.672 1.744-27.471 14.306-27.471 29.484.185 16.224 14.38 29.658 31.527 29.658zm62.132-53.56c13.825 0 25.075 10.643 25.075 23.727 0 13.085-11.25 23.727-25.075 23.727h-62.132c-13.828 0-25.074-10.642-25.074-23.727 0-12.735 10.508-23.203 23.968-23.727l2.581-.174.369-2.442c1.843-11.34 12.352-19.89 24.336-19.89 12.722 0 23.23 8.898 24.522 20.762l.368 3.489 3.688-1.047c2.581-.349 4.977-.698 7.374-.698zm722.425 204.456c1.23 0 2.32-1.03 2.32-2.189v-10.042c0-1.159-1.09-2.189-2.32-2.189-1.22 0-2.31 1.03-2.31 2.189v10.042c0 1.288 1.09 2.189 2.31 2.189zm0 35.021c1.23 0 2.32-1.03 2.32-2.189v-21.502c0-1.158-1.09-2.188-2.32-2.188-1.22 0-2.31 1.03-2.31 2.188v21.502c0 1.159 1.09 2.189 2.31 2.189zm-17.55 0c1.23 0 2.31-1.03 2.31-2.189v-10.043c0-1.158-1.08-2.188-2.31-2.188-1.22 0-2.31 1.03-2.31 2.188v10.043c0 1.159 1.09 2.189 2.31 2.189zm0-23.433c1.23 0 2.31-1.03 2.31-2.189v-21.502c0-1.158-1.08-2.188-2.31-2.188-1.22 0-2.31 1.03-2.31 2.188v21.502c0 1.159 1.09 2.189 2.31 2.189zM311.051 603.995h289.545c1.224 0 2.313 1.03 2.313 2.189s-1.089 2.189-2.313 2.189H311.051c-1.225 0-2.314-1.03-2.314-2.189 0-1.288 1.089-2.189 2.314-2.189zm320.976 0h311.587c1.225 0 2.313 1.03 2.313 2.189s-1.088 2.189-2.313 2.189H632.027c-1.225 0-2.313-1.03-2.313-2.189 0-1.288 1.088-2.189 2.313-2.189zm-652.43 0h65.719c1.224 0 2.313 1.03 2.313 2.189s-1.089 2.189-2.313 2.189h-65.72c-1.224 0-2.312-1.03-2.312-2.189 0-1.288.952-2.189 2.313-2.189zm107.354 0h127.493c1.224 0 2.313 1.03 2.313 2.189s-1.089 2.189-2.313 2.189H86.952c-1.225 0-2.314-1.03-2.314-2.189 0-1.288.953-2.189 2.313-2.189zM21.369 404.944c1.496 0 2.993-.386 4.354-1.288l84.36-52.788 84.359 52.788c1.769 1.159 3.946 1.545 5.987 1.03 2.041-.386 3.81-1.545 5.034-3.218 1.225-1.674 1.633-3.734 1.089-5.666-.408-1.931-1.633-3.605-3.402-4.763l-88.578-55.364c-1.36-.901-2.993-1.288-4.625-1.288-1.633 0-3.266.387-4.627 1.288l-88.578 55.364c-3.673 2.317-4.626 6.952-2.313 10.429 1.77 2.317 4.354 3.476 6.94 3.476zm88.714-58.84c-.409 0-.953.129-1.225.386l-85.72 53.561c-1.497.902-3.538.515-4.627-.901-.952-1.416-.544-3.348.953-4.378l88.578-55.363c.544-.386 1.224-.515 1.905-.515h.136c.68 0 1.36.129 1.904.515l88.578 55.363c.68.515 1.224 1.159 1.361 1.932.136.772 0 1.674-.409 2.317-.544.644-1.224 1.159-2.041 1.288-.816.129-1.768 0-2.449-.386l-85.72-53.562c-.272-.128-.816-.257-1.224-.257zm200.151 157.722c1.225 0 2.449-.386 3.538-1.03l60.14-37.596 60.277 37.596c1.361.901 3.129 1.159 4.762.901 1.633-.386 3.13-1.287 4.082-2.575 1.905-2.704 1.089-6.566-1.769-8.369l-63.542-39.656c-1.088-.643-2.313-1.03-3.674-1.03-1.36 0-2.585.258-3.673 1.03l-63.542 39.656c-2.858 1.803-3.674 5.537-1.769 8.369.952 1.288 2.313 2.189 4.082 2.575.136.129.544.129 1.088.129zm63.678-43.39c-.408 0-.952.129-1.224.387l-61.501 38.368c-.409.257-.817.257-1.225.257a2.985 2.985 0 01-1.088-.643c-.273-.387-.273-.773-.273-1.159a2.8 2.8 0 01.681-1.03l63.542-39.656c.408-.258.816-.258.952-.258h.136c.272 0 .681 0 .953.258l63.542 39.656c.408.257.68.644.68 1.03.136.386 0 .901-.272 1.159-.272.386-.68.643-1.088.643-.409.129-.953 0-1.225-.257l-61.501-38.368c-.272-.258-.68-.387-1.089-.387z" fill="#F0F0F0"/><path d="M38.95 466.084v-63.088l76.837-51.501 75.555 51.501v63.088H38.95z" fill="#FFCFC0" fill-opacity=".39"/><path d="M30.213 467.904h160.419c1.225 0 2.313-1.03 2.313-2.189v-67.08c0-1.159-1.088-2.189-2.313-2.189-1.224 0-2.313 1.03-2.313 2.189v64.891H32.526v-65.277c0-1.159-1.089-2.189-2.313-2.189-1.225 0-2.313 1.03-2.313 2.189v67.466c0 1.159.952 2.189 2.313 2.189zm0 121.285h160.419c1.225 0 2.313-1.03 2.313-2.189v-90.642c0-1.159-1.088-2.189-2.313-2.189-1.224 0-2.313 1.03-2.313 2.189v88.453H32.526v-88.968c0-1.159-1.089-2.189-2.313-2.189-1.225 0-2.313 1.03-2.313 2.189V587c0 1.287.952 2.189 2.313 2.189z" fill="#F0F0F0"/><path d="M110.384 400.421c9.301 0 17.008-7.167 17.008-16.094 0-8.802-7.573-16.094-17.008-16.094-9.301 0-17.008 7.166-17.008 16.094.133 8.927 7.707 16.094 17.008 16.094z" fill="#fff"/><path d="M110.355 400.437c9.524 0 17.415-7.338 17.415-16.48 0-9.013-7.755-16.48-17.415-16.48-9.525 0-17.416 7.339-17.416 16.48.136 9.142 7.891 16.48 17.416 16.48zm0-28.454c7.075 0 12.789 5.408 12.789 12.103 0 6.695-5.714 12.103-12.789 12.103-7.076 0-12.79-5.408-12.79-12.103.136-6.695 5.85-12.103 12.79-12.103z" fill="#F0F0F0"/><path d="M110.355 400.437c1.224 0 2.312-1.03 2.312-2.188v-28.455c0-1.158-1.088-2.189-2.312-2.189-1.225 0-2.313 1.031-2.313 2.189v28.455c0 1.158 1.088 2.188 2.313 2.188z" fill="#F0F0F0"/><path d="M95.524 386.146h29.933c1.225 0 2.313-1.03 2.313-2.189s-1.088-2.189-2.313-2.189H95.524c-1.225 0-2.313 1.03-2.313 2.189 0 1.288.952 2.189 2.313 2.189zM373.64 511.422c9.525 0 17.416-7.339 17.416-16.48 0-9.013-7.755-16.481-17.416-16.481-9.524 0-17.416 7.339-17.416 16.481 0 9.141 7.892 16.48 17.416 16.48zm0-28.454c7.076 0 12.79 5.407 12.79 12.103 0 6.695-5.714 12.102-12.79 12.102-7.075 0-12.79-5.407-12.79-12.102 0-6.696 5.715-12.103 12.79-12.103z" fill="#F0F0F0"/><path d="M373.64 511.422c1.225 0 2.313-1.03 2.313-2.189v-28.454c0-1.159-1.088-2.189-2.313-2.189-1.224 0-2.313 1.03-2.313 2.189v28.454c0 1.288 1.089 2.189 2.313 2.189z" fill="#F0F0F0"/><path d="M358.673 497.259h29.934c1.225 0 2.313-1.03 2.313-2.188 0-1.159-1.088-2.189-2.313-2.189h-29.934c-1.224 0-2.313 1.03-2.313 2.189 0 1.158 1.089 2.188 2.313 2.188z" fill="#F0F0F0"/><path d="M139.111 444.197h25.556c1.157 0 2.184-.972 2.184-2.067v-24.192c0-1.095-1.027-2.067-2.184-2.067h-25.556c-1.156 0-2.183.972-2.183 2.067v24.192c-.128 1.095.899 2.067 2.183 2.067z" fill="#fff"/><path d="M137.159 445.243h27.077c1.224 0 2.313-1.03 2.313-2.188v-25.622c0-1.159-1.089-2.189-2.313-2.189h-27.077c-1.225 0-2.313 1.03-2.313 2.189v25.622c0 1.158 1.088 2.188 2.313 2.188zm24.764-4.506h-22.451v-21.244h22.451v21.244z" fill="#F0F0F0"/><path d="M56.111 444.197h25.557c1.156 0 2.183-.972 2.183-2.067v-24.192c0-1.095-1.027-2.067-2.183-2.067H56.111c-1.155 0-2.183.972-2.183 2.067v24.192c-.128 1.095.9 2.067 2.184 2.067z" fill="#fff"/><path d="M55.52 445.243h27.078c1.224 0 2.313-1.03 2.313-2.188v-25.622c0-1.159-1.089-2.189-2.313-2.189H55.52c-1.225 0-2.313 1.03-2.313 2.189v25.622c-.136 1.158.952 2.188 2.313 2.188zm24.628-4.506h-22.45v-21.244h22.45v21.244zM17.83 498.032h185.184c.816 0 1.497-.386 1.905-.901.408-.644.544-1.288.272-2.06l-11.974-30.128c-.272-.902-1.224-1.417-2.177-1.417H29.805c-.953 0-1.77.515-2.177 1.417l-11.974 30.128c-.272.644-.136 1.416.272 2.06a2.427 2.427 0 001.905.901zm181.782-4.378H21.232l10.205-25.75h157.971l10.204 25.75zm-72.114 95.535c1.225 0 2.313-1.03 2.313-2.189v-59.484h31.839V587c0 1.159 1.089 2.189 2.314 2.189 1.224 0 2.313-1.03 2.313-2.189v-61.673c0-1.158-1.089-2.188-2.313-2.188h-36.33c-1.36 0-2.449 1.03-2.449 2.317v61.673c0 1.159 1.089 2.06 2.313 2.06zm-72.386-40.3h47.215c1.224 0 2.313-1.03 2.313-2.188v-33.476c0-1.159-1.089-2.189-2.313-2.189H55.112c-1.224 0-2.313 1.03-2.313 2.189v33.476c0 1.158 1.089 2.188 2.313 2.188zm44.902-4.377H57.562v-29.098h42.452v29.098z" fill="#F0F0F0"/><path d="M55.52 522.109h46.807c1.225 0 2.313-1.03 2.313-2.189s-1.088-2.189-2.313-2.189H55.521c-1.225 0-2.313 1.03-2.313 2.189-.136 1.159.952 2.189 2.313 2.189zm81.639-96.436h27.077c1.224 0 2.313-1.03 2.313-2.189s-1.089-2.189-2.313-2.189h-27.077c-1.225 0-2.313 1.03-2.313 2.189s1.088 2.189 2.313 2.189zM596.65 538.074c.408 0 .816 0 1.088-.129 1.497-.257 2.722-1.03 3.538-2.189 1.633-2.446.952-5.665-1.633-7.21l-50.616-31.673c-.952-.644-2.041-.901-3.129-.901-1.089 0-2.177.257-3.13.901l-50.616 31.673c-2.585 1.545-3.265 4.893-1.633 7.21.817 1.159 2.041 1.932 3.538 2.189 1.497.258 2.994 0 4.218-.772l47.623-29.742 47.622 29.742c.953.515 2.041.901 3.13.901zm-50.616-37.725c.136 0 .272 0 .544.129l50.48 31.544c.408.258.544.773.272 1.159-.136.258-.408.386-.544.386-.136 0-.408 0-.681-.128l-48.983-30.643a2.356 2.356 0 00-2.585 0l-48.983 30.643c-.272.128-.544.128-.68.128-.137 0-.409-.128-.545-.386-.272-.386-.136-.901.272-1.159l50.616-31.673c.136-.128.409-.128.545-.128.136.128.136.128.272.128z" fill="#F0F0F0"/><path opacity=".4" d="M505.381 493.123c1.054 0 4.506-.389 5.033-.908.157-.194.053-.387-.179-.584l-14.108-46.147H275.022c-4.338 16.738-2.875 11.968-3.402 12.876l-10.204 31.78c-.351.649-2.575 3.891 0 2.983.526.519 3.978 0 5.033 0l42.589-.908 63.95-40.293 67.352 40.293 65.041.908z" fill="#E7E8FF"/><path d="M545.762 534.469c4.762 0 8.572-3.605 8.572-8.111 0-4.507-3.81-8.112-8.572-8.112-4.763 0-8.572 3.605-8.572 8.112-.136 4.377 3.809 8.111 8.572 8.111zm0-11.974c2.177 0 3.946 1.674 3.946 3.734s-1.769 3.734-3.946 3.734c-2.177 0-3.946-1.674-3.946-3.734-.136-2.06 1.633-3.734 3.946-3.734z" fill="#F0F0F0"/><path d="M500.86 588.932h89.531c1.224 0 2.313-1.03 2.313-2.189v-53.819c0-1.159-1.089-2.189-2.313-2.189-1.225 0-2.313 1.03-2.313 2.189v51.63h-84.905v-51.63c0-1.159-1.088-2.189-2.313-2.189-1.224 0-2.313 1.03-2.313 2.189v53.819c0 1.159 1.089 2.189 2.313 2.189z" fill="#F0F0F0"/><path d="M515.964 587.515c1.224 0 2.313-1.03 2.313-2.189v-39.913h55.106v39.913c0 1.159 1.088 2.189 2.313 2.189 1.224 0 2.313-1.03 2.313-2.189v-42.102c0-1.159-1.089-2.189-2.313-2.189h-59.732c-1.225 0-2.314 1.03-2.314 2.189v42.102c0 1.159 1.089 2.189 2.314 2.189z" fill="#F0F0F0"/><path d="M515.964 550.821h59.732c.952 0 1.633-.644 1.633-1.545 0-.902-.681-1.546-1.633-1.546h-59.732c-.953 0-1.633.644-1.633 1.546 0 .772.816 1.545 1.633 1.545zm0 6.309h59.732c.952 0 1.633-.644 1.633-1.545 0-.902-.681-1.545-1.633-1.545h-59.732c-.953 0-1.633.643-1.633 1.545 0 .901.816 1.545 1.633 1.545zm0 6.308h59.732c.952 0 1.633-.644 1.633-1.545 0-.901-.681-1.545-1.633-1.545h-59.732c-.953 0-1.633.644-1.633 1.545 0 .901.816 1.545 1.633 1.545zm0 6.309h59.732c.952 0 1.633-.643 1.633-1.545 0-.901-.681-1.545-1.633-1.545h-59.732c-.953 0-1.633.644-1.633 1.545 0 .902.816 1.545 1.633 1.545zm0 6.309h59.732c.952 0 1.633-.644 1.633-1.545 0-.901-.681-1.545-1.633-1.545h-59.732c-.953 0-1.633.644-1.633 1.545 0 .901.816 1.545 1.633 1.545zm0 6.438h59.732c.952 0 1.633-.644 1.633-1.545 0-.901-.681-1.545-1.633-1.545h-59.732c-.953 0-1.633.644-1.633 1.545 0 .772.816 1.545 1.633 1.545zM-4.892 505.371c.545 0 1.225-.258 1.633-.644l9.116-8.627c.953-.901.953-2.188 0-3.09-.952-.901-2.313-.901-3.265 0l-9.116 8.627c-.953.901-.953 2.189 0 3.09.544.515 1.088.644 1.632.644z" fill="#F0F0F0"/><path d="M-5.164 549.79c.136 0 .408 0 .544-.128.545-.129 13.47-3.477 17.96-20.472 4.627-17.253-5.033-76.093-14.286-87.423-.952-1.159-2.04-1.931-2.993-2.318a2.692 2.692 0 00-1.089-.257h-.408c-.408 0-.68.129-1.088.257-1.089.387-2.041 1.159-2.994 2.318-9.252 11.33-18.913 70.17-14.287 87.423 4.49 16.995 17.417 20.343 17.96 20.472.409.128.545.128.681.128zm0-105.834c2.45 1.674 7.348 13.519 11.294 36.179 3.673 20.987 4.898 40.3 2.72 48.025-3.4 12.489-11.837 16.223-14.014 17.124-2.313-.772-10.749-4.506-14.014-17.124-2.041-7.854-.953-27.167 2.72-48.025 4.083-22.66 8.981-34.505 11.294-36.179z" fill="#F0F0F0"/><path d="M3.64 545.911c.13 0 .392 0 .523-.117.525-.118 12.85-3.175 17.308-18.58 4.458-15.641-4.852-69.147-13.767-79.377-.918-1.059-1.836-1.764-2.885-2.117a2.691 2.691 0 00-1.049-.236h-.393c-.393 0-.656.118-1.049.236-1.049.353-1.967 1.058-2.885 2.117-8.915 10.348-18.225 63.736-13.767 79.377 4.327 15.405 16.783 18.462 17.308 18.58.262.117.524.117.655.117z" fill="#C0FFCE" fill-opacity=".39"/><path d="M641.007 593.953c1.224 0 2.313-1.03 2.313-2.189V486.959c0-1.158-1.089-2.188-2.313-2.188-1.225 0-2.313 1.03-2.313 2.188v104.805c0 1.287 1.088 2.189 2.313 2.189z" fill="#F0F0F0"/><path d="M641.007 508.718c.544 0 1.224-.257 1.633-.643l9.116-8.627c.952-.901.952-2.189 0-3.09-.953-.901-2.313-.901-3.266 0l-9.116 8.627c-.952.901-.952 2.188 0 3.09.408.386 1.089.643 1.633.643zm0 15.966c.408 0 .952-.129 1.36-.387 1.089-.643 1.361-2.06.545-3.09l-9.933-13.519c-.68-1.03-2.177-1.287-3.266-.515-1.088.644-1.36 2.06-.544 3.09l9.933 13.519c.408.644 1.224.902 1.905.902z" fill="#F0F0F0"/><path d="M647.946 549.001c.136 0 .408 0 .544-.129.545-.128 13.335-3.476 17.961-20.343 4.626-17.124-5.035-75.706-14.287-86.908-.952-1.158-1.905-1.931-2.993-2.317a2.678 2.678 0 00-1.089-.258h-.408c-.408 0-.68.129-1.089.258-1.088.386-2.041 1.159-2.993 2.317-9.252 11.331-18.913 69.784-14.287 86.908 4.49 16.867 17.416 20.215 17.961 20.343.272.129.544.129.68.129zm960.614 5.151c.14 0 .41 0 .55-.129.54-.129 13.33-3.477 17.96-20.343 4.62-17.124-5.04-75.707-14.29-86.908-.95-1.159-1.9-1.931-2.99-2.318a2.725 2.725 0 00-1.09-.257h-.41c-.41 0-.68.129-1.09.257-1.09.387-2.04 1.159-2.99 2.318-9.25 11.33-18.91 69.784-14.29 86.908 4.49 16.866 17.42 20.214 17.96 20.343.27.129.55.129.68.129z" fill="#C0FFCE" fill-opacity=".39"/><path d="M640.735 552.881c.136 0 .408 0 .544-.129.544-.129 13.334-3.477 17.96-20.343 4.627-17.124-5.034-75.707-14.286-86.908-.953-1.159-1.905-1.931-2.994-2.318a2.69 2.69 0 00-1.088-.257h-.408c-.409 0-.681.129-1.089.257-1.089.387-2.041 1.159-2.993 2.318-9.253 11.33-18.913 69.784-14.287 86.908 4.49 16.866 17.416 20.214 17.96 20.343.272.129.545.129.681.129zm0-105.32c2.041 1.545 6.939 11.588 11.293 36.051 3.674 20.858 4.762 40.042 2.721 47.896-3.401 12.489-11.701 16.222-14.014 16.995-2.313-.773-10.613-4.506-14.015-16.995-2.041-7.854-.952-27.038 2.721-47.896 4.354-24.463 9.253-34.506 11.294-36.051zM323.16 588.674H424.8c1.225 0 2.314-1.03 2.314-2.189v-91.157c0-1.159-1.089-2.189-2.314-2.189-1.224 0-2.313 1.03-2.313 2.189v88.968h-97.014v-88.968c0-1.159-1.088-2.189-2.313-2.189-1.224 0-2.313 1.03-2.313 2.189v91.157c0 1.159 1.089 2.189 2.313 2.189z" fill="#F0F0F0"/><path d="M245.74 496.23h62.181c1.225 0 2.313-1.03 2.313-2.189s-1.088-2.189-2.313-2.189h-59.052l19.593-61.158h210.356l19.593 61.158h-58.507c-1.225 0-2.314 1.03-2.314 2.189s1.089 2.189 2.314 2.189h61.637c.68 0 1.36-.387 1.905-.902.408-.515.544-1.287.408-1.931L482.9 427.862c-.272-.901-1.225-1.545-2.177-1.545H266.966c-1.089 0-1.905.644-2.177 1.545l-20.954 65.535a1.728 1.728 0 00.408 1.931c.136.515.816.902 1.497.902z" fill="#F0F0F0"/><path d="M256.081 588.674h236.207c1.225 0 2.313-1.03 2.313-2.189v-92.444c0-1.159-1.088-2.189-2.313-2.189-1.224 0-2.313 1.03-2.313 2.189v90.255H258.394l-.409-90.255c0-1.159-1.088-2.189-2.313-2.189-1.224 0-2.313 1.03-2.313 2.189l.408 92.444c0 1.159 1.089 2.189 2.314 2.189z" fill="#F0F0F0"/><path d="M355.68 588.674c1.224 0 2.313-1.03 2.313-2.189v-56.007h32.111v54.848c0 1.159 1.088 2.189 2.313 2.189s2.313-1.03 2.313-2.189v-57.037c0-1.159-1.088-2.189-2.313-2.189H355.68c-1.225 0-2.313 1.03-2.313 2.189v58.067c0 1.288 1.088 2.318 2.313 2.318zm89.258-33.991h27.077c1.224 0 2.313-1.03 2.313-2.189v-38.239c0-1.159-1.089-2.189-2.313-2.189h-27.077c-1.225 0-2.313 1.03-2.313 2.189v38.239c0 1.288 1.088 2.189 2.313 2.189zm24.764-4.378h-22.315v-33.862h22.451v33.862h-.136z" fill="#F0F0F0"/><path d="M478.438 507.286h-27.213v42.488h27.213v-42.488zm-171.441 10.299h-25.852v38.626h25.852v-38.626z" fill="#FFE2C0" fill-opacity=".39"/><path d="M276.353 554.683h27.077c1.224 0 2.313-1.03 2.313-2.189v-38.239c0-1.159-1.089-2.189-2.313-2.189h-27.077c-1.225 0-2.313 1.03-2.313 2.189v38.239c0 1.288.952 2.189 2.313 2.189zm24.764-4.378h-22.451v-33.862h22.451v33.862zM176.481 379.193c1.225 0 2.314-1.03 2.314-2.189V345.46c0-1.159-1.089-2.189-2.314-2.189h-22.586c-1.225 0-2.313 1.03-2.313 2.189v17.382c0 1.158 1.088 2.188 2.313 2.188 1.224 0 2.313-1.03 2.313-2.188v-15.193h17.96v29.355c0 1.288.953 2.189 2.313 2.189z" fill="#F0F0F0"/><path d="M155.255 347.649h20.41c3.81 0 6.803-2.962 6.803-6.438v-.129c0-3.605-3.129-6.437-6.803-6.437h-20.41c-3.809 0-6.803 2.961-6.803 6.437v.129c-.136 3.476 2.994 6.438 6.803 6.438zm20.274-8.755c1.225 0 2.177.901 2.177 2.06v.128c0 1.159-.952 2.06-2.177 2.06h-20.41c-1.224 0-2.177-.901-2.177-2.06v-.128c0-1.159.953-2.06 2.177-2.06h20.41zm25.308 249.78h52.249c1.224 0 2.313-1.03 2.313-2.189v-46.222c0-1.159-1.089-2.189-2.313-2.189h-52.249c-1.225 0-2.313 1.03-2.313 2.189v46.222c0 1.159 1.088 2.189 2.313 2.189zm49.936-4.506H203.15v-41.845h47.623v41.845z" fill="#F0F0F0"/><path d="M246.419 588.674c1.224 0 2.313-1.03 2.313-2.189v-46.222c0-1.159-1.089-2.189-2.313-2.189-1.225 0-2.314 1.03-2.314 2.189v46.222c0 1.159 1.089 2.189 2.314 2.189zm-7.62 0c1.225 0 2.313-1.03 2.313-2.189v-46.222c0-1.159-1.088-2.189-2.313-2.189s-2.313 1.03-2.313 2.189v46.222c0 1.159.952 2.189 2.313 2.189zm-7.756 0c1.225 0 2.313-1.03 2.313-2.189v-46.222c0-1.159-1.088-2.189-2.313-2.189-1.224 0-2.313 1.03-2.313 2.189v46.222c0 1.159 1.089 2.189 2.313 2.189zm-7.755 0c1.224 0 2.313-1.03 2.313-2.189v-46.222c0-1.159-1.089-2.189-2.313-2.189-1.225 0-2.313 1.03-2.313 2.189v46.222c0 1.159 1.088 2.189 2.313 2.189zm-7.62 0c1.225 0 2.313-1.03 2.313-2.189v-46.222c0-1.159-1.088-2.189-2.313-2.189s-2.313 1.03-2.313 2.189v46.222c0 1.159.952 2.189 2.313 2.189zm-7.756 0c1.225 0 2.313-1.03 2.313-2.189v-46.222c0-1.159-1.088-2.189-2.313-2.189-1.224 0-2.313 1.03-2.313 2.189v46.222c0 1.159 1.089 2.189 2.313 2.189zm407.106 19.699c1.225 0 2.314-1.03 2.314-2.189v-50.986c0-1.159-1.089-2.189-2.314-2.189-1.224 0-2.313 1.03-2.313 2.189v50.986c0 1.159 1.089 2.189 2.313 2.189z" fill="#F0F0F0"/><path d="M615.019 566.657c.544 0 1.224-.258 1.632-.644l5.307-4.893c.952-.901.952-2.188 0-3.09-.953-.901-2.313-.901-3.266 0l-5.306 4.893c-.953.901-.953 2.189 0 3.09.408.386 1.088.644 1.633.644zm0 8.884c.408 0 .952-.129 1.36-.386 1.089-.644 1.361-2.06.681-3.09l-6.26-8.884c-.68-1.03-2.177-1.288-3.265-.644-1.089.644-1.361 2.06-.68 3.09l6.259 8.884c.408.644 1.224 1.03 1.905 1.03z" fill="#F0F0F0"/><path d="M615.018 582.236c11.838 0 21.363-9.141 21.363-20.214 0-11.202-9.661-20.214-21.363-20.214-11.837 0-21.362 9.141-21.362 20.214 0 11.073 9.525 20.214 21.362 20.214zm0-36.18c9.253 0 16.736 7.082 16.736 15.837 0 8.755-7.483 15.837-16.736 15.837-9.252 0-16.735-7.082-16.735-15.837 0-8.626 7.483-15.837 16.735-15.837zm222.874-150.254c2.585 0 5.17-1.158 6.667-3.347 2.449-3.476 1.361-8.112-2.313-10.429l-88.578-55.364c-1.36-.901-2.993-1.287-4.626-1.287-1.633 0-3.266.386-4.626 1.287l-88.578 55.364c-3.674 2.317-4.626 6.953-2.313 10.429 2.449 3.476 7.347 4.377 11.021 2.189l84.36-52.789 84.36 52.789c1.633.772 3.129 1.158 4.626 1.158zm1.905-10.042c1.497.901 1.905 2.832.952 4.377-.952 1.417-2.993 1.803-4.626.902l-85.72-53.561a2.357 2.357 0 00-2.586 0l-85.72 53.561c-1.497.901-3.538.515-4.626-.902-.953-1.416-.545-3.347.952-4.377l88.578-55.364c.544-.386 1.225-.515 1.905-.515h.136c.68 0 1.361.129 1.905.515l88.85 55.364z" fill="#F0F0F0"/><path d="M675.732 558.786V391.408l76.837-51.501 75.555 51.501v167.378H675.732z" fill="#FFCFC0" fill-opacity=".39"/><path d="M668.628 589.704h160.42c1.224 0 2.313-1.03 2.313-2.189V389.236c0-1.159-1.089-2.189-2.313-2.189-1.225 0-2.313 1.03-2.313 2.189v196.09H670.941v-195.06c0-1.159-1.089-2.189-2.313-2.189-1.225 0-2.313 1.03-2.313 2.189v197.12c0 1.288.952 2.318 2.313 2.318z" fill="#F0F0F0"/><path d="M748.526 391.408c9.302 0 17.008-7.166 17.008-16.094 0-8.801-7.573-16.094-17.008-16.094-9.301 0-17.008 7.166-17.008 16.094.133 8.928 7.707 16.094 17.008 16.094z" fill="#fff"/><path d="M748.77 391.425c9.524 0 17.416-7.339 17.416-16.481 0-9.012-7.756-16.48-17.416-16.48-9.525 0-17.416 7.339-17.416 16.48.136 9.013 7.891 16.481 17.416 16.481zm0-28.583c7.075 0 12.79 5.407 12.79 12.102 0 6.696-5.715 12.103-12.79 12.103-7.075 0-12.79-5.407-12.79-12.103.136-6.695 5.851-12.102 12.79-12.102z" fill="#F0F0F0"/><path d="M748.77 391.425c1.224 0 2.313-1.03 2.313-2.189v-28.454c0-1.159-1.089-2.189-2.313-2.189-1.225 0-2.313 1.03-2.313 2.189v28.454c0 1.159 1.088 2.189 2.313 2.189z" fill="#F0F0F0"/><path d="M733.803 377.133h29.934c1.225 0 2.313-1.03 2.313-2.189 0-1.158-1.088-2.188-2.313-2.188h-29.934c-1.225 0-2.313 1.03-2.313 2.188 0 1.159.952 2.189 2.313 2.189z" fill="#F0F0F0"/><path opacity=".3" d="M1219.99 540.761h-54.43v28.326h54.43v-28.326z" fill="#FFD2BF"/><path d="M694.328 467.372h29.479c1.202 0 2.269-.991 2.269-2.107v-45.999c0-1.116-1.067-2.107-2.269-2.107h-29.479c-1.202 0-2.268.991-2.268 2.107v45.999c0 1.116 1.066 2.107 2.268 2.107zm40.728 0h28.301c1.153 0 2.177-.991 2.177-2.107v-45.999c0-1.116-1.024-2.107-2.177-2.107h-28.301c-1.153 0-2.177.991-2.177 2.107v45.999c0 1.116 1.024 2.107 2.177 2.107zm38.189 1.288h29.48c1.201 0 2.268-1.017 2.268-2.162V419.32c0-1.144-1.067-2.161-2.268-2.161h-29.48c-1.201 0-2.268 1.017-2.268 2.161v47.178c0 1.145 1.067 2.162 2.268 2.162zm1.269 73.388h28.302c1.152 0 2.177-1.017 2.177-2.161v-47.178c0-1.145-1.025-2.162-2.177-2.162h-28.302c-1.152 0-2.177 1.017-2.177 2.162v47.178c0 1.144 1.025 2.161 2.177 2.161zm-39.458 0h28.301c1.153 0 2.177-1.017 2.177-2.161v-47.178c0-1.145-1.024-2.162-2.177-2.162h-28.301c-1.153 0-2.177 1.017-2.177 2.162v47.178c0 1.144 1.024 2.161 2.177 2.161zm-40.819 0h28.301c1.152 0 2.177-1.017 2.177-2.161v-47.178c0-1.145-1.025-2.162-2.177-2.162h-28.301c-1.153 0-2.177 1.017-2.177 2.162v47.178c0 1.144 1.024 2.161 2.177 2.161z" fill="#fff"/><path d="M693.664 469.449h30.07c1.224 0 2.313-1.03 2.313-2.189v-47.767c0-1.159-1.089-2.189-2.313-2.189h-30.07c-1.225 0-2.313 1.03-2.313 2.189v47.767c0 1.159 1.088 2.189 2.313 2.189zm27.757-4.378h-25.444v-43.389h25.444v43.389z" fill="#F0F0F0"/><path d="M693.664 444.728h30.07c1.224 0 2.313-1.03 2.313-2.189 0-1.158-1.089-2.188-2.313-2.188h-30.07c-1.225 0-2.313 1.03-2.313 2.188 0 1.288 1.088 2.189 2.313 2.189zm40.139 24.721h30.07c1.225 0 2.313-1.03 2.313-2.189v-47.767c0-1.159-1.088-2.189-2.313-2.189h-30.07c-1.225 0-2.313 1.03-2.313 2.189v47.767c0 1.159.952 2.189 2.313 2.189zm27.757-4.378h-25.444v-43.389h25.444v43.389z" fill="#F0F0F0"/><path d="M733.803 444.728h30.07c1.225 0 2.313-1.03 2.313-2.189 0-1.158-1.088-2.188-2.313-2.188h-30.07c-1.225 0-2.313 1.03-2.313 2.188 0 1.288.952 2.189 2.313 2.189zm-39.459 97.595h30.07c1.225 0 2.313-1.03 2.313-2.189v-47.767c0-1.159-1.088-2.189-2.313-2.189h-30.07c-1.225 0-2.313 1.03-2.313 2.189v47.767c0 1.288 1.088 2.189 2.313 2.189zm27.757-4.378h-25.444v-43.389h25.444v43.389z" fill="#F0F0F0"/><path d="M694.344 517.731h30.07c1.225 0 2.313-1.03 2.313-2.189 0-1.158-1.088-2.188-2.313-2.188h-30.07c-1.225 0-2.313 1.03-2.313 2.188 0 1.159 1.088 2.189 2.313 2.189zm40.003 24.592h30.07c1.225 0 2.313-1.03 2.313-2.189v-47.767c0-1.159-1.088-2.189-2.313-2.189h-30.07c-1.225 0-2.313 1.03-2.313 2.189v47.767c0 1.288 1.088 2.189 2.313 2.189zm27.757-4.378H736.66v-43.389h25.444v43.389z" fill="#F0F0F0"/><path d="M734.347 517.731h30.07c1.225 0 2.313-1.03 2.313-2.189 0-1.158-1.088-2.188-2.313-2.188h-30.07c-1.225 0-2.313 1.03-2.313 2.188 0 1.159 1.088 2.189 2.313 2.189zm39.187-48.282h30.07c1.224 0 2.313-1.03 2.313-2.189v-47.767c0-1.159-1.089-2.189-2.313-2.189h-30.07c-1.225 0-2.314 1.03-2.314 2.189v47.767c0 1.159.953 2.189 2.314 2.189zm27.757-4.378h-25.444v-43.389h25.444v43.389z" fill="#F0F0F0"/><path d="M773.534 444.728h30.07c1.224 0 2.313-1.03 2.313-2.189 0-1.158-1.089-2.188-2.313-2.188h-30.07c-1.225 0-2.314 1.03-2.314 2.188 0 1.288.953 2.189 2.314 2.189zm.544 97.595h30.07c1.225 0 2.313-1.03 2.313-2.189v-47.767c0-1.159-1.088-2.189-2.313-2.189h-30.07c-1.225 0-2.313 1.03-2.313 2.189v47.767c0 1.288 1.088 2.189 2.313 2.189zm27.757-4.378h-25.444v-43.389h25.444v43.389z" fill="#F0F0F0"/><path d="M774.078 517.731h30.07c1.225 0 2.313-1.03 2.313-2.189 0-1.158-1.088-2.188-2.313-2.188h-30.07c-1.225 0-2.313 1.03-2.313 2.188 0 1.159 1.088 2.189 2.313 2.189zm54.97-114.461h116.743c.953 0 1.769-.515 2.177-1.288.408-.772.272-1.673-.408-2.317l-60.549-66.308c-.408-.515-1.088-.772-1.769-.772H762.24c-1.224 0-2.313 1.03-2.313 2.189 0 1.158 1.089 2.188 2.313 2.188h121.914l56.603 61.93H829.048c-1.225 0-2.313 1.03-2.313 2.189s1.088 2.189 2.313 2.189z" fill="#F0F0F0"/><path d="M829.048 589.704h111.164c1.225 0 2.313-1.03 2.313-2.189V401.081c0-1.159-1.088-2.189-2.313-2.189-1.224 0-2.313 1.03-2.313 2.189v184.245H829.048c-1.225 0-2.313 1.03-2.313 2.189s1.088 2.189 2.313 2.189z" fill="#F0F0F0"/><path d="M860.479 589.704c1.224 0 2.313-1.03 2.313-2.189v-74.676h44.085v74.676c0 1.159 1.088 2.189 2.313 2.189 1.224 0 2.313-1.03 2.313-2.189V510.65c0-1.159-1.089-2.189-2.313-2.189h-48.711c-1.225 0-2.313 1.03-2.313 2.189v76.865c0 1.159 1.088 2.189 2.313 2.189zM847.961 452.84h72.386c1.225 0 2.313-1.03 2.313-2.189v-31.158c0-1.159-1.088-2.189-2.313-2.189h-72.522c-1.225 0-2.313 1.03-2.313 2.189v31.158c.136 1.159 1.088 2.189 2.449 2.189zm70.073-4.378h-67.896v-26.78h67.896v26.78z" fill="#F0F0F0"/><path d="M847.961 427.604h72.386c1.225 0 2.313-1.03 2.313-2.189 0-1.158-1.088-2.188-2.313-2.188h-72.522c-1.225 0-2.313 1.03-2.313 2.188.136 1.159 1.088 2.189 2.449 2.189z" fill="#F0F0F0"/><path d="M884.154 452.84c1.225 0 2.313-1.03 2.313-2.189V425.93c0-1.158-1.088-2.188-2.313-2.188s-2.313 1.03-2.313 2.188v24.721c0 1.159 1.088 2.189 2.313 2.189z" fill="#F0F0F0"/><path d="M1892.83 83.69c-22.17 0-40.14-17.006-40.14-37.983 0-20.977 17.97-37.982 40.14-37.982s40.14 17.005 40.14 37.982S1915 83.69 1892.83 83.69z" fill="#FFF6E3"/><path d="M1886.71 81.758c-22.92 0-41.5-17.582-41.5-39.27 0-21.688 18.58-39.27 41.5-39.27 22.91 0 41.49 17.582 41.49 39.27 0 21.688-18.58 39.27-41.49 39.27z" stroke="#F0F0F0" stroke-width="5"/></g><defs><clipPath id="clip0_55_688"><path fill="#fff" transform="translate(-25)" d="M0 0h1943v609H0z"/></clipPath></defs></svg>